<?xml version="1.0" standalone="no"?>
<!DOCTYPE svg PUBLIC "-//W3C//DTD SVG 1.1//EN" "http://www.w3.org/Graphics/SVG/1.1/DTD/svg11.dtd" >
<svg xmlns="http://www.w3.org/2000/svg" xmlns:xlink="http://www.w3.org/1999/xlink" version="1.1">
<metadata>
Created by FontForge 20170731 at Fri Dec  2 11:32:34 2016
 By Aleksey,,,
Digitized data copyright (c) 2012-2015, The Mozilla Foundation and Telefonica S.A.
</metadata>
<defs>
<font id="FiraMono-Bold" horiz-adv-x="600" >
  <font-face 
    font-family="Fira Mono"
    font-weight="700"
    font-stretch="normal"
    units-per-em="1000"
    panose-1="2 11 8 9 5 0 0 2 0 4"
    ascent="800"
    descent="-200"
    x-height="531"
    cap-height="693"
    bbox="-634 -500 1192 1050"
    underline-thickness="50"
    underline-position="-150"
    unicode-range="U+000D-1F310"
  />
<missing-glyph 
d="M510 1050v-1400h-420v1400h420zM456 998h-311v-1296h311v1296zM299.5 155.5q-7.5 -6.5 -17.5 -6.5t-17.5 6.5t-7.5 17.5v84q53 3 72 19.5t19 57.5q0 33 -13 51t-48 18q-29 0 -52 -11q-7 -3 -13 -3q-11 0 -17.5 6.5t-6.5 16.5q0 19 29.5 29t63.5 10q60 0 85.5 -32
t25.5 -83q0 -53 -22.5 -82t-72.5 -36v-45q0 -11 -7.5 -17.5zM257 110q10 10 25 10t25 -10t10 -25q0 -16 -10 -26.5t-25 -10.5t-25 10.5t-10 26.5q0 15 10 25z" />
    <glyph glyph-name=".notdef" 
d="M510 1050v-1400h-420v1400h420zM456 998h-311v-1296h311v1296zM299.5 155.5q-7.5 -6.5 -17.5 -6.5t-17.5 6.5t-7.5 17.5v84q53 3 72 19.5t19 57.5q0 33 -13 51t-48 18q-29 0 -52 -11q-7 -3 -13 -3q-11 0 -17.5 6.5t-6.5 16.5q0 19 29.5 29t63.5 10q60 0 85.5 -32
t25.5 -83q0 -53 -22.5 -82t-72.5 -36v-45q0 -11 -7.5 -17.5zM257 110q10 10 25 10t25 -10t10 -25q0 -16 -10 -26.5t-25 -10.5t-25 10.5t-10 26.5q0 15 10 25z" />
    <glyph glyph-name=".null" horiz-adv-x="0" 
 />
    <glyph glyph-name="nonmarkingreturn" unicode="&#xd;" 
 />
    <glyph glyph-name="space" unicode=" " 
 />
    <glyph glyph-name="exclam" unicode="!" 
d="M364 255h-127l-21 438h168zM364 137.5q26 -26.5 26 -63.5q0 -38 -26 -64.5t-64 -26.5q-37 0 -63.5 26.5t-26.5 64.5q0 37 26.5 63.5t63.5 26.5q38 0 64 -26.5z" />
    <glyph glyph-name="quotedbl" unicode="&#x22;" 
d="M129 742h150l-19 -280h-112zM320 742h151l-19 -280h-113z" />
    <glyph glyph-name="numbersign" unicode="#" 
d="M466 249h63v-104h-77l-19 -145h-130l19 145h-96l-19 -145h-130l18 145h-60v104h74l26 197h-63v105h77l18 142h131l-19 -142h96l19 142h130l-19 -142h61v-105h-75zM335 249l26 197h-96l-26 -197h96z" />
    <glyph glyph-name="dollar" unicode="$" 
d="M349 708q114 -10 197 -79l-77 -81q-53 44 -120 49v-175q108 -35 158.5 -83.5t50.5 -134.5t-55 -145.5t-154 -71.5v-149h-81v146q-70 5 -128 31t-98 64l76 88q35 -31 71 -47.5t79 -19.5v208q-107 36 -154 84t-47 119q0 82 54 134t147 62v149h81v-148zM223.5 573
q-15.5 -18 -15.5 -43q0 -27 11.5 -43.5t48.5 -33.5v143q-29 -5 -44.5 -23zM349 103q62 14 62 82q0 31 -13 52t-49 39v-173z" />
    <glyph glyph-name="percent" unicode="%" 
d="M509 681l-341 -710l-83 35l340 710zM251 668q38 -43 38 -114q0 -72 -38 -114.5t-104 -42.5q-68 0 -106 42.5t-38 114.5q0 70 38.5 113.5t105.5 43.5q66 0 104 -43zM115 614q-8 -19 -8 -60q0 -39 8.5 -59t31.5 -20t31 19t8 60q0 43 -8 61t-31 18q-24 0 -32 -19zM558 264.5
q38 -42.5 38 -114.5t-38 -114t-104 -42q-68 0 -106 42t-38 114q0 70 38.5 113.5t105.5 43.5q66 0 104 -42.5zM422 210.5q-8 -19.5 -8 -60.5q0 -38 8.5 -58t31.5 -20t31 19t8 59q0 43 -8 61.5t-31 18.5q-24 0 -32 -19.5z" />
    <glyph glyph-name="ampersand" unicode="&#x26;" 
d="M387 692q46 -18 86 -61l-85 -73q-23 24 -43 34t-48 10q-35 0 -54 -21t-19 -58q0 -39 25.5 -64.5t66.5 -25.5h262v-101h-66v-262q-36 -38 -92.5 -62.5t-138.5 -24.5q-77 0 -132 27.5t-83.5 76.5t-28.5 111q0 80 39.5 126.5t113.5 64.5v4q-118 31 -118 150q0 47 26.5 85
t74 60t106.5 22q62 0 108 -18zM307 332q-56 0 -85.5 -35.5t-29.5 -86.5t25.5 -81.5t72.5 -30.5q24 0 44 7.5t32 20.5v206h-59z" />
    <glyph glyph-name="quotesingle" unicode="'" 
d="M225 742h149l-18 -280h-112z" />
    <glyph glyph-name="parenleft" unicode="(" 
d="M278.5 200q17.5 -66 58 -130.5t113.5 -144.5l-91 -83q-127 109 -192.5 230.5t-65.5 277.5t65.5 277.5t192.5 230.5l91 -83q-102 -112 -145.5 -207.5t-43.5 -217.5q0 -84 17.5 -150z" />
    <glyph glyph-name="parenright" unicode=")" 
d="M295.5 567.5q-43.5 95.5 -145.5 207.5l91 83q127 -109 192.5 -230.5t65.5 -277.5t-65.5 -277.5t-192.5 -230.5l-91 83q73 80 113.5 144.5t58 130.5t17.5 150q0 122 -43.5 217.5z" />
    <glyph glyph-name="asterisk" unicode="*" 
d="M346 380l136 64l41 -124l-149 -28l106 -109l-109 -79l-72 134l-69 -135l-109 79l104 111l-147 27l39 124l137 -63l-22 150h135z" />
    <glyph glyph-name="plus" unicode="+" 
d="M365 373h152v-121h-152v-156h-131v156h-151v121h151v156h131v-156z" />
    <glyph glyph-name="comma" unicode="," 
d="M378 175q31 -31 31 -77q0 -28 -9 -55.5t-34 -82.5l-72 -163h-106l51 212q-22 14 -34.5 37.5t-12.5 52.5q0 45 31 76t77 31q47 0 78 -31z" />
    <glyph glyph-name="hyphen" unicode="-" 
d="M108 374h384v-122h-384v122z" />
    <glyph glyph-name="period" unicode="." 
d="M221.5 173q32.5 33 78.5 33t78.5 -33t32.5 -78q0 -46 -32.5 -79t-78.5 -33t-78.5 33t-32.5 79q0 45 32.5 78z" />
    <glyph glyph-name="slash" unicode="/" 
d="M29 -55l420 872l122 -57l-419 -872z" />
    <glyph glyph-name="zero" unicode="0" 
d="M486.5 616q63.5 -95 63.5 -268q0 -174 -63.5 -269.5t-186.5 -95.5t-186.5 95.5t-63.5 269.5q0 173 63.5 268t186.5 95t186.5 -95zM226.5 538.5q-23.5 -57.5 -23.5 -190.5q0 -137 23.5 -194t73.5 -57q51 0 73.5 57t22.5 194q0 135 -23.5 191.5t-72.5 56.5
q-50 0 -73.5 -57.5zM346 391q19 -19 19 -46q0 -28 -19 -47t-47 -19t-46.5 19t-18.5 47q0 27 18.5 46t46.5 19t47 -19z" />
    <glyph glyph-name="one" unicode="1" 
d="M551 120v-120h-450v120h167v418l-143 -90l-67 109l224 136h140v-573h129z" />
    <glyph glyph-name="two" unicode="2" 
d="M406 684q54 -27 81.5 -72.5t27.5 -99.5q0 -57 -26 -110t-85.5 -118.5t-168.5 -162.5h296l-17 -121h-460v112q123 119 184 185.5t88.5 113t27.5 87.5q0 43 -24 67t-69 24q-39 0 -68 -16.5t-57 -53.5l-96 73q41 57 98.5 88t137.5 31q76 0 130 -27z" />
    <glyph glyph-name="three" unicode="3" 
d="M397.5 687q53.5 -24 82 -64.5t28.5 -89.5q0 -64 -37.5 -105t-104.5 -61q164 -22 164 -172q0 -59 -32.5 -107.5t-93.5 -76.5t-142 -28q-76 0 -138 27t-106 77l89 83q57 -66 144 -66q53 0 85 27t32 75q0 104 -117 104h-63l18 108h44q48 0 76.5 23.5t28.5 67.5
q0 39 -28 61.5t-73 22.5q-75 0 -138 -60l-81 84q97 94 237 94q72 0 125.5 -24z" />
    <glyph glyph-name="four" unicode="4" 
d="M553 146h-69v-146h-151l-1 146h-287v104l192 461l134 -50l-163 -397h124l18 167h134v-167h69v-118z" />
    <glyph glyph-name="five" unicode="5" 
d="M497 580h-253v-150q49 23 102 23q54 0 98.5 -27.5t70.5 -78.5t26 -119q0 -70 -34 -126t-96 -87.5t-142 -31.5q-73 0 -131.5 27.5t-98.5 76.5l91 83q25 -32 57.5 -49t69.5 -17q55 0 88 33.5t33 87.5q0 119 -94 119q-43 0 -84 -23h-107v372h422z" />
    <glyph glyph-name="six" unicode="6" 
d="M459 438q44 -27 69.5 -79.5t25.5 -123.5q0 -70 -30.5 -127.5t-86 -91t-129.5 -33.5q-130 0 -194 92.5t-64 237.5q0 117 36.5 207t104.5 140.5t160 50.5q85 0 150 -45l-60 -96q-40 28 -88 28q-58 0 -95.5 -51.5t-42.5 -144.5q30 31 68.5 47t76.5 16q55 0 99 -27z
M374.5 132q21.5 36 21.5 94q0 69 -19.5 99.5t-57.5 30.5q-28 0 -55 -14t-49 -39q1 -107 22.5 -157t72.5 -50q43 0 64.5 36z" />
    <glyph glyph-name="seven" unicode="7" 
d="M114 31l258 543h-304v119h464v-107l-268 -602z" />
    <glyph glyph-name="eight" unicode="8" 
d="M504.5 444q-25.5 -35 -81.5 -67q134 -68 134 -189q0 -55 -30 -102t-88.5 -75t-141.5 -28q-81 0 -138.5 27.5t-86.5 73t-29 100.5q0 58 33.5 102.5t93.5 70.5q-55 35 -77.5 70.5t-22.5 91.5q0 58 30 101.5t82.5 67t118.5 23.5q67 0 119 -22.5t81 -64t29 -97.5
q0 -48 -25.5 -83zM244 459q24 -24 77 -44q33 24 46 48t13 55q0 39 -20 62t-59 23t-60 -21.5t-21 -62.5q0 -36 24 -60zM385.5 244.5q-13.5 21.5 -40.5 37t-78 33.5q-66 -42 -66 -121q0 -45 25.5 -71.5t74.5 -26.5t73.5 26.5t24.5 66.5q0 34 -13.5 55.5z" />
    <glyph glyph-name="nine" unicode="9" 
d="M485.5 636q65.5 -75 65.5 -202q0 -133 -45 -225t-137.5 -150t-239.5 -89l-33 111q124 31 193 82.5t92 132.5q-32 -28 -66 -42.5t-75 -14.5q-54 0 -99 28t-71 78.5t-26 115.5q0 74 33 130.5t90 88t129 31.5q124 0 189.5 -75zM226.5 378q23.5 -28 62.5 -28q51 0 99 40
q1 75 -6.5 119t-27.5 66.5t-59 22.5q-44 0 -68 -32.5t-24 -99.5q0 -60 23.5 -88z" />
    <glyph glyph-name="colon" unicode=":" 
d="M225.5 508q30.5 31 74.5 31t74 -31t30 -74t-30 -73.5t-74 -30.5t-74.5 30.5t-30.5 73.5t30.5 74zM225.5 161.5q30.5 30.5 74.5 30.5t74 -30.5t30 -72.5q0 -44 -30 -75t-74 -31t-74.5 31t-30.5 75q0 42 30.5 72.5z" />
    <glyph glyph-name="semicolon" unicode=";" 
d="M374 508q30 -31 30 -74t-30 -73.5t-74 -30.5t-74.5 30.5t-30.5 73.5t30.5 74t74.5 31t74 -31zM374.5 167q29.5 -30 29.5 -74q0 -26 -9 -54t-32 -79l-69 -158h-103l49 205q-21 14 -33 37t-12 50q0 44 30 73.5t75 29.5t74.5 -30z" />
    <glyph glyph-name="less" unicode="&#x3c;" 
d="M531 504l-325 -190l325 -186l-72 -113l-389 242v113l391 243z" />
    <glyph glyph-name="equal" unicode="=" 
d="M527 354h-454v124h454v-124zM527 145h-454v123h454v-123z" />
    <glyph glyph-name="greater" unicode="&#x3e;" 
d="M531 371v-114l-390 -242l-71 108l324 191l-324 185l70 114z" />
    <glyph glyph-name="question" unicode="?" 
d="M421 688q52 -23 78.5 -61t26.5 -84q0 -41 -14.5 -70t-35.5 -47.5t-55 -41.5q-41 -27 -61 -49.5t-20 -58.5v-21h-144v26q0 47 15 79t36 51.5t53 41.5t46.5 37.5t14.5 38.5q0 27 -22 42t-58 15q-34 0 -66 -15.5t-59 -45.5l-100 78q92 108 240 108q73 0 125 -23zM334 137.5
q27 -26.5 27 -63.5t-26.5 -64t-64.5 -27q-37 0 -63.5 26.5t-26.5 64.5q0 37 26.5 63.5t63.5 26.5t64 -26.5z" />
    <glyph glyph-name="at" unicode="@" 
d="M527.5 603.5q71.5 -107.5 71.5 -307.5q0 -134 -13.5 -218t-48 -128t-96.5 -44q-54 0 -83.5 38.5t-36.5 99.5h-4q-18 -41 -54 -67t-86 -26q-84 0 -123 62t-39 166q0 127 53.5 198t159.5 71q41 0 84.5 -11t83.5 -33v-300q0 -54 9.5 -77t30.5 -23q19 0 28 27t11.5 83.5
t2.5 172.5q0 111 -17 181.5t-60.5 107.5t-121.5 37q-56 0 -109 -21.5t-109 -70.5l-63 74q68 60 137.5 88t151.5 28q169 0 240.5 -107.5zM183.5 333q-14.5 -16 -20.5 -52t-6 -102q0 -70 10.5 -99.5t38.5 -29.5q29 0 41 20t16 51v219q-18 9 -38 9q-27 0 -41.5 -16z" />
    <glyph glyph-name="A" unicode="A" 
d="M197 150l-36 -150h-172l212 693h199l212 -693h-176l-36 150h-203zM373 268l-75 307l-75 -307h150z" />
    <glyph glyph-name="B" unicode="B" 
d="M492.5 46q-78.5 -46 -206.5 -46h-230v693h220q119 0 192 -41.5t73 -135.5q0 -59 -36 -97t-91 -52q66 -11 111.5 -49.5t45.5 -114.5q0 -111 -78.5 -157zM350.5 558.5q-25.5 18.5 -80.5 18.5h-50v-161h56q52 0 76 19.5t24 63.5q0 41 -25.5 59.5zM372.5 284
q-29.5 22 -85.5 22h-67v-186h60q57 0 89.5 19t32.5 71t-29.5 74z" />
    <glyph glyph-name="C" unicode="C" 
d="M482 692q52 -19 98 -57l-80 -97q-63 51 -138 51q-71 0 -114.5 -60t-43.5 -181t43 -179.5t118 -58.5q46 0 79 16t71 46l74 -95q-92 -94 -233 -94q-95 0 -167.5 42t-113.5 124.5t-41 198.5q0 113 42 195t116 125t166 43q72 0 124 -19z" />
    <glyph glyph-name="D" unicode="D" 
d="M239 0h-187v693h175q157 0 252 -73.5t95 -269.5q0 -350 -335 -350zM365 526.5q-40 47.5 -114 47.5h-35v-455h35q75 0 114.5 51.5t39.5 179.5q0 129 -40 176.5z" />
    <glyph glyph-name="E" unicode="E" 
d="M257 409h240v-114h-240v-177h289v-118h-453v693h453l-17 -117h-272v-167z" />
    <glyph glyph-name="F" unicode="F" 
d="M273 393h242v-118h-242v-275h-165v693h455l-16 -117h-274v-183z" />
    <glyph glyph-name="G" unicode="G" 
d="M100.5 76.5q-77.5 93.5 -77.5 271.5q0 115 42 197t115.5 124t164.5 42q71 0 123.5 -22.5t96.5 -63.5l-86 -89q-33 29 -61.5 42t-64.5 13q-75 0 -118 -59.5t-43 -184.5q0 -134 32 -189t103 -55q47 0 86 21v159h-87l-16 114h258v-344q-114 -70 -242 -70q-148 0 -225.5 93.5
z" />
    <glyph glyph-name="H" unicode="H" 
d="M384 292h-168v-292h-164v693h164v-266h168v266h164v-693h-164v292z" />
    <glyph glyph-name="I" unicode="I" 
d="M525 573h-143v-452h143v-121h-450v121h143v452h-143v120h450v-120z" />
    <glyph glyph-name="J" unicode="J" 
d="M527 249q0 -122 -73.5 -193t-205.5 -71q-64 0 -112.5 16t-96.5 49l62 101q36 -24 67 -34t71 -10q55 0 89.5 35.5t34.5 105.5v325h-212v120h376v-444z" />
    <glyph glyph-name="K" unicode="K" 
d="M59 0v693h164v-693h-164zM417 693h172l-196 -311l215 -382h-189l-191 370z" />
    <glyph glyph-name="L" unicode="L" 
d="M93 693h164v-563h300l-16 -130h-448v693z" />
    <glyph glyph-name="M" unicode="M" 
d="M583 0h-144l-8 297q-1 22 -1 60q0 50 3 97.5t7 99.5l-78 -436h-124l-85 436q11 -115 11 -207l-1 -53l-5 -294h-141l39 693h169l77 -448l73 448h169z" />
    <glyph glyph-name="N" unicode="N" 
d="M167 557q10 -76 17 -146.5t7 -149.5v-261h-139v693h205l176 -555q-24 154 -24 290v265h139v-693h-199z" />
    <glyph glyph-name="O" unicode="O" 
d="M505.5 80.5q-71.5 -97.5 -205.5 -97.5q-135 0 -206 96.5t-71 267.5q0 169 71.5 266.5t205.5 97.5q135 0 206 -96.5t71 -267.5q0 -169 -71.5 -266.5zM383.5 533q-25.5 58 -83.5 58t-83.5 -58t-25.5 -186t25.5 -186t83.5 -58q59 0 84 58t25 186t-25.5 186z" />
    <glyph glyph-name="P" unicode="P" 
d="M502.5 290.5q-73.5 -59.5 -200.5 -59.5h-76v-231h-164v693h218q144 0 220 -56.5t76 -169.5q0 -117 -73.5 -176.5zM283 576h-57v-227h65q56 0 86.5 29t30.5 89q0 109 -125 109z" />
    <glyph glyph-name="Q" unicode="Q" 
d="M429 40q84 -14 130.5 -50t74.5 -117l-134 -46q-24 57 -49 90.5t-63.5 51t-97.5 17.5q-128 0 -193 94.5t-65 266.5q0 170 69 267t202 97q134 0 202.5 -96t68.5 -268q0 -233 -145 -307zM395 487.5q-9 52.5 -31 77.5t-61 25t-61 -25.5t-31 -78t-9 -139.5q0 -130 22.5 -187
t78.5 -57q40 0 61.5 25.5t30.5 78t9 140.5t-9 140.5z" />
    <glyph glyph-name="R" unicode="R" 
d="M523.5 364.5q-37.5 -47.5 -100.5 -72.5l181 -292h-186l-150 265h-46v-265h-164v693h218q143 0 214 -52t71 -159q0 -70 -37.5 -117.5zM363.5 555q-28.5 23 -87.5 23h-54v-200h61q54 0 81.5 25t27.5 79q0 50 -28.5 73z" />
    <glyph glyph-name="S" unicode="S" 
d="M534 88q-34 -50 -97.5 -77.5t-150.5 -27.5q-172 0 -274 100l83 92q79 -70 187 -70q52 0 83.5 22.5t31.5 62.5q0 38 -26.5 59.5t-98.5 43.5q-122 37 -173 87t-51 129q0 62 34.5 108t94 70t132.5 24q153 0 248 -90l-77 -89q-35 29 -75.5 43.5t-83.5 14.5q-48 0 -75.5 -17.5
t-27.5 -50.5q0 -22 12.5 -37t41.5 -28t87 -31q106 -32 157.5 -82.5t51.5 -140.5q0 -65 -34 -115z" />
    <glyph glyph-name="T" unicode="T" 
d="M381 0h-164v567h-195v126h561l-16 -126h-186v-567z" />
    <glyph glyph-name="U" unicode="U" 
d="M558 232q0 -72 -29 -128.5t-87 -88.5t-142 -32q-126 0 -192 67t-66 182v461h165v-400q0 -67 7 -107t27.5 -60.5t58.5 -20.5t58.5 20.5t27.5 60.5t7 107v400h165v-461z" />
    <glyph glyph-name="V" unicode="V" 
d="M433 693h168l-200 -693h-202l-199 693h174l129 -565z" />
    <glyph glyph-name="W" unicode="W" 
d="M522 0h-170l-51 496l-56 -496h-173l-75 693h153l24 -553l57 473h142l53 -473l34 553h143z" />
    <glyph glyph-name="X" unicode="X" 
d="M196 693l104 -222l107 222h173l-184 -318l201 -375h-177l-122 264l-120 -264h-174l196 368l-181 325h177z" />
    <glyph glyph-name="Y" unicode="Y" 
d="M382 0h-164v259l-226 434h180l131 -298l132 298h173l-226 -433v-260z" />
    <glyph glyph-name="Z" unicode="Z" 
d="M562 131l-17 -131h-506v123l329 443h-293v127h479v-124l-322 -438h330z" />
    <glyph glyph-name="bracketleft" unicode="[" 
d="M156 823h308v-118h-159v-711h159v-117h-308v946z" />
    <glyph glyph-name="backslash" unicode="\" 
d="M152 817l419 -872l-123 -57l-419 872z" />
    <glyph glyph-name="bracketright" unicode="]" 
d="M444 -123h-308v118h159v710h-159v118h308v-946z" />
    <glyph glyph-name="asciicircum" unicode="^" 
d="M561 527h-154l-108 199l-104 -199h-156l189 317h144z" />
    <glyph glyph-name="underscore" unicode="_" 
d="M50 -62h500v-124h-500v124z" />
    <glyph glyph-name="grave" unicode="`" 
d="M163 716l61 119l218 -133l-43 -80z" />
    <glyph glyph-name="a" unicode="a" 
d="M525 110q8 -14 27 -21l-33 -104q-48 5 -80 21.5t-50 48.5q-30 -35 -76 -53.5t-98 -18.5q-82 0 -131 46.5t-49 120.5q0 86 68 133.5t191 47.5h71v19q0 82 -105 82q-27 0 -67.5 -7.5t-78.5 -20.5l-36 105q51 19 106.5 29.5t100.5 10.5q232 0 232 -188v-208q0 -29 8 -43z
M323.5 111.5q27.5 15.5 41.5 42.5v87h-39q-128 0 -128 -80q0 -31 18.5 -48t52.5 -17q27 0 54.5 15.5z" />
    <glyph glyph-name="b" unicode="b" 
d="M288.5 530q35.5 19 75.5 19q99 0 147.5 -74t48.5 -208q0 -83 -25 -147t-73 -100.5t-115 -36.5q-40 0 -74 17t-57 48l-6 -48h-140v742l158 17v-282q25 34 60.5 53zM397 265q0 93 -21 130t-62 37q-49 0 -86 -62v-224q31 -48 78 -48q91 0 91 167z" />
    <glyph glyph-name="c" unicode="c" 
d="M410 119.5q28 11.5 60 33.5l70 -100q-38 -32 -88 -51t-109 -19q-85 0 -146.5 35t-94.5 98t-33 146t34 148t96.5 102t146.5 37q59 0 106 -16.5t88 -50.5l-68 -95q-58 40 -119 40q-119 0 -119 -165q0 -83 31 -118.5t87 -35.5q30 0 58 11.5z" />
    <glyph glyph-name="d" unicode="d" 
d="M530 742v-742h-140l-8 58q-24 -34 -61 -54.5t-86 -20.5q-96 0 -145.5 76t-49.5 208q0 82 26 146t74 100t112 36q72 0 120 -50v260zM227 392.5q-24 -40.5 -24 -126.5q0 -92 21.5 -129.5t60.5 -37.5q50 0 87 61v229q-17 22 -35.5 33t-42.5 11q-43 0 -67 -40.5z" />
    <glyph glyph-name="e" unicode="e" 
d="M335 98q68 0 136 44l63 -86q-39 -34 -93 -53.5t-119 -19.5q-89 0 -151 35.5t-93.5 99t-31.5 147.5q0 80 30.5 144.5t89 102t139.5 37.5q76 0 132 -32.5t86.5 -94t30.5 -146.5q0 -33 -3 -57h-344q15 -121 128 -121zM236 411.5q-26 -31.5 -31 -96.5h195q-2 128 -95 128
q-43 0 -69 -31.5z" />
    <glyph glyph-name="f" unicode="f" 
d="M590 725l-44 -103q-51 20 -113 20q-47 0 -67.5 -17t-20.5 -56v-71h173l-18 -110h-155v-388h-157v388h-112v110h112v76q0 82 57.5 133.5t162.5 51.5q102 0 182 -34z" />
    <glyph glyph-name="g" unicode="g" 
d="M578 500q-52 -21 -153 -21q52 -23 77.5 -55t25.5 -82q0 -51 -28 -91.5t-79 -63.5t-118 -23q-33 0 -62 6q-8 -4 -12.5 -12.5t-4.5 -17.5q0 -15 11.5 -23.5t46.5 -8.5h88q60 0 106 -20t71 -55t25 -79q0 -83 -72.5 -129.5t-211.5 -46.5q-99 0 -155.5 20.5t-79 57.5t-22.5 93
h140q0 -25 9.5 -39t35.5 -21t76 -7q70 0 96.5 16t26.5 45q0 24 -19.5 38.5t-57.5 14.5h-84q-82 0 -123 29.5t-41 75.5q0 30 15.5 56.5t43.5 44.5q-50 27 -72 63.5t-22 88.5q0 59 30 103t84 67.5t123 23.5q80 -2 136 15.5t114 52.5zM236.5 421q-21.5 -24 -21.5 -65
q0 -43 22 -67t59 -24q39 0 60 23.5t21 69.5q0 87 -81 87q-38 0 -59.5 -24z" />
    <glyph glyph-name="h" unicode="h" 
d="M228 478q67 71 156 71q70 0 108 -41.5t38 -117.5v-390h-158v346q0 48 -11 67t-40 19q-24 0 -46.5 -16.5t-46.5 -48.5v-367h-158v742l158 16v-280z" />
    <glyph glyph-name="i" unicode="i" 
d="M366 783.5q26 -25.5 26 -63.5q0 -39 -26 -64t-67 -25t-67.5 25.5t-26.5 63.5t26.5 63.5t67.5 25.5t67 -25.5zM394 108h136v-108h-444v108h150v315h-145v108h303v-423z" />
    <glyph glyph-name="j" unicode="j" 
d="M436.5 783.5q26.5 -25.5 26.5 -63.5t-26.5 -63.5t-66.5 -25.5q-42 0 -68 25t-26 64q0 38 26.5 63.5t67.5 25.5q40 0 66.5 -25.5zM472 154q0 -113 -42 -187.5t-124.5 -119t-211.5 -69.5l-24 121q85 19 137.5 47t79.5 75.5t27 122.5v279h-190v108h348v-377z" />
    <glyph glyph-name="k" unicode="k" 
d="M228 0h-158v742l158 17v-759zM399 296l189 -296h-180l-174 291l175 240h165z" />
    <glyph glyph-name="l" unicode="l" 
d="M347 167q0 -59 68 -59q37 0 76 16l37 -106q-64 -35 -153 -35q-93 0 -139.5 53.5t-46.5 150.5v447h-156v108h314v-575z" />
    <glyph glyph-name="m" unicode="m" 
d="M546.5 511.5q26.5 -37.5 26.5 -118.5v-393h-135v375q0 29 -5.5 40t-20.5 11q-28 0 -55 -35v-391h-112v375q0 29 -5.5 40t-20.5 11q-28 0 -55 -35v-391h-137v531h115l11 -51q26 36 51.5 52.5t59.5 16.5q31 0 52 -15.5t30 -47.5q54 63 117 63q57 0 83.5 -37.5z" />
    <glyph glyph-name="n" unicode="n" 
d="M70 531h138l11 -61q36 40 75.5 59.5t89.5 19.5q69 0 107.5 -42t38.5 -117v-390h-158v344q0 50 -11 69t-40 19q-24 0 -46.5 -15.5t-46.5 -45.5v-371h-158v531z" />
    <glyph glyph-name="o" unicode="o" 
d="M489.5 472.5q68.5 -76.5 68.5 -205.5q0 -134 -68 -209t-190 -75t-190 74.5t-68 208.5q0 85 30.5 148.5t89 99t138.5 35.5q121 0 189.5 -76.5zM228 392.5q-23 -39.5 -23 -126.5q0 -88 23 -127.5t72 -39.5t72 40t23 128q0 86 -23 125.5t-72 39.5t-72 -39.5z" />
    <glyph glyph-name="p" unicode="p" 
d="M511 475.5q47 -73.5 47 -208.5q0 -82 -24.5 -146.5t-70.5 -101t-109 -36.5q-77 0 -126 55v-243l-158 -17v753h140l7 -59q31 39 69.5 58t77.5 19q100 0 147 -73.5zM228 370v-224q17 -24 35.5 -35.5t42.5 -11.5q44 0 66.5 39.5t22.5 126.5q0 94 -20 130.5t-60 36.5
q-50 0 -87 -62z" />
    <glyph glyph-name="q" unicode="q" 
d="M327.5 533.5q33.5 -15.5 57.5 -45.5l7 43h138v-753l-158 17v250q-52 -62 -136 -62q-99 0 -146.5 75t-47.5 209q0 82 25 146t73 100t115 36q39 0 72.5 -15.5zM228 393q-23 -40 -23 -127q0 -93 20.5 -129.5t60.5 -36.5q51 0 86 60v229q-16 22 -34.5 33t-41.5 11
q-45 0 -68 -40z" />
    <glyph glyph-name="r" unicode="r" 
d="M563 531l-29 -222h-100v98q-44 -8 -78 -48t-53 -101v-152h105v-106h-333v106h70v320h-70v105h191l28 -119q29 68 73 101.5t108 33.5q48 0 88 -16z" />
    <glyph glyph-name="s" unicode="s" 
d="M347.5 108.5q23.5 12.5 23.5 37.5q0 18 -9.5 29t-35.5 21.5t-81 25.5q-80 21 -122 58.5t-42 103.5q0 73 60.5 119t169.5 46q126 0 215 -65l-63 -93q-73 45 -147 45q-39 0 -57.5 -10t-18.5 -31q0 -14 9.5 -23.5t36 -19.5t79.5 -25q57 -16 93.5 -35t56.5 -51t20 -82
q0 -56 -34 -96t-91 -60t-126 -20q-74 0 -134 21t-102 59l79 89q72 -56 156 -56q41 0 64.5 12.5z" />
    <glyph glyph-name="t" unicode="t" 
d="M374 -17q-102 0 -153.5 52t-51.5 146v241h-111v109h111v115l158 19v-134h171l-16 -109h-155v-241q0 -39 18 -56t58 -17q50 0 93 24l52 -101q-75 -48 -174 -48z" />
    <glyph glyph-name="u" unicode="u" 
d="M228 168q0 -37 13.5 -52.5t40.5 -15.5q24 0 49 15.5t41 42.5v373h158v-531h-138l-7 62q-26 -38 -70 -58.5t-93 -20.5q-75 0 -113.5 43.5t-38.5 121.5v383h158v-363z" />
    <glyph glyph-name="v" unicode="v" 
d="M394 0h-186l-179 531h171l103 -410l108 410h160z" />
    <glyph glyph-name="w" unicode="w" 
d="M347 0l-46 357l-48 -357h-171l-79 531h145l35 -432l55 365h134l49 -365l36 432h140l-76 -531h-174z" />
    <glyph glyph-name="x" unicode="x" 
d="M22 0l182 279l-165 252h177l85 -170l82 170h168l-156 -246l183 -285h-179l-105 199l-101 -199h-171z" />
    <glyph glyph-name="y" unicode="y" 
d="M395 0q-36 -107 -107 -161.5t-190 -61.5l-18 112q76 10 112.5 34t58.5 77h-55l-168 531h167l103 -430l112 430h162z" />
    <glyph glyph-name="z" unicode="z" 
d="M524 120l-15 -120h-437v112l264 300h-242v119h425v-111l-260 -300h265z" />
    <glyph glyph-name="braceleft" unicode="{" 
d="M467 730q-50 0 -73.5 -13.5t-19.5 -49.5l15 -148q1 -9 1 -25q0 -66 -40.5 -99.5t-115.5 -44.5q79 -12 118 -44t39 -98q0 -7 -2 -27l-15 -148q-4 -35 20 -49t73 -14v-110q-128 0 -184.5 35t-56.5 117q0 10 2 32l15 144l1 13q0 46 -36.5 65.5t-102.5 19.5v128q139 0 139 85
l-1 13l-15 143q-2 24 -2 34q0 82 57 116.5t184 34.5v-110z" />
    <glyph glyph-name="bar" unicode="|" 
d="M373 -105h-147v915h147v-915z" />
    <glyph glyph-name="braceright" unicode="}" 
d="M317.5 805q56.5 -35 56.5 -117q0 -10 -2 -32l-15 -144l-1 -13q0 -85 139 -85v-128q-139 0 -139 -85l1 -13l15 -143q2 -24 2 -34q0 -82 -57 -116.5t-184 -34.5v110q50 0 73.5 13.5t19.5 49.5l-15 148q-1 9 -1 25q0 66 40.5 99.5t116.5 44.5q-79 12 -118 44t-39 98
q0 18 1 27l15 148q4 35 -20 49t-73 14v110q128 0 184.5 -35z" />
    <glyph glyph-name="asciitilde" unicode="~" 
d="M267.5 414.5q27.5 -15.5 59.5 -43.5q23 -21 39.5 -31t34.5 -10q27 0 47.5 18.5t41.5 59.5l88 -39q-35 -77 -77 -118t-104 -41q-36 0 -62.5 15t-60.5 44q-25 21 -41.5 31t-33.5 10q-27 0 -47.5 -19t-41.5 -59l-88 40q36 74 77.5 116t103.5 42q37 0 64.5 -15.5z" />
    <glyph glyph-name="uni00A0" unicode="&#xa0;" 
 />
    <glyph glyph-name="exclamdown" unicode="&#xa1;" 
d="M364 485q26 -27 26 -65q0 -36 -26 -62.5t-64 -26.5q-37 0 -63.5 26.5t-26.5 62.5q0 38 26.5 65t63.5 27q38 0 64 -27zM385 -205h-169l21 445h126z" />
    <glyph glyph-name="cent" unicode="&#xa2;" 
d="M392 543q72 -12 129 -60l-68 -95q-26 21 -50 30t-51 9q-54 0 -81 -39t-27 -126q0 -85 27.5 -119.5t79.5 -34.5q26 0 48 9t51 30l71 -101q-58 -46 -129 -58v-149h-113v152q-95 19 -147.5 91t-52.5 180q0 109 53.5 184.5t147.5 94.5v151h112v-149z" />
    <glyph glyph-name="sterling" unicode="&#xa3;" 
d="M470.5 686q50.5 -25 87.5 -77l-97 -70q-20 29 -42 41t-53 12q-85 0 -85 -94v-96h183v-83h-183v-76q0 -42 -14 -72.5t-50 -50.5h325l-18 -120h-482v114q37 12 54.5 28.5t23 40t5.5 65.5v71h-73v83h73v100q0 61 26.5 108t78 74t123.5 27q67 0 117.5 -25z" />
    <glyph glyph-name="currency" unicode="&#xa4;" 
d="M183 531q48 29 118 29q68 0 117 -29l80 80l71 -71l-78 -79q32 -53 32 -119q0 -67 -33 -120l79 -79l-71 -70l-80 78q-49 -28 -117 -28q-69 0 -119 28l-80 -80l-71 71l80 81q-31 50 -31 119q0 70 30 119l-79 80l71 71zM227.5 424q-25.5 -29 -25.5 -82q0 -54 25.5 -83
t73.5 -29t72.5 29t24.5 83q0 53 -24.5 82t-72.5 29t-73.5 -29z" />
    <glyph glyph-name="yen" unicode="&#xa5;" 
d="M415 352h99v-82h-134v-68h134v-82h-134v-120h-158v120h-132v82h132v68h-132v82h96l-178 341h168l126 -285h4l123 285h163z" />
    <glyph glyph-name="brokenbar" unicode="&#xa6;" 
d="M373 446h-147v364h147v-364zM373 -105h-147v364h147v-364z" />
    <glyph glyph-name="section" unicode="&#xa7;" 
d="M421.5 696q49.5 -15 89.5 -41l-55 -92q-61 38 -130 38q-35 0 -53.5 -12.5t-18.5 -34.5q0 -17 8.5 -28t32.5 -22t75 -27q77 -24 114.5 -59.5t37.5 -96.5q0 -41 -21.5 -73.5t-57.5 -55.5q56 -44 56 -114q0 -47 -27.5 -84t-78 -57.5t-116.5 -20.5q-112 0 -193 56l53 97
q68 -43 132 -43q37 0 58 13t21 34q0 17 -8 28t-33 23t-78 28q-76 24 -113.5 59t-37.5 96q0 40 22.5 72t59.5 55q-58 46 -58 114q0 47 27 84t76 58t114 21q53 0 102.5 -15zM216 330q0 -22 11 -35.5t39 -26t91 -34.5q27 37 27 66q0 21 -11 34t-40 26t-91 34q-26 -30 -26 -64z
" />
    <glyph glyph-name="dieresis" unicode="&#xa8;" 
d="M126 660.5q-24 23.5 -24 57.5q0 33 24 56t58 23q35 0 59 -23t24 -56q0 -34 -24 -57.5t-59 -23.5q-34 0 -58 23.5zM357.5 660.5q-24.5 23.5 -24.5 57.5q0 33 24.5 56t58.5 23t58 -23t24 -56q0 -34 -23.5 -57.5t-58.5 -23.5q-34 0 -58.5 23.5z" />
    <glyph glyph-name="copyright" unicode="&#xa9;" 
d="M456.5 715q65.5 -44 100 -120.5t34.5 -170.5t-34.5 -169.5t-100 -119t-155.5 -43.5q-92 0 -158 43.5t-100 119t-34 169.5t35 170.5t101 120.5t156 44t155.5 -44zM144.5 615q-52.5 -74 -52.5 -191q0 -116 52.5 -189.5t156.5 -73.5q103 0 155.5 73.5t52.5 189.5
q0 117 -52 191t-156 74t-156.5 -74zM374.5 610.5q27.5 -11.5 51.5 -36.5l-49 -60q-14 11 -27 16.5t-29 5.5q-31 0 -49 -26.5t-18 -84.5q0 -109 67 -109q34 0 65 27l45 -66q-54 -49 -120 -49q-80 0 -125 51.5t-45 145.5q0 91 47 144t122 53q37 0 64.5 -11.5z" />
    <glyph glyph-name="ordfeminine" unicode="&#xaa;" 
d="M437 721q45 -38 45 -115v-164q0 -21 7 -32t23 -16l-30 -88q-44 5 -70.5 18t-41.5 40q-25 -29 -59.5 -44.5t-74.5 -15.5q-68 0 -110 38.5t-42 100.5q0 69 57 108t160 39h53v12q0 34 -18.5 46.5t-64.5 12.5q-21 0 -52.5 -6t-64.5 -17l-33 90q44 15 89 23t81 8
q101 0 146 -38zM322 507q-52 0 -74 -14t-22 -45q0 -51 50 -51q22 0 42.5 12.5t35.5 34.5v63h-32zM514 0h-414v108h414v-108z" />
    <glyph glyph-name="guillemotleft" unicode="&#xab;" 
d="M222 17l-170 220v100l170 219l91 -57l-116 -212l116 -213zM457 17l-171 220v100l171 219l91 -57l-115 -212l115 -213z" />
    <glyph glyph-name="logicalnot" unicode="&#xac;" 
d="M517 104h-130v154h-304v121h434v-275z" />
    <glyph glyph-name="uni00AD" unicode="&#xad;" 
d="M135 374h330v-122h-330v122z" />
    <glyph glyph-name="registered" unicode="&#xae;" 
d="M440.5 723q62.5 -36 98 -99t35.5 -140q0 -76 -35.5 -138t-98 -98t-139.5 -36q-78 0 -141 36t-99 98t-36 138q0 77 36 140t99 99t141 36q77 0 139.5 -36zM199 664.5q-45 -27.5 -71 -75t-26 -105.5t26 -104.5t71 -73.5t102 -27q56 0 101 27t70 73.5t25 104.5t-25 105.5
t-70 75t-101 27.5q-57 0 -102 -27.5zM414 547q0 -28 -15.5 -48t-42.5 -30l77 -118h-83l-62 103h-23v-103h-72v284h87q134 0 134 -88zM265 581v-69h23q52 0 52 37q0 32 -53 32h-22z" />
    <glyph glyph-name="macron" unicode="&#xaf;" 
d="M147 658v109h306v-109h-306z" />
    <glyph glyph-name="degree" unicode="&#xb0;" 
d="M335.5 738.5q41.5 -20.5 67 -59t25.5 -89.5t-25.5 -90t-67 -60t-86.5 -21q-44 0 -85.5 21t-67 60t-25.5 90t25.5 89.5t66.5 59t86 20.5t86.5 -20.5zM198.5 647q-18.5 -21 -18.5 -57q0 -35 19 -56.5t50 -21.5q32 0 51 21.5t19 56.5q0 36 -19 57t-51 21t-50.5 -21z" />
    <glyph glyph-name="plusminus" unicode="&#xb1;" 
d="M366 402h151v-120h-151v-107h-132v107h-151v120h151v156h132v-156zM517 0h-434v120h434v-120z" />
    <glyph glyph-name="uni00B2" unicode="&#xb2;" 
d="M412.5 464q-30.5 -31 -112.5 -67h155l-13 -82h-285v73q72 40 107.5 63.5t47.5 39t12 33.5q0 16 -11 26t-30 10t-34.5 -8t-32.5 -28l-71 52q60 66 156 66q67 0 104.5 -30t37.5 -74q0 -43 -30.5 -74z" />
    <glyph glyph-name="uni00B3" unicode="&#xb3;" 
d="M409 617.5q37 -24.5 37 -64.5q0 -29 -17 -45.5t-52 -24.5q44 -7 64 -24t20 -51q0 -46 -44.5 -72.5t-120.5 -26.5q-48 0 -90.5 13.5t-70.5 41.5l65 55q23 -17 44 -24t48 -7q25 0 38 8.5t13 23.5q0 28 -50 28h-52l12 65h40q18 0 28 6.5t10 16.5q0 27 -39 27q-25 0 -45 -6.5
t-44 -22.5l-57 57q64 51 160 51q66 0 103 -24.5z" />
    <glyph glyph-name="acute" unicode="&#xb4;" 
d="M438 716l-237 -94l-43 81l218 132z" />
    <glyph glyph-name="uni00B5" unicode="&#xb5;" 
d="M524 188q0 -89 12 -188l-142 -14q-9 33 -13 77q-23 -37 -52 -57.5t-63 -20.5q-28 0 -46.5 10t-39.5 38q19 -40 27.5 -71.5t8.5 -76.5v-90l-149 -16v752h157v-302q0 -49 3 -74.5t15 -39t37 -13.5t47.5 15t39.5 42v372h158v-343z" />
    <glyph glyph-name="paragraph" unicode="&#xb6;" 
d="M581 -210l-132 -11v807h-83v-796l-132 -11v486q-106 9 -160.5 64.5t-54.5 148.5q0 97 65 156t187 59h310v-903z" />
    <glyph glyph-name="periodcentered" unicode="&#xb7;" 
d="M221.5 420.5q32.5 32.5 78.5 32.5t78.5 -32.5t32.5 -78.5t-32.5 -78.5t-78.5 -32.5t-78.5 32.5t-32.5 78.5t32.5 78.5z" />
    <glyph glyph-name="cedilla" unicode="&#xb8;" 
d="M298 -119q-22 7 -70 7l14 128h88v-64q51 -6 77 -32t26 -67q0 -51 -41 -83t-108 -32q-34 0 -64.5 8.5t-52.5 21.5l36 73q34 -17 64 -17q53 0 53 31q0 19 -22 26z" />
    <glyph glyph-name="uni00B9" unicode="&#xb9;" 
d="M310 526l-79 -41l-52 72l148 79h95v-321h-112v211z" />
    <glyph glyph-name="ordmasculine" unicode="&#xba;" 
d="M418 729.5q50 -29.5 77 -81t27 -116.5q0 -67 -27 -119t-77 -80.5t-118 -28.5q-103 0 -162.5 62.5t-59.5 165.5q0 65 27 116.5t77.5 81t117.5 29.5q68 0 118 -29.5zM217 532q0 -68 21 -98.5t62 -30.5t62 30.5t21 98.5q0 129 -83 129t-83 -129zM507 0h-414v108h414v-108z
" />
    <glyph glyph-name="guillemotright" unicode="&#xbb;" 
d="M52 499l91 57l170 -219v-100l-170 -220l-91 57l115 213zM286 499l91 57l171 -219v-100l-171 -220l-91 57l116 213z" />
    <glyph glyph-name="onequarter" unicode="&#xbc;" 
d="M114 582l-79 -41l-52 72l148 79h95v-321h-112v211zM14 251l535 256l41 -76l-534 -256zM574 0h-104v56h-181v66l121 208l95 -32l-99 -167h66l15 79h87v-79h44v-75h-44v-56z" />
    <glyph glyph-name="onehalf" unicode="&#xbd;" 
d="M111 582l-79 -41l-52 72l148 79h95v-321h-112v211zM10 251l535 256l41 -76l-534 -256zM577.5 149q-30.5 -31 -112.5 -67h155l-13 -82h-285v73q72 40 107.5 63.5t47.5 39t12 33.5q0 16 -11 26t-30 10t-34.5 -8t-32.5 -28l-71 52q60 66 156 66q67 0 104.5 -30t37.5 -74
q0 -43 -30.5 -74z" />
    <glyph glyph-name="threequarters" unicode="&#xbe;" 
d="M260 673.5q37 -24.5 37 -64.5q0 -29 -17 -45.5t-52 -24.5q44 -7 64 -24t20 -51q0 -46 -44.5 -72.5t-120.5 -26.5q-48 0 -90.5 13.5t-70.5 41.5l65 55q22 -17 43.5 -24t48.5 -7q25 0 38 8.5t13 23.5q0 28 -50 28h-52l12 65h40q18 0 28 6.5t10 16.5q0 27 -39 27
q-24 0 -44 -6.5t-45 -22.5l-57 57q64 51 160 51q66 0 103 -24.5zM19 251l535 256l41 -76l-534 -256zM571 0h-104v56h-181v66l121 208l95 -32l-99 -167h66l15 79h87v-79h44v-75h-44v-56z" />
    <glyph glyph-name="questiondown" unicode="&#xbf;" 
d="M381 485q27 -27 27 -65q0 -36 -27 -62.5t-64 -26.5t-63.5 26.5t-26.5 62.5q0 38 26.5 65t63.5 27t64 -27zM390 207q0 -46 -15 -78.5t-36 -51.5t-53 -41q-32 -23 -46 -38t-14 -38q0 -27 22 -42t58 -15q70 0 125 60l100 -77q-92 -108 -241 -108q-73 0 -124.5 23t-78 61
t-26.5 84q0 40 14 69t34.5 47t54.5 42q42 29 62.5 53t20.5 62v21h143v-33z" />
    <glyph glyph-name="Agrave" unicode="&#xc0;" 
d="M197 150l-36 -150h-172l212 693h199l212 -693h-176l-36 150h-203zM373 268l-75 307l-75 -307h150zM437 831l-37 -80l-238 84l60 118z" />
    <glyph glyph-name="Aacute" unicode="&#xc1;" 
d="M197 150l-36 -150h-172l212 693h199l212 -693h-176l-36 150h-203zM373 268l-75 307l-75 -307h150zM437 835l-237 -84l-38 80l216 122z" />
    <glyph glyph-name="Acircumflex" unicode="&#xc2;" 
d="M197 150l-36 -150h-172l212 693h199l212 -693h-176l-36 150h-203zM373 268l-75 307l-75 -307h150zM489 813l-56 -65l-133 85l-133 -85l-57 65l142 130h96z" />
    <glyph glyph-name="Atilde" unicode="&#xc3;" 
d="M197 150l-36 -150h-172l212 693h199l212 -693h-176l-36 150h-203zM373 268l-75 307l-75 -307h150zM318 767q-16 7 -35 20q-25 18 -41 18q-18 0 -29 -10t-24 -34l-79 38q21 53 53.5 85.5t75.5 32.5q23 0 39.5 -7t35.5 -20q13 -9 22 -13.5t19 -4.5q16 0 27 10t25 33l79 -38
q-21 -53 -54.5 -85t-75.5 -32q-22 0 -38 7z" />
    <glyph glyph-name="Adieresis" unicode="&#xc4;" 
d="M197 150l-36 -150h-172l212 693h199l212 -693h-176l-36 150h-203zM373 268l-75 307l-75 -307h150zM126 785q-24 23 -24 57t24 57t58 23q35 0 58.5 -23t23.5 -57t-23.5 -57t-58.5 -23q-34 0 -58 23zM357.5 785.5q-24.5 23.5 -24.5 56.5t24.5 56.5t58.5 23.5q35 0 58.5 -23
t23.5 -57t-23.5 -57t-58.5 -23q-34 0 -58.5 23.5z" />
    <glyph glyph-name="Aring" unicode="&#xc5;" 
d="M197 150l-36 -150h-172l212 693h199l212 -693h-176l-36 150h-203zM373 268l-75 307l-75 -307h150zM400 952q38 -38 38 -93t-38.5 -94t-100.5 -39t-100 39t-38 94t38 93t100 38q63 0 101 -38zM267 895.5q-12 -12.5 -12 -36.5q0 -25 12 -38t32 -13q21 0 33 13t12 38
q0 24 -12 36.5t-33 12.5q-20 0 -32 -12.5z" />
    <glyph glyph-name="AE" unicode="&#xc6;" 
d="M173 153l-28 -153h-157l175 693h402l-17 -111h-182l33 -176h157v-110h-137l36 -185h148v-111h-265l-25 153h-140zM296 265l-51 318l-54 -318h105z" />
    <glyph glyph-name="Ccedilla" unicode="&#xc7;" 
d="M459 -80q26 -26 26 -67q0 -51 -41 -83t-108 -32q-34 0 -64.5 8.5t-52.5 21.5l36 73q34 -17 64 -17q53 0 53 31q0 19 -22 26t-70 7l11 101q-118 20 -187.5 113t-69.5 246q0 113 42 195t116 125t166 43q72 0 124 -19t98 -57l-80 -97q-63 51 -138 51q-71 0 -114.5 -60
t-43.5 -181t43 -179.5t118 -58.5q46 0 79 16t71 46l74 -95q-83 -85 -207 -93v-32q51 -6 77 -32z" />
    <glyph glyph-name="Egrave" unicode="&#xc8;" 
d="M257 409h240v-114h-240v-177h289v-118h-453v693h453l-17 -117h-272v-167zM457 831l-37 -80l-238 84l60 118z" />
    <glyph glyph-name="Eacute" unicode="&#xc9;" 
d="M257 409h240v-114h-240v-177h289v-118h-453v693h453l-17 -117h-272v-167zM457 835l-237 -84l-38 80l216 122z" />
    <glyph glyph-name="Ecircumflex" unicode="&#xca;" 
d="M257 409h240v-114h-240v-177h289v-118h-453v693h453l-17 -117h-272v-167zM509 813l-56 -65l-133 85l-133 -85l-57 65l142 130h96z" />
    <glyph glyph-name="Edieresis" unicode="&#xcb;" 
d="M257 409h240v-114h-240v-177h289v-118h-453v693h453l-17 -117h-272v-167zM146 785q-24 23 -24 57t24 57t58 23q35 0 58.5 -23t23.5 -57t-23.5 -57t-58.5 -23q-34 0 -58 23zM377.5 785.5q-24.5 23.5 -24.5 56.5t24.5 56.5t58.5 23.5q35 0 58.5 -23t23.5 -57t-23.5 -57
t-58.5 -23q-34 0 -58.5 23.5z" />
    <glyph glyph-name="Igrave" unicode="&#xcc;" 
d="M525 573h-143v-452h143v-121h-450v121h143v452h-143v120h450v-120zM437 831l-37 -80l-238 84l60 118z" />
    <glyph glyph-name="Iacute" unicode="&#xcd;" 
d="M525 573h-143v-452h143v-121h-450v121h143v452h-143v120h450v-120zM437 835l-237 -84l-38 80l216 122z" />
    <glyph glyph-name="Icircumflex" unicode="&#xce;" 
d="M525 573h-143v-452h143v-121h-450v121h143v452h-143v120h450v-120zM489 813l-56 -65l-133 85l-133 -85l-57 65l142 130h96z" />
    <glyph glyph-name="Idieresis" unicode="&#xcf;" 
d="M525 573h-143v-452h143v-121h-450v121h143v452h-143v120h450v-120zM126 785q-24 23 -24 57t24 57t58 23q35 0 58.5 -23t23.5 -57t-23.5 -57t-58.5 -23q-34 0 -58 23zM357.5 785.5q-24.5 23.5 -24.5 56.5t24.5 56.5t58.5 23.5q35 0 58.5 -23t23.5 -57t-23.5 -57t-58.5 -23
q-34 0 -58.5 23.5z" />
    <glyph glyph-name="Eth" unicode="&#xd0;" 
d="M492 619.5q95 -73.5 95 -269.5q0 -350 -335 -350h-187v303h-56v100h56v290h175q157 0 252 -73.5zM377.5 170q39.5 51 39.5 180q0 89 -19.5 138t-52.5 67.5t-81 18.5h-35v-171h120v-100h-120v-184h35q74 0 113.5 51z" />
    <glyph glyph-name="Ntilde" unicode="&#xd1;" 
d="M167 557q10 -76 17 -146.5t7 -149.5v-261h-139v693h205l176 -555q-24 154 -24 290v265h139v-693h-199zM328 767q-16 7 -35 20q-25 18 -41 18q-18 0 -29 -10t-24 -34l-79 38q21 53 53.5 85.5t75.5 32.5q23 0 39.5 -7t35.5 -20q13 -9 22 -13.5t19 -4.5q16 0 27 10t25 33
l79 -38q-21 -53 -54.5 -85t-75.5 -32q-22 0 -38 7z" />
    <glyph glyph-name="Ograve" unicode="&#xd2;" 
d="M505.5 80.5q-71.5 -97.5 -205.5 -97.5q-135 0 -206 96.5t-71 267.5q0 169 71.5 266.5t205.5 97.5q135 0 206 -96.5t71 -267.5q0 -169 -71.5 -266.5zM383.5 533q-25.5 58 -83.5 58t-83.5 -58t-25.5 -186t25.5 -186t83.5 -58q59 0 84 58t25 186t-25.5 186zM437 831l-37 -80
l-238 84l60 118z" />
    <glyph glyph-name="Oacute" unicode="&#xd3;" 
d="M505.5 80.5q-71.5 -97.5 -205.5 -97.5q-135 0 -206 96.5t-71 267.5q0 169 71.5 266.5t205.5 97.5q135 0 206 -96.5t71 -267.5q0 -169 -71.5 -266.5zM383.5 533q-25.5 58 -83.5 58t-83.5 -58t-25.5 -186t25.5 -186t83.5 -58q59 0 84 58t25 186t-25.5 186zM437 835
l-237 -84l-38 80l216 122z" />
    <glyph glyph-name="Ocircumflex" unicode="&#xd4;" 
d="M505.5 80.5q-71.5 -97.5 -205.5 -97.5q-135 0 -206 96.5t-71 267.5q0 169 71.5 266.5t205.5 97.5q135 0 206 -96.5t71 -267.5q0 -169 -71.5 -266.5zM383.5 533q-25.5 58 -83.5 58t-83.5 -58t-25.5 -186t25.5 -186t83.5 -58q59 0 84 58t25 186t-25.5 186zM489 813l-56 -65
l-133 85l-133 -85l-57 65l142 130h96z" />
    <glyph glyph-name="Otilde" unicode="&#xd5;" 
d="M505.5 80.5q-71.5 -97.5 -205.5 -97.5q-135 0 -206 96.5t-71 267.5q0 169 71.5 266.5t205.5 97.5q135 0 206 -96.5t71 -267.5q0 -169 -71.5 -266.5zM383.5 533q-25.5 58 -83.5 58t-83.5 -58t-25.5 -186t25.5 -186t83.5 -58q59 0 84 58t25 186t-25.5 186zM318 767
q-16 7 -35 20q-25 18 -41 18q-18 0 -29 -10t-24 -34l-79 38q21 53 53.5 85.5t75.5 32.5q23 0 39.5 -7t35.5 -20q13 -9 22 -13.5t19 -4.5q16 0 27 10t25 33l79 -38q-21 -53 -54.5 -85t-75.5 -32q-22 0 -38 7z" />
    <glyph glyph-name="Odieresis" unicode="&#xd6;" 
d="M505.5 80.5q-71.5 -97.5 -205.5 -97.5q-135 0 -206 96.5t-71 267.5q0 169 71.5 266.5t205.5 97.5q135 0 206 -96.5t71 -267.5q0 -169 -71.5 -266.5zM383.5 533q-25.5 58 -83.5 58t-83.5 -58t-25.5 -186t25.5 -186t83.5 -58q59 0 84 58t25 186t-25.5 186zM126 785
q-24 23 -24 57t24 57t58 23q35 0 58.5 -23t23.5 -57t-23.5 -57t-58.5 -23q-34 0 -58 23zM357.5 785.5q-24.5 23.5 -24.5 56.5t24.5 56.5t58.5 23.5q35 0 58.5 -23t23.5 -57t-23.5 -57t-58.5 -23q-34 0 -58.5 23.5z" />
    <glyph glyph-name="multiply" unicode="&#xd7;" 
d="M502 422l-117 -115l117 -115l-87 -87l-115 117l-115 -117l-87 87l117 115l-117 115l87 87l115 -117l115 117z" />
    <glyph glyph-name="Oslash" unicode="&#xd8;" 
d="M546 535.5q31 -80.5 31 -188.5q0 -169 -71.5 -266.5t-205.5 -97.5q-25 0 -52 5l-28 -97l-111 33l34 110q-58 45 -89 125.5t-31 187.5q0 169 71.5 266.5t205.5 97.5q24 0 51 -5l29 97l111 -33l-34 -110q58 -44 89 -124.5zM212 535.5q-27 -58.5 -27 -188.5q0 -123 23 -181
l124 424q-20 4 -32 4q-61 0 -88 -58.5zM388.5 158.5q26.5 58.5 26.5 188.5q0 124 -22 179l-123 -422q12 -4 30 -4q62 0 88.5 58.5z" />
    <glyph glyph-name="Ugrave" unicode="&#xd9;" 
d="M558 232q0 -72 -29 -128.5t-87 -88.5t-142 -32q-126 0 -192 67t-66 182v461h165v-400q0 -67 7 -107t27.5 -60.5t58.5 -20.5t58.5 20.5t27.5 60.5t7 107v400h165v-461zM437 831l-37 -80l-238 84l60 118z" />
    <glyph glyph-name="Uacute" unicode="&#xda;" 
d="M558 232q0 -72 -29 -128.5t-87 -88.5t-142 -32q-126 0 -192 67t-66 182v461h165v-400q0 -67 7 -107t27.5 -60.5t58.5 -20.5t58.5 20.5t27.5 60.5t7 107v400h165v-461zM437 835l-237 -84l-38 80l216 122z" />
    <glyph glyph-name="Ucircumflex" unicode="&#xdb;" 
d="M558 232q0 -72 -29 -128.5t-87 -88.5t-142 -32q-126 0 -192 67t-66 182v461h165v-400q0 -67 7 -107t27.5 -60.5t58.5 -20.5t58.5 20.5t27.5 60.5t7 107v400h165v-461zM489 813l-56 -65l-133 85l-133 -85l-57 65l142 130h96z" />
    <glyph glyph-name="Udieresis" unicode="&#xdc;" 
d="M558 232q0 -72 -29 -128.5t-87 -88.5t-142 -32q-126 0 -192 67t-66 182v461h165v-400q0 -67 7 -107t27.5 -60.5t58.5 -20.5t58.5 20.5t27.5 60.5t7 107v400h165v-461zM126 785q-24 23 -24 57t24 57t58 23q35 0 58.5 -23t23.5 -57t-23.5 -57t-58.5 -23q-34 0 -58 23z
M357.5 785.5q-24.5 23.5 -24.5 56.5t24.5 56.5t58.5 23.5q35 0 58.5 -23t23.5 -57t-23.5 -57t-58.5 -23q-34 0 -58.5 23.5z" />
    <glyph glyph-name="Yacute" unicode="&#xdd;" 
d="M382 0h-164v259l-226 434h180l131 -298l132 298h173l-226 -433v-260zM437 835l-237 -84l-38 80l216 122z" />
    <glyph glyph-name="Thorn" unicode="&#xde;" 
d="M224 581h55q143 0 220 -57t77 -170q0 -120 -71.5 -179t-203.5 -59h-77v-116h-165v693h165v-112zM224 464v-229h66q57 0 86.5 27.5t29.5 90.5q0 57 -30.5 84t-91.5 27h-60z" />
    <glyph glyph-name="germandbls" unicode="&#xdf;" 
d="M399.5 738.5q45.5 -20.5 69.5 -56t24 -79.5q0 -33 -13 -55t-39 -49q-19 -20 -28.5 -34.5t-9.5 -32.5q0 -20 15 -36t46 -39q35 -26 57.5 -48t39 -57t16.5 -84q0 -86 -56 -135.5t-145 -49.5q-70 0 -127 31l50 106q32 -15 57 -15q29 0 44 16t15 46q0 35 -17.5 57.5
t-52.5 48.5q-27 22 -42.5 37t-26.5 38.5t-11 55.5t10.5 55.5t30.5 52.5q18 27 26 44.5t8 39.5q0 25 -14 38.5t-39 13.5q-36 0 -52.5 -27t-16.5 -83v-538h-158v531q0 109 59 168.5t172 59.5q63 0 108.5 -20.5z" />
    <glyph glyph-name="agrave" unicode="&#xe0;" 
d="M525 110q8 -14 27 -21l-33 -104q-48 5 -80 21.5t-50 48.5q-30 -35 -76 -53.5t-98 -18.5q-82 0 -131 46.5t-49 120.5q0 86 68 133.5t191 47.5h71v19q0 82 -105 82q-27 0 -67.5 -7.5t-78.5 -20.5l-36 105q51 19 106.5 29.5t100.5 10.5q232 0 232 -188v-208q0 -29 8 -43z
M323.5 111.5q27.5 15.5 41.5 42.5v87h-39q-128 0 -128 -80q0 -31 18.5 -48t52.5 -17q27 0 54.5 15.5zM156 716l61 119l218 -133l-43 -80z" />
    <glyph glyph-name="aacute" unicode="&#xe1;" 
d="M525 110q8 -14 27 -21l-33 -104q-48 5 -80 21.5t-50 48.5q-30 -35 -76 -53.5t-98 -18.5q-82 0 -131 46.5t-49 120.5q0 86 68 133.5t191 47.5h71v19q0 82 -105 82q-27 0 -67.5 -7.5t-78.5 -20.5l-36 105q51 19 106.5 29.5t100.5 10.5q232 0 232 -188v-208q0 -29 8 -43z
M323.5 111.5q27.5 15.5 41.5 42.5v87h-39q-128 0 -128 -80q0 -31 18.5 -48t52.5 -17q27 0 54.5 15.5zM431 716l-237 -94l-43 81l218 132z" />
    <glyph glyph-name="acircumflex" unicode="&#xe2;" 
d="M525 110q8 -14 27 -21l-33 -104q-48 5 -80 21.5t-50 48.5q-30 -35 -76 -53.5t-98 -18.5q-82 0 -131 46.5t-49 120.5q0 86 68 133.5t191 47.5h71v19q0 82 -105 82q-27 0 -67.5 -7.5t-78.5 -20.5l-36 105q51 19 106.5 29.5t100.5 10.5q232 0 232 -188v-208q0 -29 8 -43z
M323.5 111.5q27.5 15.5 41.5 42.5v87h-39q-128 0 -128 -80q0 -31 18.5 -48t52.5 -17q27 0 54.5 15.5zM103 676l142 139h96l141 -139l-56 -65l-133 94l-133 -94z" />
    <glyph glyph-name="atilde" unicode="&#xe3;" 
d="M525 110q8 -14 27 -21l-33 -104q-48 5 -80 21.5t-50 48.5q-30 -35 -76 -53.5t-98 -18.5q-82 0 -131 46.5t-49 120.5q0 86 68 133.5t191 47.5h71v19q0 82 -105 82q-27 0 -67.5 -7.5t-78.5 -20.5l-36 105q51 19 106.5 29.5t100.5 10.5q232 0 232 -188v-208q0 -29 8 -43z
M323.5 111.5q27.5 15.5 41.5 42.5v87h-39q-128 0 -128 -80q0 -31 18.5 -48t52.5 -17q27 0 54.5 15.5zM311 642q-16 7 -35 20q-25 18 -41 18q-18 0 -29 -10t-24 -34l-79 38q21 53 53.5 85.5t75.5 32.5q23 0 39.5 -7t35.5 -20q13 -9 22 -13.5t19 -4.5q16 0 27 10t25 33l79 -38
q-21 -53 -54 -85t-76 -32q-22 0 -38 7z" />
    <glyph glyph-name="adieresis" unicode="&#xe4;" 
d="M525 110q8 -14 27 -21l-33 -104q-48 5 -80 21.5t-50 48.5q-30 -35 -76 -53.5t-98 -18.5q-82 0 -131 46.5t-49 120.5q0 86 68 133.5t191 47.5h71v19q0 82 -105 82q-27 0 -67.5 -7.5t-78.5 -20.5l-36 105q51 19 106.5 29.5t100.5 10.5q232 0 232 -188v-208q0 -29 8 -43z
M323.5 111.5q27.5 15.5 41.5 42.5v87h-39q-128 0 -128 -80q0 -31 18.5 -48t52.5 -17q27 0 54.5 15.5zM119 660.5q-24 23.5 -24 57.5q0 33 24 56t58 23q35 0 59 -23t24 -56q0 -34 -24 -57.5t-59 -23.5q-34 0 -58 23.5zM350.5 660.5q-24.5 23.5 -24.5 57.5q0 33 24.5 56
t58.5 23t58 -23t24 -56q0 -34 -23.5 -57.5t-58.5 -23.5q-34 0 -58.5 23.5z" />
    <glyph glyph-name="aring" unicode="&#xe5;" 
d="M525 110q8 -14 27 -21l-33 -104q-48 5 -80 21.5t-50 48.5q-30 -35 -76 -53.5t-98 -18.5q-82 0 -131 46.5t-49 120.5q0 86 68 133.5t191 47.5h71v19q0 82 -105 82q-27 0 -67.5 -7.5t-78.5 -20.5l-36 105q51 19 106.5 29.5t100.5 10.5q232 0 232 -188v-208q0 -29 8 -43z
M323.5 111.5q27.5 15.5 41.5 42.5v87h-39q-128 0 -128 -80q0 -31 18.5 -48t52.5 -17q27 0 54.5 15.5zM393 827q38 -38 38 -93t-38.5 -94t-100.5 -39q-41 0 -72.5 18t-48.5 48.5t-17 66.5q0 54 38 92.5t100 38.5q63 0 101 -38zM260 770.5q-12 -12.5 -12 -36.5q0 -25 12 -38
t32 -13q21 0 33 13t12 38q0 24 -12 36.5t-33 12.5q-20 0 -32 -12.5z" />
    <glyph glyph-name="ae" unicode="&#xe6;" 
d="M559.5 480.5q40.5 -68.5 40.5 -204.5q0 -26 -3 -50h-241q13 -139 97 -139q23 0 43.5 8t43.5 24l60 -79q-67 -57 -156 -57q-106 0 -160 84q-30 -45 -61 -64.5t-80 -19.5q-69 0 -109 47t-40 122q0 86 50 130.5t152 44.5h41v23q0 101 -89 101q-24 0 -43.5 -5.5t-49.5 -19.5
l-36 87q42 19 75 27.5t70 8.5q52 0 85 -18.5t53 -52.5q19 33 50.5 52t75.5 19q91 0 131.5 -68.5zM375.5 419q-15.5 -31 -19.5 -107h125q-1 74 -13 106t-46 32q-31 0 -46.5 -31zM216 242q-48 0 -69 -21t-21 -62q0 -35 12 -54t34 -19q20 0 37 15t33 47q-5 50 -5 94h-21z" />
    <glyph glyph-name="ccedilla" unicode="&#xe7;" 
d="M446 -80q26 -26 26 -67q0 -51 -41 -83t-108 -32q-34 0 -64.5 8.5t-52.5 21.5l36 73q34 -17 64 -17q53 0 53 31q0 19 -22 26t-70 7l11 101q-98 19 -153.5 91.5t-55.5 181.5q0 83 34 148t96.5 102t146.5 37q59 0 106 -16.5t88 -50.5l-68 -95q-58 40 -119 40
q-119 0 -119 -165q0 -83 31 -118.5t87 -35.5q30 0 58 11.5t60 33.5l70 -100q-71 -61 -171 -69v-32q51 -6 77 -32z" />
    <glyph glyph-name="egrave" unicode="&#xe8;" 
d="M335 98q68 0 136 44l63 -86q-39 -34 -93 -53.5t-119 -19.5q-89 0 -151 35.5t-93.5 99t-31.5 147.5q0 80 30.5 144.5t89 102t139.5 37.5q76 0 132 -32.5t86.5 -94t30.5 -146.5q0 -33 -3 -57h-344q15 -121 128 -121zM236 411.5q-26 -31.5 -31 -96.5h195q-2 128 -95 128
q-43 0 -69 -31.5zM170 716l61 119l218 -133l-43 -80z" />
    <glyph glyph-name="eacute" unicode="&#xe9;" 
d="M335 98q68 0 136 44l63 -86q-39 -34 -93 -53.5t-119 -19.5q-89 0 -151 35.5t-93.5 99t-31.5 147.5q0 80 30.5 144.5t89 102t139.5 37.5q76 0 132 -32.5t86.5 -94t30.5 -146.5q0 -33 -3 -57h-344q15 -121 128 -121zM236 411.5q-26 -31.5 -31 -96.5h195q-2 128 -95 128
q-43 0 -69 -31.5zM445 716l-237 -94l-43 81l218 132z" />
    <glyph glyph-name="ecircumflex" unicode="&#xea;" 
d="M335 98q68 0 136 44l63 -86q-39 -34 -93 -53.5t-119 -19.5q-89 0 -151 35.5t-93.5 99t-31.5 147.5q0 80 30.5 144.5t89 102t139.5 37.5q76 0 132 -32.5t86.5 -94t30.5 -146.5q0 -33 -3 -57h-344q15 -121 128 -121zM236 411.5q-26 -31.5 -31 -96.5h195q-2 128 -95 128
q-43 0 -69 -31.5zM117 676l142 139h96l141 -139l-56 -65l-133 94l-133 -94z" />
    <glyph glyph-name="edieresis" unicode="&#xeb;" 
d="M335 98q68 0 136 44l63 -86q-39 -34 -93 -53.5t-119 -19.5q-89 0 -151 35.5t-93.5 99t-31.5 147.5q0 80 30.5 144.5t89 102t139.5 37.5q76 0 132 -32.5t86.5 -94t30.5 -146.5q0 -33 -3 -57h-344q15 -121 128 -121zM236 411.5q-26 -31.5 -31 -96.5h195q-2 128 -95 128
q-43 0 -69 -31.5zM133 660.5q-24 23.5 -24 57.5q0 33 24 56t58 23q35 0 59 -23t24 -56q0 -34 -24 -57.5t-59 -23.5q-34 0 -58 23.5zM364.5 660.5q-24.5 23.5 -24.5 57.5q0 33 24.5 56t58.5 23t58 -23t24 -56q0 -34 -23.5 -57.5t-58.5 -23.5q-34 0 -58.5 23.5z" />
    <glyph glyph-name="igrave" unicode="&#xec;" 
d="M394 108h136v-108h-444v108h150v315h-145v108h303v-423zM162 716l61 119l218 -133l-43 -80z" />
    <glyph glyph-name="iacute" unicode="&#xed;" 
d="M394 108h136v-108h-444v108h150v315h-145v108h303v-423zM437 716l-237 -94l-43 81l218 132z" />
    <glyph glyph-name="icircumflex" unicode="&#xee;" 
d="M394 108h136v-108h-444v108h150v315h-145v108h303v-423zM109 676l142 139h96l141 -139l-56 -65l-133 94l-133 -94z" />
    <glyph glyph-name="idieresis" unicode="&#xef;" 
d="M394 108h136v-108h-444v108h150v315h-145v108h303v-423zM125 660.5q-24 23.5 -24 57.5q0 33 24 56t58 23q35 0 59 -23t24 -56q0 -34 -24 -57.5t-59 -23.5q-34 0 -58 23.5zM356.5 660.5q-24.5 23.5 -24.5 57.5q0 33 24.5 56t58.5 23t58 -23t24 -56q0 -34 -23.5 -57.5
t-58.5 -23.5q-34 0 -58.5 23.5z" />
    <glyph glyph-name="eth" unicode="&#xf0;" 
d="M184 631q-40 15 -91 24l31 103q85 -12 146 -37l73 76l81 -70l-53 -54q95 -61 140 -160t45 -236q0 -83 -30.5 -150t-90 -105.5t-141.5 -38.5q-72 0 -130 30t-91 87t-33 134q0 72 29.5 128.5t78.5 88t107 31.5q43 0 74 -12.5t59 -38.5q-33 98 -106 151l-56 -57l-100 46z
M395 328q-38 43 -99 43q-45 0 -70 -34t-25 -101q0 -71 25 -104.5t71 -33.5q51 0 75 38.5t24 119.5q0 49 -1 72z" />
    <glyph glyph-name="ntilde" unicode="&#xf1;" 
d="M70 531h138l11 -61q36 40 75.5 59.5t89.5 19.5q69 0 107.5 -42t38.5 -117v-390h-158v344q0 50 -11 69t-40 19q-24 0 -46.5 -15.5t-46.5 -45.5v-371h-158v531zM319 642q-16 7 -35 20q-25 18 -41 18q-18 0 -29 -10t-24 -34l-79 38q21 53 53.5 85.5t75.5 32.5q23 0 39.5 -7
t35.5 -20q13 -9 22 -13.5t19 -4.5q16 0 27 10t25 33l79 -38q-21 -53 -54 -85t-76 -32q-22 0 -38 7z" />
    <glyph glyph-name="ograve" unicode="&#xf2;" 
d="M489.5 472.5q68.5 -76.5 68.5 -205.5q0 -134 -68 -209t-190 -75t-190 74.5t-68 208.5q0 85 30.5 148.5t89 99t138.5 35.5q121 0 189.5 -76.5zM228 392.5q-23 -39.5 -23 -126.5q0 -88 23 -127.5t72 -39.5t72 40t23 128q0 86 -23 125.5t-72 39.5t-72 -39.5zM163 716l61 119
l218 -133l-43 -80z" />
    <glyph glyph-name="oacute" unicode="&#xf3;" 
d="M489.5 472.5q68.5 -76.5 68.5 -205.5q0 -134 -68 -209t-190 -75t-190 74.5t-68 208.5q0 85 30.5 148.5t89 99t138.5 35.5q121 0 189.5 -76.5zM228 392.5q-23 -39.5 -23 -126.5q0 -88 23 -127.5t72 -39.5t72 40t23 128q0 86 -23 125.5t-72 39.5t-72 -39.5zM438 716
l-237 -94l-43 81l218 132z" />
    <glyph glyph-name="ocircumflex" unicode="&#xf4;" 
d="M489.5 472.5q68.5 -76.5 68.5 -205.5q0 -134 -68 -209t-190 -75t-190 74.5t-68 208.5q0 85 30.5 148.5t89 99t138.5 35.5q121 0 189.5 -76.5zM228 392.5q-23 -39.5 -23 -126.5q0 -88 23 -127.5t72 -39.5t72 40t23 128q0 86 -23 125.5t-72 39.5t-72 -39.5zM110 676
l142 139h96l141 -139l-56 -65l-133 94l-133 -94z" />
    <glyph glyph-name="otilde" unicode="&#xf5;" 
d="M489.5 472.5q68.5 -76.5 68.5 -205.5q0 -134 -68 -209t-190 -75t-190 74.5t-68 208.5q0 85 30.5 148.5t89 99t138.5 35.5q121 0 189.5 -76.5zM228 392.5q-23 -39.5 -23 -126.5q0 -88 23 -127.5t72 -39.5t72 40t23 128q0 86 -23 125.5t-72 39.5t-72 -39.5zM318 642
q-16 7 -35 20q-25 18 -41 18q-18 0 -29 -10t-24 -34l-79 38q21 53 53.5 85.5t75.5 32.5q23 0 39.5 -7t35.5 -20q13 -9 22 -13.5t19 -4.5q16 0 27 10t25 33l79 -38q-21 -53 -54 -85t-76 -32q-22 0 -38 7z" />
    <glyph glyph-name="odieresis" unicode="&#xf6;" 
d="M489.5 472.5q68.5 -76.5 68.5 -205.5q0 -134 -68 -209t-190 -75t-190 74.5t-68 208.5q0 85 30.5 148.5t89 99t138.5 35.5q121 0 189.5 -76.5zM228 392.5q-23 -39.5 -23 -126.5q0 -88 23 -127.5t72 -39.5t72 40t23 128q0 86 -23 125.5t-72 39.5t-72 -39.5zM126 660.5
q-24 23.5 -24 57.5q0 33 24 56t58 23q35 0 59 -23t24 -56q0 -34 -24 -57.5t-59 -23.5q-34 0 -58 23.5zM357.5 660.5q-24.5 23.5 -24.5 57.5q0 33 24.5 56t58.5 23t58 -23t24 -56q0 -34 -23.5 -57.5t-58.5 -23.5q-34 0 -58.5 23.5z" />
    <glyph glyph-name="divide" unicode="&#xf7;" 
d="M364 596.5q26 -26.5 26 -64.5q0 -36 -26 -62.5t-64 -26.5t-64 26.5t-26 62.5q0 38 26 64.5t64 26.5t64 -26.5zM517 258h-434v121h434v-121zM364 168.5q26 -26.5 26 -64.5q0 -37 -26 -63.5t-64 -26.5t-64 26.5t-26 63.5q0 38 26 64.5t64 26.5t64 -26.5z" />
    <glyph glyph-name="oslash" unicode="&#xf8;" 
d="M529 412.5q29 -62.5 29 -145.5q0 -134 -68 -209t-190 -75l-31 1l-37 -121l-116 34l40 122q-55 34 -84.5 97t-29.5 150q0 85 30.5 148.5t89 99t138.5 35.5q11 0 31 -2l39 116l114 -34l-39 -119q55 -35 84 -97.5zM225.5 395q-23.5 -40 -23.5 -129q0 -94 18 -131l96 299
q-5 1 -16 1q-51 0 -74.5 -40zM374.5 136q23.5 40 23.5 131q0 92 -17 126l-95 -297h14q51 0 74.5 40z" />
    <glyph glyph-name="ugrave" unicode="&#xf9;" 
d="M228 168q0 -37 13.5 -52.5t40.5 -15.5q24 0 49 15.5t41 42.5v373h158v-531h-138l-7 62q-26 -38 -70 -58.5t-93 -20.5q-75 0 -113.5 43.5t-38.5 121.5v383h158v-363zM163 716l61 119l218 -133l-43 -80z" />
    <glyph glyph-name="uacute" unicode="&#xfa;" 
d="M228 168q0 -37 13.5 -52.5t40.5 -15.5q24 0 49 15.5t41 42.5v373h158v-531h-138l-7 62q-26 -38 -70 -58.5t-93 -20.5q-75 0 -113.5 43.5t-38.5 121.5v383h158v-363zM438 716l-237 -94l-43 81l218 132z" />
    <glyph glyph-name="ucircumflex" unicode="&#xfb;" 
d="M228 168q0 -37 13.5 -52.5t40.5 -15.5q24 0 49 15.5t41 42.5v373h158v-531h-138l-7 62q-26 -38 -70 -58.5t-93 -20.5q-75 0 -113.5 43.5t-38.5 121.5v383h158v-363zM110 676l142 139h96l141 -139l-56 -65l-133 94l-133 -94z" />
    <glyph glyph-name="udieresis" unicode="&#xfc;" 
d="M228 168q0 -37 13.5 -52.5t40.5 -15.5q24 0 49 15.5t41 42.5v373h158v-531h-138l-7 62q-26 -38 -70 -58.5t-93 -20.5q-75 0 -113.5 43.5t-38.5 121.5v383h158v-363zM126 660.5q-24 23.5 -24 57.5q0 33 24 56t58 23q35 0 59 -23t24 -56q0 -34 -24 -57.5t-59 -23.5
q-34 0 -58 23.5zM357.5 660.5q-24.5 23.5 -24.5 57.5q0 33 24.5 56t58.5 23t58 -23t24 -56q0 -34 -23.5 -57.5t-58.5 -23.5q-34 0 -58.5 23.5z" />
    <glyph glyph-name="yacute" unicode="&#xfd;" 
d="M395 0q-36 -107 -107 -161.5t-190 -61.5l-18 112q76 10 112.5 34t58.5 77h-55l-168 531h167l103 -430l112 430h162zM438 716l-237 -94l-43 81l218 132z" />
    <glyph glyph-name="thorn" unicode="&#xfe;" 
d="M228 478q24 34 59 52.5t77 18.5q100 0 147 -73.5t47 -208.5q0 -82 -24.5 -146.5t-70.5 -101t-109 -36.5q-77 0 -126 55v-243l-158 -17v964l158 17v-281zM228 370v-224q17 -24 35.5 -35.5t42.5 -11.5q44 0 66.5 39.5t22.5 126.5q0 94 -20 130.5t-60 36.5q-50 0 -87 -62z
" />
    <glyph glyph-name="ydieresis" unicode="&#xff;" 
d="M395 0q-36 -107 -107 -161.5t-190 -61.5l-18 112q76 10 112.5 34t58.5 77h-55l-168 531h167l103 -430l112 430h162zM126 660.5q-24 23.5 -24 57.5q0 33 24 56t58 23q35 0 59 -23t24 -56q0 -34 -24 -57.5t-59 -23.5q-34 0 -58 23.5zM357.5 660.5q-24.5 23.5 -24.5 57.5
q0 33 24.5 56t58.5 23t58 -23t24 -56q0 -34 -23.5 -57.5t-58.5 -23.5q-34 0 -58.5 23.5z" />
    <glyph glyph-name="Amacron" unicode="&#x100;" 
d="M197 150l-36 -150h-172l212 693h199l212 -693h-176l-36 150h-203zM373 268l-75 307l-75 -307h150zM147 782v110h305v-110h-305z" />
    <glyph glyph-name="amacron" unicode="&#x101;" 
d="M525 110q8 -14 27 -21l-33 -104q-48 5 -80 21.5t-50 48.5q-30 -35 -76 -53.5t-98 -18.5q-82 0 -131 46.5t-49 120.5q0 86 68 133.5t191 47.5h71v19q0 82 -105 82q-27 0 -67.5 -7.5t-78.5 -20.5l-36 105q51 19 106.5 29.5t100.5 10.5q232 0 232 -188v-208q0 -29 8 -43z
M323.5 111.5q27.5 15.5 41.5 42.5v87h-39q-128 0 -128 -80q0 -31 18.5 -48t52.5 -17q27 0 54.5 15.5zM140 658v109h306v-109h-306z" />
    <glyph glyph-name="Abreve" unicode="&#x102;" 
d="M197 150l-36 -150h-172l212 693h199l212 -693h-176l-36 150h-203zM373 268l-75 307l-75 -307h150zM179 793.5q-43 42.5 -51 111.5l87 16q10 -31 30 -45.5t55 -14.5t55 14.5t30 45.5l87 -16q-7 -68 -50.5 -111t-121.5 -43t-121 42.5z" />
    <glyph glyph-name="abreve" unicode="&#x103;" 
d="M525 110q8 -14 27 -21l-33 -104q-48 5 -80 21.5t-50 48.5q-30 -35 -76 -53.5t-98 -18.5q-82 0 -131 46.5t-49 120.5q0 86 68 133.5t191 47.5h71v19q0 82 -105 82q-27 0 -67.5 -7.5t-78.5 -20.5l-36 105q51 19 106.5 29.5t100.5 10.5q232 0 232 -188v-208q0 -29 8 -43z
M323.5 111.5q27.5 15.5 41.5 42.5v87h-39q-128 0 -128 -80q0 -31 18.5 -48t52.5 -17q27 0 54.5 15.5zM171.5 662.5q-43.5 50.5 -50.5 123.5l87 15q9 -38 30.5 -59.5t54.5 -21.5t54.5 21.5t30.5 59.5l87 -15q-7 -72 -51 -123t-121 -51q-78 0 -121.5 50.5z" />
    <glyph glyph-name="Aogonek" unicode="&#x104;" 
d="M443 -49q-25 -27 -25 -61q0 -24 15.5 -36.5t42.5 -12.5q24 0 54 7l-12 -93q-29 -8 -59 -8q-66 0 -108.5 32.5t-42.5 90.5q0 55 31.5 91t91.5 61l-31 128h-203l-36 -150h-172l212 693h199l212 -693h-79q-65 -22 -90 -49zM373 268l-75 307l-75 -307h150z" />
    <glyph glyph-name="aogonek" unicode="&#x105;" 
d="M519 -15v0q-65 -22 -90 -49t-25 -61q0 -24 15.5 -36.5t42.5 -12.5q24 0 54 7l-12 -93q-29 -8 -59 -8q-66 0 -108.5 32.5t-42.5 90.5t35 94.5t101 62.5q-24 16 -41 43q-30 -35 -76 -53.5t-98 -18.5q-82 0 -131 46.5t-49 120.5q0 86 68 133.5t191 47.5h71v19q0 82 -105 82
q-27 0 -67.5 -7.5t-78.5 -20.5l-36 105q51 19 106.5 29.5t100.5 10.5q232 0 232 -188v-208q0 -29 8 -43t27 -21zM365 241h-39q-128 0 -128 -80q0 -31 18.5 -48t52.5 -17q27 0 54.5 15.5t41.5 42.5v87z" />
    <glyph glyph-name="Cacute" unicode="&#x106;" 
d="M482 692q52 -19 98 -57l-80 -97q-63 51 -138 51q-71 0 -114.5 -60t-43.5 -181t43 -179.5t118 -58.5q46 0 79 16t71 46l74 -95q-92 -94 -233 -94q-95 0 -167.5 42t-113.5 124.5t-41 198.5q0 113 42 195t116 125t166 43q72 0 124 -19zM498 835l-237 -84l-38 80l216 122z
" />
    <glyph glyph-name="cacute" unicode="&#x107;" 
d="M410 119.5q28 11.5 60 33.5l70 -100q-38 -32 -88 -51t-109 -19q-85 0 -146.5 35t-94.5 98t-33 146t34 148t96.5 102t146.5 37q59 0 106 -16.5t88 -50.5l-68 -95q-58 40 -119 40q-119 0 -119 -165q0 -83 31 -118.5t87 -35.5q30 0 58 11.5zM482 703l-237 -94l-43 81
l218 132z" />
    <glyph glyph-name="Ccircumflex" unicode="&#x108;" 
d="M482 692q52 -19 98 -57l-80 -97q-63 51 -138 51q-71 0 -114.5 -60t-43.5 -181t43 -179.5t118 -58.5q46 0 79 16t71 46l74 -95q-92 -94 -233 -94q-95 0 -167.5 42t-113.5 124.5t-41 198.5q0 113 42 195t116 125t166 43q72 0 124 -19zM550 813l-56 -65l-133 85l-133 -85
l-57 65l142 130h96z" />
    <glyph glyph-name="ccircumflex" unicode="&#x109;" 
d="M410 119.5q28 11.5 60 33.5l70 -100q-38 -32 -88 -51t-109 -19q-85 0 -146.5 35t-94.5 98t-33 146t34 148t96.5 102t146.5 37q59 0 106 -16.5t88 -50.5l-68 -95q-58 40 -119 40q-119 0 -119 -165q0 -83 31 -118.5t87 -35.5q30 0 58 11.5zM154 663l142 139h96l141 -139
l-56 -65l-133 94l-133 -94z" />
    <glyph glyph-name="Cdotaccent" unicode="&#x10a;" 
d="M482 692q52 -19 98 -57l-80 -97q-63 51 -138 51q-71 0 -114.5 -60t-43.5 -181t43 -179.5t118 -58.5q46 0 79 16t71 46l74 -95q-92 -94 -233 -94q-95 0 -167.5 42t-113.5 124.5t-41 198.5q0 113 42 195t116 125t166 43q72 0 124 -19zM427.5 908.5q26.5 -25.5 26.5 -63.5
t-26.5 -63.5t-66.5 -25.5q-42 0 -68 25t-26 64q0 38 26.5 63.5t67.5 25.5q40 0 66.5 -25.5z" />
    <glyph glyph-name="cdotaccent" unicode="&#x10b;" 
d="M410 119.5q28 11.5 60 33.5l70 -100q-38 -32 -88 -51t-109 -19q-85 0 -146.5 35t-94.5 98t-33 146t34 148t96.5 102t146.5 37q59 0 106 -16.5t88 -50.5l-68 -95q-58 40 -119 40q-119 0 -119 -165q0 -83 31 -118.5t87 -35.5q30 0 58 11.5zM411 770.5q26 -25.5 26 -63.5
q0 -39 -26 -64t-67 -25t-67.5 25.5t-26.5 63.5t26.5 63.5t67.5 25.5t67 -25.5z" />
    <glyph glyph-name="Ccaron" unicode="&#x10c;" 
d="M482 692q52 -19 98 -57l-80 -97q-63 51 -138 51q-71 0 -114.5 -60t-43.5 -181t43 -179.5t118 -58.5q46 0 79 16t71 46l74 -95q-92 -94 -233 -94q-95 0 -167.5 42t-113.5 124.5t-41 198.5q0 113 42 195t116 125t166 43q72 0 124 -19zM550 881l-141 -130h-96l-142 130
l57 65l133 -85l133 85z" />
    <glyph glyph-name="ccaron" unicode="&#x10d;" 
d="M410 119.5q28 11.5 60 33.5l70 -100q-38 -32 -88 -51t-109 -19q-85 0 -146.5 35t-94.5 98t-33 146t34 148t96.5 102t146.5 37q59 0 106 -16.5t88 -50.5l-68 -95q-58 40 -119 40q-119 0 -119 -165q0 -83 31 -118.5t87 -35.5q30 0 58 11.5zM533 738l-141 -140h-96l-142 140
l57 64l133 -94l133 94z" />
    <glyph glyph-name="Dcaron" unicode="&#x10e;" 
d="M239 0h-187v693h175q157 0 252 -73.5t95 -269.5q0 -350 -335 -350zM365 526.5q-40 47.5 -114 47.5h-35v-455h35q75 0 114.5 51.5t39.5 179.5q0 129 -40 176.5zM476 881l-141 -130h-96l-142 130l57 65l133 -85l133 85z" />
    <glyph glyph-name="dcaron" unicode="&#x10f;" 
d="M491 742v-742h-140l-8 58q-24 -34 -61 -54.5t-86 -20.5q-96 0 -145.5 76t-49.5 208q0 82 26 146t74 100t112 36q72 0 120 -50v260zM188 392.5q-24 -40.5 -24 -126.5q0 -92 21.5 -129.5t60.5 -37.5q50 0 87 61v229q-17 22 -35.5 33t-42.5 11q-43 0 -67 -40.5zM693 747
l-78 -232l-98 16l37 233z" />
    <glyph glyph-name="Dcroat" unicode="&#x110;" 
d="M492 619.5q95 -73.5 95 -269.5q0 -350 -335 -350h-187v303h-56v100h56v290h175q157 0 252 -73.5zM377.5 170q39.5 51 39.5 180q0 89 -19.5 138t-52.5 67.5t-81 18.5h-35v-171h120v-100h-120v-184h35q74 0 113.5 51z" />
    <glyph glyph-name="dcroat" unicode="&#x111;" 
d="M592 593h-80v-593h-140l-8 58q-25 -34 -62 -54.5t-86 -20.5q-96 0 -145.5 76t-49.5 208q0 82 26 146t74 100t112 36q73 0 121 -50v94h-123v92h123v74l158 -17v-57h80v-92zM354 389q-35 44 -78 44t-67.5 -40.5t-24.5 -126.5q0 -92 21.5 -129.5t61.5 -37.5q50 0 87 61v229z
" />
    <glyph glyph-name="Emacron" unicode="&#x112;" 
d="M257 409h240v-114h-240v-177h289v-118h-453v693h453l-17 -117h-272v-167zM167 782v110h305v-110h-305z" />
    <glyph glyph-name="emacron" unicode="&#x113;" 
d="M335 98q68 0 136 44l63 -86q-39 -34 -93 -53.5t-119 -19.5q-89 0 -151 35.5t-93.5 99t-31.5 147.5q0 80 30.5 144.5t89 102t139.5 37.5q76 0 132 -32.5t86.5 -94t30.5 -146.5q0 -33 -3 -57h-344q15 -121 128 -121zM236 411.5q-26 -31.5 -31 -96.5h195q-2 128 -95 128
q-43 0 -69 -31.5zM154 658v109h306v-109h-306z" />
    <glyph glyph-name="Ebreve" unicode="&#x114;" 
d="M257 409h240v-114h-240v-177h289v-118h-453v693h453l-17 -117h-272v-167zM199 793.5q-43 42.5 -51 111.5l87 16q10 -31 30 -45.5t55 -14.5t55 14.5t30 45.5l87 -16q-7 -68 -50.5 -111t-121.5 -43t-121 42.5z" />
    <glyph glyph-name="ebreve" unicode="&#x115;" 
d="M335 98q68 0 136 44l63 -86q-39 -34 -93 -53.5t-119 -19.5q-89 0 -151 35.5t-93.5 99t-31.5 147.5q0 80 30.5 144.5t89 102t139.5 37.5q76 0 132 -32.5t86.5 -94t30.5 -146.5q0 -33 -3 -57h-344q15 -121 128 -121zM236 411.5q-26 -31.5 -31 -96.5h195q-2 128 -95 128
q-43 0 -69 -31.5zM185.5 662.5q-43.5 50.5 -50.5 123.5l87 15q9 -38 30.5 -59.5t54.5 -21.5t54.5 21.5t30.5 59.5l87 -15q-7 -72 -51 -123t-121 -51q-78 0 -121.5 50.5z" />
    <glyph glyph-name="Edotaccent" unicode="&#x116;" 
d="M257 409h240v-114h-240v-177h289v-118h-453v693h453l-17 -117h-272v-167zM386.5 908.5q26.5 -25.5 26.5 -63.5t-26.5 -63.5t-66.5 -25.5q-42 0 -68 25t-26 64q0 38 26.5 63.5t67.5 25.5q40 0 66.5 -25.5z" />
    <glyph glyph-name="edotaccent" unicode="&#x117;" 
d="M335 98q68 0 136 44l63 -86q-39 -34 -93 -53.5t-119 -19.5q-89 0 -151 35.5t-93.5 99t-31.5 147.5q0 80 30.5 144.5t89 102t139.5 37.5q76 0 132 -32.5t86.5 -94t30.5 -146.5q0 -33 -3 -57h-344q15 -121 128 -121zM236 411.5q-26 -31.5 -31 -96.5h195q-2 128 -95 128
q-43 0 -69 -31.5zM374 783.5q26 -25.5 26 -63.5q0 -39 -26 -64t-67 -25t-67.5 25.5t-26.5 63.5t26.5 63.5t67.5 25.5t67 -25.5z" />
    <glyph glyph-name="Eogonek" unicode="&#x118;" 
d="M546 118v-118h-79q-65 -22 -90 -49t-25 -61q0 -24 15.5 -36.5t42.5 -12.5q24 0 54 7l-12 -93q-29 -8 -59 -8q-66 0 -108.5 32.5t-42.5 90.5q0 83 80 130h-229v693h453l-17 -117h-272v-167h240v-114h-240v-177h289z" />
    <glyph glyph-name="eogonek" unicode="&#x119;" 
d="M551 219h-344q15 -121 128 -121q68 0 136 44l63 -86q-45 -38 -99 -55v-1q-65 -22 -90 -49t-25 -61q0 -24 15.5 -36.5t42.5 -12.5q24 0 54 7l-12 -93q-29 -8 -59 -8q-66 0 -108.5 32.5t-42.5 90.5q0 70 69 115q-113 12 -173 87.5t-60 192.5q0 80 30.5 144.5t89 102
t139.5 37.5q76 0 132 -32.5t86.5 -94t30.5 -146.5q0 -33 -3 -57zM400 315q-2 128 -95 128q-43 0 -69 -31.5t-31 -96.5h195z" />
    <glyph glyph-name="Ecaron" unicode="&#x11a;" 
d="M257 409h240v-114h-240v-177h289v-118h-453v693h453l-17 -117h-272v-167zM509 881l-141 -130h-96l-142 130l57 65l133 -85l133 85z" />
    <glyph glyph-name="ecaron" unicode="&#x11b;" 
d="M335 98q68 0 136 44l63 -86q-39 -34 -93 -53.5t-119 -19.5q-89 0 -151 35.5t-93.5 99t-31.5 147.5q0 80 30.5 144.5t89 102t139.5 37.5q76 0 132 -32.5t86.5 -94t30.5 -146.5q0 -33 -3 -57h-344q15 -121 128 -121zM236 411.5q-26 -31.5 -31 -96.5h195q-2 128 -95 128
q-43 0 -69 -31.5zM496 751l-141 -140h-96l-142 140l57 64l133 -94l133 94z" />
    <glyph glyph-name="Gcircumflex" unicode="&#x11c;" 
d="M100.5 76.5q-77.5 93.5 -77.5 271.5q0 115 42 197t115.5 124t164.5 42q71 0 123.5 -22.5t96.5 -63.5l-86 -89q-33 29 -61.5 42t-64.5 13q-75 0 -118 -59.5t-43 -184.5q0 -134 32 -189t103 -55q47 0 86 21v159h-87l-16 114h258v-344q-114 -70 -242 -70q-148 0 -225.5 93.5
zM519 813l-56 -65l-133 85l-133 -85l-57 65l142 130h96z" />
    <glyph glyph-name="gcircumflex" unicode="&#x11d;" 
d="M578 500q-52 -21 -153 -21q52 -23 77.5 -55t25.5 -82q0 -51 -28 -91.5t-79 -63.5t-118 -23q-33 0 -62 6q-8 -4 -12.5 -12.5t-4.5 -17.5q0 -15 11.5 -23.5t46.5 -8.5h88q60 0 106 -20t71 -55t25 -79q0 -83 -72.5 -129.5t-211.5 -46.5q-99 0 -155.5 20.5t-79 57.5t-22.5 93
h140q0 -25 9.5 -39t35.5 -21t76 -7q70 0 96.5 16t26.5 45q0 24 -19.5 38.5t-57.5 14.5h-84q-82 0 -123 29.5t-41 75.5q0 30 15.5 56.5t43.5 44.5q-50 27 -72 63.5t-22 88.5q0 59 30 103t84 67.5t123 23.5q80 -2 136 15.5t114 52.5zM236.5 421q-21.5 -24 -21.5 -65
q0 -43 22 -67t59 -24q39 0 60 23.5t21 69.5q0 87 -81 87q-38 0 -59.5 -24zM111 676l142 139h96l141 -139l-56 -65l-133 94l-133 -94z" />
    <glyph glyph-name="Gbreve" unicode="&#x11e;" 
d="M100.5 76.5q-77.5 93.5 -77.5 271.5q0 115 42 197t115.5 124t164.5 42q71 0 123.5 -22.5t96.5 -63.5l-86 -89q-33 29 -61.5 42t-64.5 13q-75 0 -118 -59.5t-43 -184.5q0 -134 32 -189t103 -55q47 0 86 21v159h-87l-16 114h258v-344q-114 -70 -242 -70q-148 0 -225.5 93.5
zM209 793.5q-43 42.5 -51 111.5l87 16q10 -31 30 -45.5t55 -14.5t55 14.5t30 45.5l87 -16q-7 -68 -50.5 -111t-121.5 -43t-121 42.5z" />
    <glyph glyph-name="gbreve" unicode="&#x11f;" 
d="M578 500q-52 -21 -153 -21q52 -23 77.5 -55t25.5 -82q0 -51 -28 -91.5t-79 -63.5t-118 -23q-33 0 -62 6q-8 -4 -12.5 -12.5t-4.5 -17.5q0 -15 11.5 -23.5t46.5 -8.5h88q60 0 106 -20t71 -55t25 -79q0 -83 -72.5 -129.5t-211.5 -46.5q-99 0 -155.5 20.5t-79 57.5t-22.5 93
h140q0 -25 9.5 -39t35.5 -21t76 -7q70 0 96.5 16t26.5 45q0 24 -19.5 38.5t-57.5 14.5h-84q-82 0 -123 29.5t-41 75.5q0 30 15.5 56.5t43.5 44.5q-50 27 -72 63.5t-22 88.5q0 59 30 103t84 67.5t123 23.5q80 -2 136 15.5t114 52.5zM236.5 421q-21.5 -24 -21.5 -65
q0 -43 22 -67t59 -24q39 0 60 23.5t21 69.5q0 87 -81 87q-38 0 -59.5 -24zM179.5 662.5q-43.5 50.5 -50.5 123.5l87 15q9 -38 30.5 -59.5t54.5 -21.5t54.5 21.5t30.5 59.5l87 -15q-7 -72 -51 -123t-121 -51q-78 0 -121.5 50.5z" />
    <glyph glyph-name="Gdotaccent" unicode="&#x120;" 
d="M100.5 76.5q-77.5 93.5 -77.5 271.5q0 115 42 197t115.5 124t164.5 42q71 0 123.5 -22.5t96.5 -63.5l-86 -89q-33 29 -61.5 42t-64.5 13q-75 0 -118 -59.5t-43 -184.5q0 -134 32 -189t103 -55q47 0 86 21v159h-87l-16 114h258v-344q-114 -70 -242 -70q-148 0 -225.5 93.5
zM396.5 908.5q26.5 -25.5 26.5 -63.5t-26.5 -63.5t-66.5 -25.5q-42 0 -68 25t-26 64q0 38 26.5 63.5t67.5 25.5q40 0 66.5 -25.5z" />
    <glyph glyph-name="gdotaccent" unicode="&#x121;" 
d="M578 500q-52 -21 -153 -21q52 -23 77.5 -55t25.5 -82q0 -51 -28 -91.5t-79 -63.5t-118 -23q-33 0 -62 6q-8 -4 -12.5 -12.5t-4.5 -17.5q0 -15 11.5 -23.5t46.5 -8.5h88q60 0 106 -20t71 -55t25 -79q0 -83 -72.5 -129.5t-211.5 -46.5q-99 0 -155.5 20.5t-79 57.5t-22.5 93
h140q0 -25 9.5 -39t35.5 -21t76 -7q70 0 96.5 16t26.5 45q0 24 -19.5 38.5t-57.5 14.5h-84q-82 0 -123 29.5t-41 75.5q0 30 15.5 56.5t43.5 44.5q-50 27 -72 63.5t-22 88.5q0 59 30 103t84 67.5t123 23.5q80 -2 136 15.5t114 52.5zM236.5 421q-21.5 -24 -21.5 -65
q0 -43 22 -67t59 -24q39 0 60 23.5t21 69.5q0 87 -81 87q-38 0 -59.5 -24zM368 783.5q26 -25.5 26 -63.5q0 -39 -26 -64t-67 -25t-67.5 25.5t-26.5 63.5t26.5 63.5t67.5 25.5t67 -25.5z" />
    <glyph glyph-name="Gcommaaccent" unicode="&#x122;" 
d="M100.5 76.5q-77.5 93.5 -77.5 271.5q0 115 42 197t115.5 124t164.5 42q71 0 123.5 -22.5t96.5 -63.5l-86 -89q-33 29 -61.5 42t-64.5 13q-75 0 -118 -59.5t-43 -184.5q0 -134 32 -189t103 -55q47 0 86 21v159h-87l-16 114h258v-344q-114 -70 -242 -70q-148 0 -225.5 93.5
zM383 -87q22 -22 22 -56q0 -36 -23 -82l-49 -97h-80l27 115q-32 27 -32 64q0 33 22.5 55.5t56.5 22.5t56 -22z" />
    <glyph glyph-name="gcommaaccent" unicode="&#x123;" 
d="M245 618q-22 22 -22 56q0 36 23 82l49 97h80l-27 -115q32 -27 32 -64q0 -33 -22.5 -55.5t-56.5 -22.5t-56 22zM578 500q-52 -21 -153 -21q52 -23 77.5 -55t25.5 -82q0 -51 -28 -91.5t-79 -63.5t-118 -23q-33 0 -62 6q-8 -4 -12.5 -12.5t-4.5 -17.5q0 -15 11.5 -23.5
t46.5 -8.5h88q60 0 106 -20t71 -55t25 -79q0 -83 -72.5 -129.5t-211.5 -46.5q-99 0 -155.5 20.5t-79 57.5t-22.5 93h140q0 -25 9.5 -39t35.5 -21t76 -7q70 0 96.5 16t26.5 45q0 24 -19.5 38.5t-57.5 14.5h-84q-82 0 -123 29.5t-41 75.5q0 30 15.5 56.5t43.5 44.5
q-50 27 -72 63.5t-22 88.5q0 59 30 103t84 67.5t123 23.5q80 -2 136 15.5t114 52.5zM236.5 421q-21.5 -24 -21.5 -65q0 -43 22 -67t59 -24q39 0 60 23.5t21 69.5q0 87 -81 87q-38 0 -59.5 -24z" />
    <glyph glyph-name="Hcircumflex" unicode="&#x124;" 
d="M384 292h-168v-292h-164v693h164v-266h168v266h164v-693h-164v292zM489 813l-56 -65l-133 85l-133 -85l-57 65l142 130h96z" />
    <glyph glyph-name="hcircumflex" unicode="&#x125;" 
d="M228 478q67 71 156 71q70 0 108 -41.5t38 -117.5v-390h-158v346q0 48 -11 67t-40 19q-24 0 -46.5 -16.5t-46.5 -48.5v-367h-158v742l158 16v-280zM489 862l-56 -65l-133 85l-133 -85l-57 65l142 130h96z" />
    <glyph glyph-name="Hbar" unicode="&#x126;" 
d="M598 500h-55v-500h-164v297h-158v-297h-164v500h-55v92h55v101h164v-101h158v101h164v-101h55v-92zM379 500h-158v-76h158v76z" />
    <glyph glyph-name="hbar" unicode="&#x127;" 
d="M492 507.5q38 -41.5 38 -117.5v-390h-158v346q0 48 -11 67t-40 19q-24 0 -46.5 -16.5t-46.5 -48.5v-367h-158v593h-62v92h62v57l158 16v-73h141v-92h-141v-115q67 71 156 71q70 0 108 -41.5z" />
    <glyph glyph-name="Itilde" unicode="&#x128;" 
d="M525 573h-143v-452h143v-121h-450v121h143v452h-143v120h450v-120zM318 767q-16 7 -35 20q-25 18 -41 18q-18 0 -29 -10t-24 -34l-79 38q21 53 53.5 85.5t75.5 32.5q23 0 39.5 -7t35.5 -20q13 -9 22 -13.5t19 -4.5q16 0 27 10t25 33l79 -38q-21 -53 -54.5 -85t-75.5 -32
q-22 0 -38 7z" />
    <glyph glyph-name="itilde" unicode="&#x129;" 
d="M394 108h136v-108h-444v108h150v315h-145v108h303v-423zM317 642q-16 7 -35 20q-25 18 -41 18q-18 0 -29 -10t-24 -34l-79 38q21 53 53.5 85.5t75.5 32.5q23 0 39.5 -7t35.5 -20q13 -9 22 -13.5t19 -4.5q16 0 27 10t25 33l79 -38q-21 -53 -54 -85t-76 -32q-22 0 -38 7z
" />
    <glyph glyph-name="Imacron" unicode="&#x12a;" 
d="M525 573h-143v-452h143v-121h-450v121h143v452h-143v120h450v-120zM147 782v110h305v-110h-305z" />
    <glyph glyph-name="imacron" unicode="&#x12b;" 
d="M394 108h136v-108h-444v108h150v315h-145v108h303v-423zM146 658v109h306v-109h-306z" />
    <glyph glyph-name="Ibreve" unicode="&#x12c;" 
d="M525 573h-143v-452h143v-121h-450v121h143v452h-143v120h450v-120zM179 793.5q-43 42.5 -51 111.5l87 16q10 -31 30 -45.5t55 -14.5t55 14.5t30 45.5l87 -16q-7 -68 -50.5 -111t-121.5 -43t-121 42.5z" />
    <glyph glyph-name="ibreve" unicode="&#x12d;" 
d="M394 108h136v-108h-444v108h150v315h-145v108h303v-423zM177.5 662.5q-43.5 50.5 -50.5 123.5l87 15q9 -38 30.5 -59.5t54.5 -21.5t54.5 21.5t30.5 59.5l87 -15q-7 -72 -51 -123t-121 -51q-78 0 -121.5 50.5z" />
    <glyph glyph-name="Iogonek" unicode="&#x12e;" 
d="M382 573v-452h143v-121h-143q-65 -22 -90 -49t-25 -61q0 -24 15.5 -36.5t42.5 -12.5q24 0 54 7l-12 -93q-29 -8 -59 -8q-66 0 -108.5 32.5t-42.5 90.5q0 83 80 130h-162v121h143v452h-143v120h450v-120h-143z" />
    <glyph glyph-name="iogonek" unicode="&#x12f;" 
d="M231.5 656.5q-26.5 25.5 -26.5 63.5t26.5 63.5t67.5 25.5t67 -25.5t26 -63.5q0 -39 -26 -64t-67 -25t-67.5 25.5zM530 108v-108h-136q-65 -22 -90 -49t-25 -61q0 -24 15.5 -36.5t42.5 -12.5q24 0 54 7l-12 -93q-29 -8 -59 -8q-66 0 -108.5 32.5t-42.5 90.5q0 83 80 130
h-163v108h150v315h-145v108h303v-423h136z" />
    <glyph glyph-name="Idotaccent" unicode="&#x130;" 
d="M525 573h-143v-452h143v-121h-450v121h143v452h-143v120h450v-120zM366.5 908.5q26.5 -25.5 26.5 -63.5t-26.5 -63.5t-66.5 -25.5q-42 0 -68 25t-26 64q0 38 26.5 63.5t67.5 25.5q40 0 66.5 -25.5z" />
    <glyph glyph-name="dotlessi" unicode="&#x131;" 
d="M394 108h136v-108h-444v108h150v315h-145v108h303v-423z" />
    <glyph glyph-name="IJ" unicode="&#x132;" 
d="M318 -27q47 29 63.5 73.5t16.5 117.5v428h-166v-490h53v-102h-277v102h73v490h-73v101h548v-523q0 -147 -82.5 -234.5t-273.5 -118.5l-19 111q90 16 137 45z" />
    <glyph glyph-name="ij" unicode="&#x133;" 
d="M250.5 783.5q26.5 -25.5 26.5 -63.5q0 -39 -26.5 -64t-68.5 -25q-40 0 -66.5 25.5t-26.5 63.5t26.5 63.5t66.5 25.5q42 0 68.5 -25.5zM523 783.5q27 -25.5 27 -63.5t-27 -63.5t-67 -25.5q-41 0 -67.5 25.5t-26.5 63.5t26.5 63.5t67.5 25.5q40 0 67 -25.5zM545 122
q0 -101 -34 -166.5t-98.5 -106t-167.5 -71.5l-52 117q71 22 112 46t62 63.5t21 103.5v316h-128v-316h52v-108h-277v108h69v316h-64v107h505v-409z" />
    <glyph glyph-name="Jcircumflex" unicode="&#x134;" 
d="M527 249q0 -122 -73.5 -193t-205.5 -71q-64 0 -112.5 16t-96.5 49l62 101q36 -24 67 -34t71 -10q55 0 89.5 35.5t34.5 105.5v325h-212v120h376v-444zM541 813l-56 -65l-133 85l-133 -85l-57 65l142 130h96z" />
    <glyph glyph-name="jcircumflex" unicode="&#x135;" 
d="M472 154q0 -113 -42 -187.5t-124.5 -119t-211.5 -69.5l-24 121q85 19 137.5 47t79.5 75.5t27 122.5v279h-190v108h348v-377zM180 676l142 139h96l141 -139l-56 -65l-133 94l-133 -94z" />
    <glyph glyph-name="Kcommaaccent" unicode="&#x136;" 
d="M59 0v693h164v-693h-164zM417 693h172l-196 -311l215 -382h-189l-191 370zM358 -87q22 -22 22 -56q0 -36 -23 -82l-49 -97h-80l27 115q-32 27 -32 64q0 33 22.5 55.5t56.5 22.5t56 -22z" />
    <glyph glyph-name="kcommaaccent" unicode="&#x137;" 
d="M228 0h-158v742l158 17v-759zM399 296l189 -296h-180l-174 291l175 240h165zM356 -87q22 -22 22 -56q0 -36 -23 -82l-49 -97h-80l27 115q-32 27 -32 64q0 33 22.5 55.5t56.5 22.5t56 -22z" />
    <glyph glyph-name="kgreenlandic" unicode="&#x138;" 
d="M228 0h-158v531h158v-531zM398 287l190 -287h-180l-174 276l175 255h165z" />
    <glyph glyph-name="Lacute" unicode="&#x139;" 
d="M93 693h164v-563h300l-16 -130h-448v693zM312 835l-237 -84l-38 80l216 122z" />
    <glyph glyph-name="lacute" unicode="&#x13a;" 
d="M347 167q0 -59 68 -59q37 0 76 16l37 -106q-64 -35 -153 -35q-93 0 -139.5 53.5t-46.5 150.5v447h-156v108h314v-575zM394 927l-237 -94l-43 81l218 132z" />
    <glyph glyph-name="Lcommaaccent" unicode="&#x13b;" 
d="M93 693h164v-563h300l-16 -130h-448v693zM374 -87q22 -22 22 -56q0 -36 -23 -82l-49 -97h-80l27 115q-32 27 -32 64q0 33 22.5 55.5t56.5 22.5t56 -22z" />
    <glyph glyph-name="lcommaaccent" unicode="&#x13c;" 
d="M347 167q0 -59 68 -59q37 0 76 16l37 -106q-64 -35 -153 -35q-93 0 -139.5 53.5t-46.5 150.5v447h-156v108h314v-575zM411 -87q22 -22 22 -56q0 -36 -23 -82l-49 -97h-80l27 115q-32 27 -32 64q0 33 22.5 55.5t56.5 22.5t56 -22z" />
    <glyph glyph-name="Lcaron" unicode="&#x13d;" 
d="M93 693h164v-563h300l-16 -130h-448v693zM488 698l-78 -232l-98 16l37 233z" />
    <glyph glyph-name="lcaron" unicode="&#x13e;" 
d="M347 167q0 -59 68 -59q37 0 76 16l37 -106q-64 -35 -153 -35q-93 0 -139.5 53.5t-46.5 150.5v447h-156v108h314v-575zM559 747l-78 -232l-98 16l37 233z" />
    <glyph glyph-name="Ldot" unicode="&#x13f;" 
d="M93 693h164v-563h300l-16 -130h-448v693zM533 448.5q26 -25.5 26 -63.5q0 -39 -26 -64t-67 -25t-67.5 25.5t-26.5 63.5t26.5 63.5t67.5 25.5t67 -25.5z" />
    <glyph glyph-name="ldot" unicode="&#x140;" 
d="M347 167q0 -59 68 -59q37 0 76 16l37 -106q-64 -35 -153 -35q-93 0 -139.5 53.5t-46.5 150.5v447h-156v108h314v-575zM635 446.5q26 -25.5 26 -63.5q0 -39 -26 -64t-67 -25t-67.5 25.5t-26.5 63.5t26.5 63.5t67.5 25.5t67 -25.5z" />
    <glyph glyph-name="Lslash" unicode="&#x141;" 
d="M572 130l-17 -130h-447v229l-46 -28l-53 87l99 61v344h164v-242l124 76l54 -85l-178 -111v-201h300z" />
    <glyph glyph-name="lslash" unicode="&#x142;" 
d="M528 18q-64 -35 -153 -35q-93 0 -139.5 53.5t-46.5 150.5v71l-45 -27l-55 88l100 61v254h-156v108h314v-265l65 40l56 -89l-121 -74v-187q0 -59 68 -59q37 0 76 16z" />
    <glyph glyph-name="Nacute" unicode="&#x143;" 
d="M167 557q10 -76 17 -146.5t7 -149.5v-261h-139v693h205l176 -555q-24 154 -24 290v265h139v-693h-199zM447 835l-237 -84l-38 80l216 122z" />
    <glyph glyph-name="nacute" unicode="&#x144;" 
d="M70 531h138l11 -61q36 40 75.5 59.5t89.5 19.5q69 0 107.5 -42t38.5 -117v-390h-158v344q0 50 -11 69t-40 19q-24 0 -46.5 -15.5t-46.5 -45.5v-371h-158v531zM439 716l-237 -94l-43 81l218 132z" />
    <glyph glyph-name="Ncommaaccent" unicode="&#x145;" 
d="M167 557q10 -76 17 -146.5t7 -149.5v-261h-139v693h205l176 -555q-24 154 -24 290v265h139v-693h-199zM357 -87q22 -22 22 -56q0 -36 -23 -82l-49 -97h-80l27 115q-32 27 -32 64q0 33 22.5 55.5t56.5 22.5t56 -22z" />
    <glyph glyph-name="ncommaaccent" unicode="&#x146;" 
d="M70 531h138l11 -61q36 40 75.5 59.5t89.5 19.5q69 0 107.5 -42t38.5 -117v-390h-158v344q0 50 -11 69t-40 19q-24 0 -46.5 -15.5t-46.5 -45.5v-371h-158v531zM357 -87q22 -22 22 -56q0 -36 -23 -82l-49 -97h-80l27 115q-32 27 -32 64q0 33 22.5 55.5t56.5 22.5t56 -22z
" />
    <glyph glyph-name="Ncaron" unicode="&#x147;" 
d="M167 557q10 -76 17 -146.5t7 -149.5v-261h-139v693h205l176 -555q-24 154 -24 290v265h139v-693h-199zM499 881l-141 -130h-96l-142 130l57 65l133 -85l133 85z" />
    <glyph glyph-name="ncaron" unicode="&#x148;" 
d="M70 531h138l11 -61q36 40 75.5 59.5t89.5 19.5q69 0 107.5 -42t38.5 -117v-390h-158v344q0 50 -11 69t-40 19q-24 0 -46.5 -15.5t-46.5 -45.5v-371h-158v531zM490 751l-141 -140h-96l-142 140l57 64l133 -94l133 94z" />
    <glyph glyph-name="napostrophe" unicode="&#x149;" 
d="M114 742.5q22 -21.5 22 -53.5q0 -18 -5.5 -34t-18.5 -40l-41 -80h-78l21 92q-31 26 -31 62q0 31 22 53t54 22q33 0 55 -21.5zM90 531h138l11 -61q35 40 75 59.5t90 19.5q68 0 107 -42t39 -117v-390h-158v344q0 49 -11 68.5t-40 19.5q-46 0 -93 -61v-371h-158v531z" />
    <glyph glyph-name="Eng" unicode="&#x14a;" 
d="M548 693v-720q0 -97 -52.5 -149t-147.5 -52q-43 0 -75 11.5t-61 33.5l60 92q20 -9 31.5 -13t28.5 -4q26 0 39 15.5t13 51.5v41h-35l-182 557q10 -76 17 -146.5t7 -149.5v-261h-139v693h205l176 -555q-24 154 -24 290v265h139z" />
    <glyph glyph-name="eng" unicode="&#x14b;" 
d="M505 -76q-25 -53 -69.5 -84.5t-116.5 -61.5l-56 116q39 17 61.5 34.5t35 46.5t12.5 75v294q0 50 -10.5 69t-40.5 19q-24 0 -46.5 -16.5t-46.5 -48.5v-367h-158v531h138l11 -61q70 79 165 79q70 0 108 -41.5t38 -117.5v-330q0 -83 -25 -136z" />
    <glyph glyph-name="Omacron" unicode="&#x14c;" 
d="M505.5 80.5q-71.5 -97.5 -205.5 -97.5q-135 0 -206 96.5t-71 267.5q0 169 71.5 266.5t205.5 97.5q135 0 206 -96.5t71 -267.5q0 -169 -71.5 -266.5zM383.5 533q-25.5 58 -83.5 58t-83.5 -58t-25.5 -186t25.5 -186t83.5 -58q59 0 84 58t25 186t-25.5 186zM147 782v110h305
v-110h-305z" />
    <glyph glyph-name="omacron" unicode="&#x14d;" 
d="M489.5 472.5q68.5 -76.5 68.5 -205.5q0 -134 -68 -209t-190 -75t-190 74.5t-68 208.5q0 85 30.5 148.5t89 99t138.5 35.5q121 0 189.5 -76.5zM228 392.5q-23 -39.5 -23 -126.5q0 -88 23 -127.5t72 -39.5t72 40t23 128q0 86 -23 125.5t-72 39.5t-72 -39.5zM147 658v109
h306v-109h-306z" />
    <glyph glyph-name="Obreve" unicode="&#x14e;" 
d="M505.5 80.5q-71.5 -97.5 -205.5 -97.5q-135 0 -206 96.5t-71 267.5q0 169 71.5 266.5t205.5 97.5q135 0 206 -96.5t71 -267.5q0 -169 -71.5 -266.5zM383.5 533q-25.5 58 -83.5 58t-83.5 -58t-25.5 -186t25.5 -186t83.5 -58q59 0 84 58t25 186t-25.5 186zM179 793.5
q-43 42.5 -51 111.5l87 16q10 -31 30 -45.5t55 -14.5t55 14.5t30 45.5l87 -16q-7 -68 -50.5 -111t-121.5 -43t-121 42.5z" />
    <glyph glyph-name="obreve" unicode="&#x14f;" 
d="M489.5 472.5q68.5 -76.5 68.5 -205.5q0 -134 -68 -209t-190 -75t-190 74.5t-68 208.5q0 85 30.5 148.5t89 99t138.5 35.5q121 0 189.5 -76.5zM228 392.5q-23 -39.5 -23 -126.5q0 -88 23 -127.5t72 -39.5t72 40t23 128q0 86 -23 125.5t-72 39.5t-72 -39.5zM178.5 662.5
q-43.5 50.5 -50.5 123.5l87 15q9 -38 30.5 -59.5t54.5 -21.5t54.5 21.5t30.5 59.5l87 -15q-7 -72 -51 -123t-121 -51q-78 0 -121.5 50.5z" />
    <glyph glyph-name="Ohungarumlaut" unicode="&#x150;" 
d="M505.5 80.5q-71.5 -97.5 -205.5 -97.5q-135 0 -206 96.5t-71 267.5q0 169 71.5 266.5t205.5 97.5q135 0 206 -96.5t71 -267.5q0 -169 -71.5 -266.5zM383.5 533q-25.5 58 -83.5 58t-83.5 -58t-25.5 -186t25.5 -186t83.5 -58q59 0 84 58t25 186t-25.5 186zM258 982l107 -49
l-124 -183l-83 36zM422 982l106 -51l-125 -182l-81 39z" />
    <glyph glyph-name="ohungarumlaut" unicode="&#x151;" 
d="M489.5 472.5q68.5 -76.5 68.5 -205.5q0 -134 -68 -209t-190 -75t-190 74.5t-68 208.5q0 85 30.5 148.5t89 99t138.5 35.5q121 0 189.5 -76.5zM228 392.5q-23 -39.5 -23 -126.5q0 -88 23 -127.5t72 -39.5t72 40t23 128q0 86 -23 125.5t-72 39.5t-72 -39.5zM259 857
l107 -49l-124 -183l-82 36zM423 857l106 -51l-125 -182l-81 39z" />
    <glyph glyph-name="OE" unicode="&#x152;" 
d="M271 706.5q21 -4.5 49 -13.5h276l-16 -111h-182q33 -66 39 -176h121v-110h-120q-6 -111 -45 -185h204v-111h-281q-28 -9 -47.5 -13t-43.5 -4q-112 0 -163.5 92.5t-51.5 271.5q0 364 215 364q25 0 46 -4.5zM179.5 574q-16.5 -25 -23.5 -79t-7 -148q0 -137 17.5 -195
t59.5 -58q43 0 60.5 57.5t17.5 195.5q0 96 -7 150t-24 78t-47 24t-46.5 -25z" />
    <glyph glyph-name="oe" unicode="&#x153;" 
d="M567 481q39 -68 39 -205q0 -26 -3 -50h-234q6 -72 29 -105.5t64 -33.5q22 0 41.5 7.5t42.5 24.5l60 -79q-67 -57 -152 -57q-102 0 -152 80q-19 -39 -49 -59.5t-77 -20.5q-93 0 -138.5 73t-45.5 210q0 132 45.5 207.5t138.5 75.5q49 0 79.5 -21.5t49.5 -62.5q45 84 133 84
q90 0 129 -68zM387 419q-15 -31 -19 -107h119q-1 75 -12 106.5t-43 31.5q-30 0 -45 -31zM136 394.5q-13 -37.5 -13 -128.5q0 -64 5.5 -100t18.5 -51.5t35 -15.5t34.5 15.5t18.5 51.5t6 101q0 90 -13.5 127.5t-45.5 37.5q-33 0 -46 -37.5z" />
    <glyph glyph-name="Racute" unicode="&#x154;" 
d="M523.5 364.5q-37.5 -47.5 -100.5 -72.5l181 -292h-186l-150 265h-46v-265h-164v693h218q143 0 214 -52t71 -159q0 -70 -37.5 -117.5zM363.5 555q-28.5 23 -87.5 23h-54v-200h61q54 0 81.5 25t27.5 79q0 50 -28.5 73zM437 835l-237 -84l-38 80l216 122z" />
    <glyph glyph-name="racute" unicode="&#x155;" 
d="M563 531l-29 -222h-100v98q-44 -8 -78 -48t-53 -101v-152h105v-106h-333v106h70v320h-70v105h191l28 -119q29 68 73 101.5t108 33.5q48 0 88 -16zM463 716l-237 -94l-43 81l218 132z" />
    <glyph glyph-name="Rcommaaccent" unicode="&#x156;" 
d="M523.5 364.5q-37.5 -47.5 -100.5 -72.5l181 -292h-186l-150 265h-46v-265h-164v693h218q143 0 214 -52t71 -159q0 -70 -37.5 -117.5zM363.5 555q-28.5 23 -87.5 23h-54v-200h61q54 0 81.5 25t27.5 79q0 50 -28.5 73zM367 -87q22 -22 22 -56q0 -36 -23 -82l-49 -97h-80
l27 115q-32 27 -32 64q0 33 22.5 55.5t56.5 22.5t56 -22z" />
    <glyph glyph-name="rcommaaccent" unicode="&#x157;" 
d="M563 531l-29 -222h-100v98q-44 -8 -78 -48t-53 -101v-152h105v-106h-333v106h70v320h-70v105h191l28 -119q29 68 73 101.5t108 33.5q48 0 88 -16zM280 -87q22 -22 22 -56q0 -36 -23 -82l-49 -97h-80l27 115q-32 27 -32 64q0 33 22.5 55.5t56.5 22.5t56 -22z" />
    <glyph glyph-name="Rcaron" unicode="&#x158;" 
d="M523.5 364.5q-37.5 -47.5 -100.5 -72.5l181 -292h-186l-150 265h-46v-265h-164v693h218q143 0 214 -52t71 -159q0 -70 -37.5 -117.5zM363.5 555q-28.5 23 -87.5 23h-54v-200h61q54 0 81.5 25t27.5 79q0 50 -28.5 73zM489 881l-141 -130h-96l-142 130l57 65l133 -85
l133 85z" />
    <glyph glyph-name="rcaron" unicode="&#x159;" 
d="M563 531l-29 -222h-100v98q-44 -8 -78 -48t-53 -101v-152h105v-106h-333v106h70v320h-70v105h191l28 -119q29 68 73 101.5t108 33.5q48 0 88 -16zM514 751l-141 -140h-96l-142 140l57 64l133 -94l133 94z" />
    <glyph glyph-name="Sacute" unicode="&#x15a;" 
d="M534 88q-34 -50 -97.5 -77.5t-150.5 -27.5q-172 0 -274 100l83 92q79 -70 187 -70q52 0 83.5 22.5t31.5 62.5q0 38 -26.5 59.5t-98.5 43.5q-122 37 -173 87t-51 129q0 62 34.5 108t94 70t132.5 24q153 0 248 -90l-77 -89q-35 29 -75.5 43.5t-83.5 14.5q-48 0 -75.5 -17.5
t-27.5 -50.5q0 -22 12.5 -37t41.5 -28t87 -31q106 -32 157.5 -82.5t51.5 -140.5q0 -65 -34 -115zM447 835l-237 -84l-38 80l216 122z" />
    <glyph glyph-name="sacute" unicode="&#x15b;" 
d="M347.5 108.5q23.5 12.5 23.5 37.5q0 18 -9.5 29t-35.5 21.5t-81 25.5q-80 21 -122 58.5t-42 103.5q0 73 60.5 119t169.5 46q126 0 215 -65l-63 -93q-73 45 -147 45q-39 0 -57.5 -10t-18.5 -31q0 -14 9.5 -23.5t36 -19.5t79.5 -25q57 -16 93.5 -35t56.5 -51t20 -82
q0 -56 -34 -96t-91 -60t-126 -20q-74 0 -134 21t-102 59l79 89q72 -56 156 -56q41 0 64.5 12.5zM451 716l-237 -94l-43 81l218 132z" />
    <glyph glyph-name="Scircumflex" unicode="&#x15c;" 
d="M534 88q-34 -50 -97.5 -77.5t-150.5 -27.5q-172 0 -274 100l83 92q79 -70 187 -70q52 0 83.5 22.5t31.5 62.5q0 38 -26.5 59.5t-98.5 43.5q-122 37 -173 87t-51 129q0 62 34.5 108t94 70t132.5 24q153 0 248 -90l-77 -89q-35 29 -75.5 43.5t-83.5 14.5q-48 0 -75.5 -17.5
t-27.5 -50.5q0 -22 12.5 -37t41.5 -28t87 -31q106 -32 157.5 -82.5t51.5 -140.5q0 -65 -34 -115zM499 813l-56 -65l-133 85l-133 -85l-57 65l142 130h96z" />
    <glyph glyph-name="scircumflex" unicode="&#x15d;" 
d="M347.5 108.5q23.5 12.5 23.5 37.5q0 18 -9.5 29t-35.5 21.5t-81 25.5q-80 21 -122 58.5t-42 103.5q0 73 60.5 119t169.5 46q126 0 215 -65l-63 -93q-73 45 -147 45q-39 0 -57.5 -10t-18.5 -31q0 -14 9.5 -23.5t36 -19.5t79.5 -25q57 -16 93.5 -35t56.5 -51t20 -82
q0 -56 -34 -96t-91 -60t-126 -20q-74 0 -134 21t-102 59l79 89q72 -56 156 -56q41 0 64.5 12.5zM123 676l142 139h96l141 -139l-56 -65l-133 94l-133 -94z" />
    <glyph glyph-name="Scedilla" unicode="&#x15e;" 
d="M505 54q-63 -59 -175 -69v-33q51 -6 77 -32t26 -67q0 -51 -41 -83t-108 -32q-34 0 -64.5 8.5t-52.5 21.5l36 73q34 -17 64 -17q53 0 53 31q0 19 -22 26t-70 7l10 97q-140 12 -226 98l83 92q79 -70 187 -70q52 0 83.5 22.5t31.5 62.5q0 38 -26.5 59.5t-98.5 43.5
q-122 37 -173 87t-51 129q0 62 34.5 108t94 70t132.5 24q153 0 248 -90l-77 -89q-35 29 -75.5 43.5t-83.5 14.5q-48 0 -75.5 -17.5t-27.5 -50.5q0 -22 12.5 -37t41.5 -28t87 -31q106 -32 157.5 -82.5t51.5 -140.5t-63 -149z" />
    <glyph glyph-name="scedilla" unicode="&#x15f;" 
d="M478 40q-57 -45 -147 -54v-34q51 -6 77 -32t26 -67q0 -51 -41 -83t-108 -32q-34 0 -64.5 8.5t-52.5 21.5l36 73q34 -17 64 -17q53 0 53 31q0 19 -22 26t-70 7l11 97q-117 11 -192 78l79 89q72 -56 156 -56q41 0 64.5 12.5t23.5 37.5q0 18 -9.5 29t-35.5 21.5t-81 25.5
q-80 21 -122 58.5t-42 103.5q0 73 60.5 119t169.5 46q126 0 215 -65l-63 -93q-73 45 -147 45q-39 0 -57.5 -10t-18.5 -31q0 -14 9.5 -23.5t36 -19.5t79.5 -25q57 -16 93.5 -35t56.5 -51t20 -82q0 -74 -57 -119z" />
    <glyph glyph-name="Scaron" unicode="&#x160;" 
d="M534 88q-34 -50 -97.5 -77.5t-150.5 -27.5q-172 0 -274 100l83 92q79 -70 187 -70q52 0 83.5 22.5t31.5 62.5q0 38 -26.5 59.5t-98.5 43.5q-122 37 -173 87t-51 129q0 62 34.5 108t94 70t132.5 24q153 0 248 -90l-77 -89q-35 29 -75.5 43.5t-83.5 14.5q-48 0 -75.5 -17.5
t-27.5 -50.5q0 -22 12.5 -37t41.5 -28t87 -31q106 -32 157.5 -82.5t51.5 -140.5q0 -65 -34 -115zM499 881l-141 -130h-96l-142 130l57 65l133 -85l133 85z" />
    <glyph glyph-name="scaron" unicode="&#x161;" 
d="M347.5 108.5q23.5 12.5 23.5 37.5q0 18 -9.5 29t-35.5 21.5t-81 25.5q-80 21 -122 58.5t-42 103.5q0 73 60.5 119t169.5 46q126 0 215 -65l-63 -93q-73 45 -147 45q-39 0 -57.5 -10t-18.5 -31q0 -14 9.5 -23.5t36 -19.5t79.5 -25q57 -16 93.5 -35t56.5 -51t20 -82
q0 -56 -34 -96t-91 -60t-126 -20q-74 0 -134 21t-102 59l79 89q72 -56 156 -56q41 0 64.5 12.5zM502 751l-141 -140h-96l-142 140l57 64l133 -94l133 94z" />
    <glyph glyph-name="uni0162" unicode="&#x162;" 
d="M347 0v-48q51 -6 77 -32t26 -67q0 -51 -41 -83t-108 -32q-34 0 -65 8.5t-53 21.5l37 73q34 -17 64 -17q52 0 52 31q0 19 -22 26t-70 7l12 112h-39v567h-195v126h561l-16 -126h-186v-567h-34z" />
    <glyph glyph-name="uni0163" unicode="&#x163;" 
d="M467 -80q26 -26 26 -67q0 -51 -41 -83t-108 -32q-34 0 -64.5 8.5t-52.5 21.5l36 73q34 -17 64 -17q53 0 53 31q0 19 -22 26t-70 7l11 104q-65 17 -97.5 65.5t-32.5 123.5v241h-111v109h111v115l158 19v-134h171l-16 -109h-155v-241q0 -39 18 -56t58 -17q50 0 93 24
l52 -101q-69 -44 -158 -48v-31q51 -6 77 -32z" />
    <glyph glyph-name="Tcaron" unicode="&#x164;" 
d="M381 0h-164v567h-195v126h561l-16 -126h-186v-567zM488 881l-141 -130h-96l-142 130l57 65l133 -85l133 85z" />
    <glyph glyph-name="tcaron" unicode="&#x165;" 
d="M374 -17q-102 0 -153.5 52t-51.5 146v241h-111v109h111v115l158 19v-134h171l-16 -109h-155v-241q0 -39 18 -56t58 -17q50 0 93 24l52 -101q-75 -48 -174 -48zM536 815l-78 -232l-98 16l37 233z" />
    <glyph glyph-name="Tbar" unicode="&#x166;" 
d="M381 567v-161h117v-92h-117v-314h-164v314h-116v92h116v161h-195v126h561l-16 -126h-186z" />
    <glyph glyph-name="tbar" unicode="&#x167;" 
d="M548 31q-75 -48 -174 -48q-102 0 -153.5 52t-51.5 146v81h-99v99h99v61h-111v109h111v115l158 19v-134h171l-16 -109h-155v-61h154v-99h-154v-81q0 -39 18 -56t58 -17q50 0 93 24z" />
    <glyph glyph-name="Utilde" unicode="&#x168;" 
d="M558 232q0 -72 -29 -128.5t-87 -88.5t-142 -32q-126 0 -192 67t-66 182v461h165v-400q0 -67 7 -107t27.5 -60.5t58.5 -20.5t58.5 20.5t27.5 60.5t7 107v400h165v-461zM318 767q-16 7 -35 20q-25 18 -41 18q-18 0 -29 -10t-24 -34l-79 38q21 53 53.5 85.5t75.5 32.5
q23 0 39.5 -7t35.5 -20q13 -9 22 -13.5t19 -4.5q16 0 27 10t25 33l79 -38q-21 -53 -54.5 -85t-75.5 -32q-22 0 -38 7z" />
    <glyph glyph-name="utilde" unicode="&#x169;" 
d="M228 168q0 -37 13.5 -52.5t40.5 -15.5q24 0 49 15.5t41 42.5v373h158v-531h-138l-7 62q-26 -38 -70 -58.5t-93 -20.5q-75 0 -113.5 43.5t-38.5 121.5v383h158v-363zM318 642q-16 7 -35 20q-25 18 -41 18q-18 0 -29 -10t-24 -34l-79 38q21 53 53.5 85.5t75.5 32.5
q23 0 39.5 -7t35.5 -20q13 -9 22 -13.5t19 -4.5q16 0 27 10t25 33l79 -38q-21 -53 -54 -85t-76 -32q-22 0 -38 7z" />
    <glyph glyph-name="Umacron" unicode="&#x16a;" 
d="M558 232q0 -72 -29 -128.5t-87 -88.5t-142 -32q-126 0 -192 67t-66 182v461h165v-400q0 -67 7 -107t27.5 -60.5t58.5 -20.5t58.5 20.5t27.5 60.5t7 107v400h165v-461zM147 782v110h305v-110h-305z" />
    <glyph glyph-name="umacron" unicode="&#x16b;" 
d="M228 168q0 -37 13.5 -52.5t40.5 -15.5q24 0 49 15.5t41 42.5v373h158v-531h-138l-7 62q-26 -38 -70 -58.5t-93 -20.5q-75 0 -113.5 43.5t-38.5 121.5v383h158v-363zM147 658v109h306v-109h-306z" />
    <glyph glyph-name="Ubreve" unicode="&#x16c;" 
d="M558 232q0 -72 -29 -128.5t-87 -88.5t-142 -32q-126 0 -192 67t-66 182v461h165v-400q0 -67 7 -107t27.5 -60.5t58.5 -20.5t58.5 20.5t27.5 60.5t7 107v400h165v-461zM179 793.5q-43 42.5 -51 111.5l87 16q10 -31 30 -45.5t55 -14.5t55 14.5t30 45.5l87 -16
q-7 -68 -50.5 -111t-121.5 -43t-121 42.5z" />
    <glyph glyph-name="ubreve" unicode="&#x16d;" 
d="M228 168q0 -37 13.5 -52.5t40.5 -15.5q24 0 49 15.5t41 42.5v373h158v-531h-138l-7 62q-26 -38 -70 -58.5t-93 -20.5q-75 0 -113.5 43.5t-38.5 121.5v383h158v-363zM178.5 662.5q-43.5 50.5 -50.5 123.5l87 15q9 -38 30.5 -59.5t54.5 -21.5t54.5 21.5t30.5 59.5l87 -15
q-7 -72 -51 -123t-121 -51q-78 0 -121.5 50.5z" />
    <glyph glyph-name="Uring" unicode="&#x16e;" 
d="M558 232q0 -72 -29 -128.5t-87 -88.5t-142 -32q-126 0 -192 67t-66 182v461h165v-400q0 -67 7 -107t27.5 -60.5t58.5 -20.5t58.5 20.5t27.5 60.5t7 107v400h165v-461zM400 952q38 -38 38 -93t-38.5 -94t-100.5 -39t-100 39t-38 94t38 93t100 38q63 0 101 -38zM267 895.5
q-12 -12.5 -12 -36.5q0 -25 12 -38t32 -13q21 0 33 13t12 38q0 24 -12 36.5t-33 12.5q-20 0 -32 -12.5z" />
    <glyph glyph-name="uring" unicode="&#x16f;" 
d="M228 168q0 -37 13.5 -52.5t40.5 -15.5q24 0 49 15.5t41 42.5v373h158v-531h-138l-7 62q-26 -38 -70 -58.5t-93 -20.5q-75 0 -113.5 43.5t-38.5 121.5v383h158v-363zM400 827q38 -38 38 -93t-38.5 -94t-100.5 -39q-41 0 -72.5 18t-48.5 48.5t-17 66.5q0 54 38 92.5
t100 38.5q63 0 101 -38zM267 770.5q-12 -12.5 -12 -36.5q0 -25 12 -38t32 -13q21 0 33 13t12 38q0 24 -12 36.5t-33 12.5q-20 0 -32 -12.5z" />
    <glyph glyph-name="Uhungarumlaut" unicode="&#x170;" 
d="M558 232q0 -72 -29 -128.5t-87 -88.5t-142 -32q-126 0 -192 67t-66 182v461h165v-400q0 -67 7 -107t27.5 -60.5t58.5 -20.5t58.5 20.5t27.5 60.5t7 107v400h165v-461zM258 982l107 -49l-124 -183l-83 36zM422 982l106 -51l-125 -182l-81 39z" />
    <glyph glyph-name="uhungarumlaut" unicode="&#x171;" 
d="M228 168q0 -37 13.5 -52.5t40.5 -15.5q24 0 49 15.5t41 42.5v373h158v-531h-138l-7 62q-26 -38 -70 -58.5t-93 -20.5q-75 0 -113.5 43.5t-38.5 121.5v383h158v-363zM259 857l107 -49l-124 -183l-82 36zM423 857l106 -51l-125 -182l-81 39z" />
    <glyph glyph-name="Uogonek" unicode="&#x172;" 
d="M558 693v-461q0 -88 -43 -151t-125 -86q-56 -22 -78 -47.5t-22 -57.5q0 -24 15.5 -36.5t42.5 -12.5q24 0 54 7l-12 -93q-29 -8 -59 -8q-66 0 -108.5 32.5t-42.5 90.5q0 74 61 117q-98 15 -148.5 80t-50.5 165v461h165v-400q0 -67 7 -107t27.5 -60.5t58.5 -20.5t58.5 20.5
t27.5 60.5t7 107v400h165z" />
    <glyph glyph-name="uogonek" unicode="&#x173;" 
d="M530 531v-531q-65 -22 -90 -49t-25 -61q0 -24 15.5 -36.5t42.5 -12.5q24 0 54 7l-12 -93q-29 -8 -59 -8q-66 0 -108.5 32.5t-42.5 90.5q0 46 22.5 78t64.5 56l-7 58q-26 -38 -70 -58.5t-93 -20.5q-75 0 -113.5 43.5t-38.5 121.5v383h158v-363q0 -37 13.5 -52.5
t40.5 -15.5q24 0 49 15.5t41 42.5v373h158z" />
    <glyph glyph-name="Wcircumflex" unicode="&#x174;" 
d="M522 0h-170l-51 496l-56 -496h-173l-75 693h153l24 -553l57 473h142l53 -473l34 553h143zM489 813l-56 -65l-133 85l-133 -85l-57 65l142 130h96z" />
    <glyph glyph-name="wcircumflex" unicode="&#x175;" 
d="M347 0l-46 357l-48 -357h-171l-79 531h145l35 -432l55 365h134l49 -365l36 432h140l-76 -531h-174zM110 676l142 139h96l141 -139l-56 -65l-133 94l-133 -94z" />
    <glyph glyph-name="Ycircumflex" unicode="&#x176;" 
d="M382 0h-164v259l-226 434h180l131 -298l132 298h173l-226 -433v-260zM489 813l-56 -65l-133 85l-133 -85l-57 65l142 130h96z" />
    <glyph glyph-name="ycircumflex" unicode="&#x177;" 
d="M395 0q-36 -107 -107 -161.5t-190 -61.5l-18 112q76 10 112.5 34t58.5 77h-55l-168 531h167l103 -430l112 430h162zM110 676l142 139h96l141 -139l-56 -65l-133 94l-133 -94z" />
    <glyph glyph-name="Ydieresis" unicode="&#x178;" 
d="M382 0h-164v259l-226 434h180l131 -298l132 298h173l-226 -433v-260zM126 785q-24 23 -24 57t24 57t58 23q35 0 58.5 -23t23.5 -57t-23.5 -57t-58.5 -23q-34 0 -58 23zM357.5 785.5q-24.5 23.5 -24.5 56.5t24.5 56.5t58.5 23.5q35 0 58.5 -23t23.5 -57t-23.5 -57
t-58.5 -23q-34 0 -58.5 23.5z" />
    <glyph glyph-name="Zacute" unicode="&#x179;" 
d="M562 131l-17 -131h-506v123l329 443h-293v127h479v-124l-322 -438h330zM450 835l-237 -84l-38 80l216 122z" />
    <glyph glyph-name="zacute" unicode="&#x17a;" 
d="M524 120l-15 -120h-437v112l264 300h-242v119h425v-111l-260 -300h265zM445 716l-237 -94l-43 81l218 132z" />
    <glyph glyph-name="Zdotaccent" unicode="&#x17b;" 
d="M562 131l-17 -131h-506v123l329 443h-293v127h479v-124l-322 -438h330zM379.5 908.5q26.5 -25.5 26.5 -63.5t-26.5 -63.5t-66.5 -25.5q-42 0 -68 25t-26 64q0 38 26.5 63.5t67.5 25.5q40 0 66.5 -25.5z" />
    <glyph glyph-name="zdotaccent" unicode="&#x17c;" 
d="M524 120l-15 -120h-437v112l264 300h-242v119h425v-111l-260 -300h265zM374 783.5q26 -25.5 26 -63.5q0 -39 -26 -64t-67 -25t-67.5 25.5t-26.5 63.5t26.5 63.5t67.5 25.5t67 -25.5z" />
    <glyph glyph-name="Zcaron" unicode="&#x17d;" 
d="M562 131l-17 -131h-506v123l329 443h-293v127h479v-124l-322 -438h330zM502 881l-141 -130h-96l-142 130l57 65l133 -85l133 85z" />
    <glyph glyph-name="zcaron" unicode="&#x17e;" 
d="M524 120l-15 -120h-437v112l264 300h-242v119h425v-111l-260 -300h265zM496 751l-141 -140h-96l-142 140l57 64l133 -94l133 94z" />
    <glyph glyph-name="florin" unicode="&#x192;" 
d="M533 725l-44 -103q-45 20 -87 20q-40 0 -55 -15.5t-15 -54.5v-41h126l-18 -110h-108v-358q0 -84 -26 -139t-71 -88t-114 -58l-55 115q39 18 61.5 35.5t35 46.5t12.5 75v371h-82v110h82v47q0 80 52.5 130.5t150.5 50.5q82 0 155 -34z" />
    <glyph glyph-name="AEacute" unicode="&#x1fc;" 
d="M173 153l-28 -153h-157l175 693h402l-17 -111h-182l33 -176h157v-110h-137l36 -185h148v-111h-265l-25 153h-140zM296 265l-51 318l-54 -318h105zM488 835l-237 -84l-38 80l216 122z" />
    <glyph glyph-name="aeacute" unicode="&#x1fd;" 
d="M559.5 480.5q40.5 -68.5 40.5 -204.5q0 -26 -3 -50h-241q13 -139 97 -139q23 0 43.5 8t43.5 24l60 -79q-67 -57 -156 -57q-106 0 -160 84q-30 -45 -61 -64.5t-80 -19.5q-69 0 -109 47t-40 122q0 86 50 130.5t152 44.5h41v23q0 101 -89 101q-24 0 -43.5 -5.5t-49.5 -19.5
l-36 87q42 19 75 27.5t70 8.5q52 0 85 -18.5t53 -52.5q19 33 50.5 52t75.5 19q91 0 131.5 -68.5zM375.5 419q-15.5 -31 -19.5 -107h125q-1 74 -13 106t-46 32q-31 0 -46.5 -31zM216 242q-48 0 -69 -21t-21 -62q0 -35 12 -54t34 -19q20 0 37 15t33 47q-5 50 -5 94h-21z
M440 716l-237 -94l-43 81l218 132z" />
    <glyph glyph-name="Oslashacute" unicode="&#x1fe;" 
d="M546 535.5q31 -80.5 31 -188.5q0 -169 -71.5 -266.5t-205.5 -97.5q-25 0 -52 5l-28 -97l-111 33l34 110q-58 45 -89 125.5t-31 187.5q0 169 71.5 266.5t205.5 97.5q24 0 51 -5l29 97l111 -33l-34 -110q58 -44 89 -124.5zM212 535.5q-27 -58.5 -27 -188.5q0 -123 23 -181
l124 424q-20 4 -32 4q-61 0 -88 -58.5zM388.5 158.5q26.5 58.5 26.5 188.5q0 124 -22 179l-123 -422q12 -4 30 -4q62 0 88.5 58.5zM437 835l-237 -84l-38 80l216 122z" />
    <glyph glyph-name="oslashacute" unicode="&#x1ff;" 
d="M529 412.5q29 -62.5 29 -145.5q0 -134 -68 -209t-190 -75l-31 1l-37 -121l-116 34l40 122q-55 34 -84.5 97t-29.5 150q0 85 30.5 148.5t89 99t138.5 35.5q11 0 31 -2l39 116l114 -34l-39 -119q55 -35 84 -97.5zM225.5 395q-23.5 -40 -23.5 -129q0 -94 18 -131l96 299
q-5 1 -16 1q-51 0 -74.5 -40zM374.5 136q23.5 40 23.5 131q0 92 -17 126l-95 -297h14q51 0 74.5 40zM438 716l-237 -94l-43 81l218 132z" />
    <glyph glyph-name="Scommaaccent" unicode="&#x218;" 
d="M534 88q-34 -50 -97.5 -77.5t-150.5 -27.5q-172 0 -274 100l83 92q79 -70 187 -70q52 0 83.5 22.5t31.5 62.5q0 38 -26.5 59.5t-98.5 43.5q-122 37 -173 87t-51 129q0 62 34.5 108t94 70t132.5 24q153 0 248 -90l-77 -89q-35 29 -75.5 43.5t-83.5 14.5q-48 0 -75.5 -17.5
t-27.5 -50.5q0 -22 12.5 -37t41.5 -28t87 -31q106 -32 157.5 -82.5t51.5 -140.5q0 -65 -34 -115zM357 -87q22 -22 22 -56q0 -36 -23 -82l-49 -97h-80l27 115q-32 27 -32 64q0 33 22.5 55.5t56.5 22.5t56 -22z" />
    <glyph glyph-name="scommaaccent" unicode="&#x219;" 
d="M347.5 108.5q23.5 12.5 23.5 37.5q0 18 -9.5 29t-35.5 21.5t-81 25.5q-80 21 -122 58.5t-42 103.5q0 73 60.5 119t169.5 46q126 0 215 -65l-63 -93q-73 45 -147 45q-39 0 -57.5 -10t-18.5 -31q0 -14 9.5 -23.5t36 -19.5t79.5 -25q57 -16 93.5 -35t56.5 -51t20 -82
q0 -56 -34 -96t-91 -60t-126 -20q-74 0 -134 21t-102 59l79 89q72 -56 156 -56q41 0 64.5 12.5zM357 -87q22 -22 22 -56q0 -36 -23 -82l-49 -97h-80l27 115q-32 27 -32 64q0 33 22.5 55.5t56.5 22.5t56 -22z" />
    <glyph glyph-name="uni021A" unicode="&#x21a;" 
d="M381 0h-164v567h-195v126h561l-16 -126h-186v-567zM356 -87q22 -22 22 -56q0 -36 -23 -82l-49 -97h-80l27 115q-32 27 -32 64q0 33 22.5 55.5t56.5 22.5t56 -22z" />
    <glyph glyph-name="uni021B" unicode="&#x21b;" 
d="M374 -17q-102 0 -153.5 52t-51.5 146v241h-111v109h111v115l158 19v-134h171l-16 -109h-155v-241q0 -39 18 -56t58 -17q50 0 93 24l52 -101q-75 -48 -174 -48zM416 -87q22 -22 22 -56q0 -36 -23 -82l-49 -97h-80l27 115q-32 27 -32 64q0 33 22.5 55.5t56.5 22.5t56 -22z
" />
    <glyph glyph-name="uni0237" unicode="&#x237;" 
d="M472 154q0 -113 -42 -187.5t-124.5 -119t-211.5 -69.5l-24 121q85 19 137.5 47t79.5 75.5t27 122.5v279h-190v108h348v-377z" />
    <glyph glyph-name="uni02B9" unicode="&#x2b9;" 
d="M270 693h142l-118 -279h-105z" />
    <glyph glyph-name="uni02BA" unicode="&#x2ba;" 
d="M173 693h142l-118 -279h-105zM366 693h142l-118 -279h-105z" />
    <glyph glyph-name="uni02BC" unicode="&#x2bc;" 
d="M346.5 736.5q22.5 -21.5 22.5 -52.5q0 -29 -28 -80l-36 -67h-79l18 79q-32 27 -32 64q0 33 22.5 55.5t56.5 22.5q33 0 55.5 -21.5z" />
    <glyph glyph-name="circumflex" unicode="&#x2c6;" 
d="M110 676l142 139h96l141 -139l-56 -65l-133 94l-133 -94z" />
    <glyph glyph-name="caron" unicode="&#x2c7;" 
d="M489 751l-141 -140h-96l-142 140l57 64l133 -94l133 94z" />
    <glyph glyph-name="uni02C9" unicode="&#x2c9;" 
d="M147 671v110h306v-110h-306z" />
    <glyph glyph-name="breve" unicode="&#x2d8;" 
d="M178.5 662.5q-43.5 50.5 -50.5 123.5l87 15q9 -38 30.5 -59.5t54.5 -21.5t54.5 21.5t30.5 59.5l87 -15q-7 -72 -51 -123t-121 -51q-78 0 -121.5 50.5z" />
    <glyph glyph-name="dotaccent" unicode="&#x2d9;" 
d="M367 783.5q26 -25.5 26 -63.5q0 -39 -26 -64t-67 -25t-67.5 25.5t-26.5 63.5t26.5 63.5t67.5 25.5t67 -25.5z" />
    <glyph glyph-name="ring" unicode="&#x2da;" 
d="M400 827q38 -38 38 -93t-38.5 -94t-100.5 -39q-41 0 -72.5 18t-48.5 48.5t-17 66.5q0 54 38 92.5t100 38.5q63 0 101 -38zM267 770.5q-12 -12.5 -12 -36.5q0 -25 12 -38t32 -13q21 0 33 13t12 38q0 24 -12 36.5t-33 12.5q-20 0 -32 -12.5z" />
    <glyph glyph-name="ogonek" unicode="&#x2db;" 
d="M395 0q-65 -22 -90 -49t-25 -61q0 -24 15.5 -36.5t42.5 -12.5q24 0 54 7l-12 -93q-29 -8 -59 -8q-66 0 -108.5 32.5t-42.5 90.5q0 50 26 83.5t70 55.5t111 42z" />
    <glyph glyph-name="tilde" unicode="&#x2dc;" 
d="M318 642q-16 7 -35 20q-25 18 -41 18q-18 0 -29 -10t-24 -34l-79 38q21 53 53.5 85.5t75.5 32.5q23 0 39.5 -7t35.5 -20q13 -9 22 -13.5t19 -4.5q16 0 27 10t25 33l79 -38q-21 -53 -54 -85t-76 -32q-22 0 -38 7z" />
    <glyph glyph-name="hungarumlaut" unicode="&#x2dd;" 
d="M214 857l107 -49l-124 -183l-82 36zM378 857l106 -51l-125 -182l-81 39z" />
    <glyph glyph-name="gravecomb" unicode="&#x300;" horiz-adv-x="0" 
d="M-158 703l-43 -81l-236 94l61 119z" />
    <glyph glyph-name="acutecomb" unicode="&#x301;" horiz-adv-x="0" 
d="M-162 716l-237 -94l-43 81l218 132z" />
    <glyph glyph-name="uni0302" unicode="&#x302;" horiz-adv-x="0" 
d="M-110 651l-56 -65l-133 85l-133 -85l-57 65l142 130h96z" />
    <glyph glyph-name="tildecomb" unicode="&#x303;" horiz-adv-x="0" 
d="M-282 642q-16 7 -35 20q-25 18 -41 18q-18 0 -29 -10t-24 -34l-79 38q21 53 53.5 85.5t75.5 32.5q23 0 39.5 -7t35.5 -20q13 -9 22 -13.5t19 -4.5q16 0 27 10t25 33l79 -38q-21 -53 -54 -85t-76 -32q-22 0 -38 7z" />
    <glyph glyph-name="uni0304" unicode="&#x304;" horiz-adv-x="0" 
d="M-453 621v109h306v-109h-306z" />
    <glyph glyph-name="uni0306" unicode="&#x306;" horiz-adv-x="0" 
d="M-421 631.5q-43 42.5 -51 111.5l87 16q10 -31 30 -45.5t55 -14.5t55 14.5t30 45.5l87 -16q-7 -69 -50 -111.5t-122 -42.5q-78 0 -121 42.5z" />
    <glyph glyph-name="uni0307" unicode="&#x307;" horiz-adv-x="0" 
d="M-232 746.5q26 -25.5 26 -64.5q0 -38 -26 -63.5t-67 -25.5t-67.5 25.5t-26.5 63.5q0 39 26.5 64.5t67.5 25.5t67 -25.5z" />
    <glyph glyph-name="uni0308" unicode="&#x308;" horiz-adv-x="0" 
d="M-474 660.5q-24 23.5 -24 57.5q0 33 24 56t58 23q35 0 59 -23t24 -56q0 -34 -24 -57.5t-59 -23.5q-34 0 -58 23.5zM-242.5 660.5q-24.5 23.5 -24.5 57.5q0 33 24.5 56t58.5 23t58 -23t24 -56q0 -34 -23.5 -57.5t-58.5 -23.5q-34 0 -58.5 23.5z" />
    <glyph glyph-name="uni030A" unicode="&#x30a;" horiz-adv-x="0" 
d="M-199 790q38 -38 38 -93t-38.5 -94t-100.5 -39q-41 0 -72.5 18t-48.5 48.5t-17 66.5q0 54 38 92.5t100 38.5q63 0 101 -38zM-332 733.5q-12 -12.5 -12 -36.5q0 -25 12 -38t32 -13q21 0 33 13t12 38q0 24 -12 36.5t-33 12.5q-20 0 -32 -12.5z" />
    <glyph glyph-name="uni030B" unicode="&#x30b;" horiz-adv-x="0" 
d="M-385 820l107 -49l-124 -183l-82 36zM-221 820l106 -51l-125 -182l-81 39z" />
    <glyph glyph-name="uni030C" unicode="&#x30c;" horiz-adv-x="0" 
d="M-110 719l-141 -130h-96l-142 130l57 65l133 -85l133 85z" />
    <glyph glyph-name="uni030F" unicode="&#x30f;" horiz-adv-x="0" 
d="M-359 624l-125 182l106 51l100 -194zM-197 625l-124 183l107 49l99 -196z" />
    <glyph glyph-name="uni0313" unicode="&#x313;" horiz-adv-x="0" 
d="M-363 770q22 -22 22 -56q0 -36 -23 -82l-49 -97h-80l27 115q-32 27 -32 64q0 33 22.5 55.5t56.5 22.5t56 -22z" />
    <glyph glyph-name="uni0314" unicode="&#x314;" horiz-adv-x="0" 
d="M-360 589q-22 22 -22 55q0 34 23 82l49 98h80l-27 -115q32 -27 32 -65q0 -33 -22.5 -55t-56.5 -22t-56 22z" />
    <glyph glyph-name="uni0326" unicode="&#x326;" horiz-adv-x="0" 
d="M-243 -87q22 -22 22 -56q0 -36 -23 -82l-49 -97h-80l27 115q-32 27 -32 64q0 33 22.5 55.5t56.5 22.5t56 -22z" />
    <glyph glyph-name="uni0327" unicode="&#x327;" horiz-adv-x="0" 
d="M-302 -119q-22 7 -70 7l14 128h88v-64q51 -6 77 -32t26 -67q0 -51 -41 -83t-108 -32q-34 0 -64.5 8.5t-52.5 21.5l36 73q34 -17 64 -17q53 0 53 31q0 19 -22 26z" />
    <glyph glyph-name="uni0335" unicode="&#x335;" horiz-adv-x="0" 
d="M-497 282v93h395v-93h-395z" />
    <glyph glyph-name="uni0336" unicode="&#x336;" horiz-adv-x="0" 
d="M-634 282v93h668v-93h-668z" />
    <glyph glyph-name="uni0342" unicode="&#x342;" horiz-adv-x="0" 
d="M-282 642q-16 7 -35 20q-25 18 -41 18q-18 0 -29 -10t-24 -34l-79 38q21 53 53.5 85.5t75.5 32.5q23 0 39.5 -7t35.5 -20q13 -9 22 -13.5t19 -4.5q16 0 27 10t25 33l79 -38q-21 -53 -54 -85t-76 -32q-22 0 -38 7z" />
    <glyph glyph-name="uni0345" unicode="&#x345;" horiz-adv-x="0" 
d="M-387 -169q-34 35 -34 93v34h112v-31q0 -40 40 -40q25 0 51 15l41 -69q-48 -37 -112 -37t-98 35z" />
    <glyph glyph-name="uni0370" unicode="&#x370;" 
d="M259 294v-294h-163v693h163v-267h246v-132h-246z" />
    <glyph glyph-name="uni0371" unicode="&#x371;" 
d="M533 210h-264v-210h-158v382q0 75 -22 143l146 20q16 -33 25 -78t9 -122v-14h264v-121z" />
    <glyph glyph-name="uni0372" unicode="&#x372;" 
d="M584 693v-293h-121v169h-81v-569h-164v569h-80v-169h-121v293h567z" />
    <glyph glyph-name="uni0373" unicode="&#x373;" 
d="M569 413h-192v-618l-158 -17v635h-82q-64 0 -102 -11l-24 111q43 18 121 18h437v-118z" />
    <glyph glyph-name="uni0374" unicode="&#x374;" 
d="M270 693h142l-118 -279h-105z" />
    <glyph glyph-name="uni0375" unicode="&#x375;" 
d="M331 -133h-142l118 279h105z" />
    <glyph glyph-name="uni0376" unicode="&#x376;" 
d="M52 693h150v-235q0 -98 -7 -168.5t-21 -146.5l193 550h181v-693h-150v230q0 164 27 319l-189 -549h-184v693z" />
    <glyph glyph-name="uni0377" unicode="&#x377;" 
d="M535 127.5q9 -17.5 34 -29.5l-46 -115q-70 15 -106.5 53.5t-36.5 107.5q0 36 11.5 121t21.5 131l-186 -396h-161v531h149v-171q0 -121 -27 -223l180 394h158v-352q0 -34 9 -51.5z" />
    <glyph glyph-name="uni037A" unicode="&#x37a;" 
d="M213 -169q-34 35 -34 93v34h112v-31q0 -40 40 -40q25 0 51 15l41 -69q-48 -37 -112 -37t-98 35z" />
    <glyph glyph-name="uni037B" unicode="&#x37b;" 
d="M148 2q-50 19 -88 51l70 100q32 -22 60 -33.5t58 -11.5q56 0 87 35.5t31 118.5q0 89 -25 127t-83 38q-34 0 -64.5 -10t-65.5 -30l-68 95q48 34 96.5 50.5t111.5 16.5q129 0 196 -76t67 -211q0 -83 -33 -146t-94.5 -98t-146.5 -35q-59 0 -109 19z" />
    <glyph glyph-name="uni037C" unicode="&#x37c;" 
d="M410 119.5q28 11.5 60 33.5l70 -100q-38 -32 -88 -51t-109 -19q-85 0 -146.5 35t-94.5 98t-33 146t34 148t96.5 102t146.5 37q59 0 106 -16.5t88 -50.5l-68 -95q-58 40 -119 40q-119 0 -119 -165q0 -83 31 -118.5t87 -35.5q30 0 58 11.5zM427.5 320.5
q22.5 -22.5 22.5 -56.5q0 -33 -22.5 -55.5t-58.5 -22.5t-59.5 22.5t-23.5 55.5q0 34 23.5 56.5t59.5 22.5t58.5 -22.5z" />
    <glyph glyph-name="uni037D" unicode="&#x37d;" 
d="M148 2q-50 19 -88 51l70 100q32 -22 60 -33.5t58 -11.5q56 0 87 35.5t31 118.5q0 89 -25 127t-83 38q-34 0 -64.5 -10t-65.5 -30l-68 95q48 34 96.5 50.5t111.5 16.5q129 0 196 -76t67 -211q0 -83 -33 -146t-94.5 -98t-146.5 -35q-59 0 -109 19zM288.5 320.5
q22.5 -22.5 22.5 -56.5q0 -33 -22.5 -55.5t-58.5 -22.5t-59.5 22.5t-23.5 55.5q0 34 23.5 56.5t59.5 22.5t58.5 -22.5z" />
    <glyph glyph-name="uni037E" unicode="&#x37e;" 
d="M376 508q30 -31 30 -74t-30 -73.5t-74 -30.5t-74.5 30.5t-30.5 73.5t30.5 74t74.5 31t74 -31zM376.5 167q29.5 -30 29.5 -74q0 -26 -9 -54t-32 -79l-69 -158h-103l49 205q-21 14 -33 37t-12 50q0 44 30 73.5t75 29.5t74.5 -30z" />
    <glyph glyph-name="uni037F" unicode="&#x37f;" 
d="M527 249q0 -122 -73.5 -193t-205.5 -71q-64 0 -112.5 16t-96.5 49l62 101q36 -24 67 -34t71 -10q55 0 89.5 35.5t34.5 105.5v325h-212v120h376v-444z" />
    <glyph glyph-name="tonos" unicode="&#x384;" 
d="M396 815l-88 -228l-103 17l38 243z" />
    <glyph glyph-name="dieresistonos" unicode="&#x385;" 
d="M411 930l-71 -190l-88 14l29 200zM225.5 736q23.5 -23 23.5 -56t-23.5 -56t-56.5 -23q-35 0 -58 23t-23 56q0 34 23 56.5t58 22.5q33 0 56.5 -23zM489 736.5q23 -22.5 23 -56.5q0 -33 -23.5 -56t-57.5 -23t-57 23t-23 56q0 34 23 56.5t57 22.5q35 0 58 -22.5z" />
    <glyph glyph-name="Alphatonos" unicode="&#x386;" 
d="M197 150l-36 -150h-172l212 693h199l212 -693h-176l-36 150h-203zM373 268l-75 307l-75 -307h150zM164 693l-87 -226l-101 18l38 239z" />
    <glyph glyph-name="anoteleia" unicode="&#x387;" 
d="M221.5 420.5q32.5 32.5 78.5 32.5t78.5 -32.5t32.5 -78.5t-32.5 -78.5t-78.5 -32.5t-78.5 32.5t-32.5 78.5t32.5 78.5z" />
    <glyph glyph-name="Epsilontonos" unicode="&#x388;" 
d="M257 409h240v-114h-240v-177h289v-118h-453v693h453l-17 -117h-272v-167zM67 693l-87 -226l-101 18l38 239z" />
    <glyph glyph-name="Etatonos" unicode="&#x389;" 
d="M384 292h-168v-292h-164v693h164v-266h168v266h164v-693h-164v292zM26 693l-87 -226l-101 18l38 239z" />
    <glyph glyph-name="Iotatonos" unicode="&#x38a;" 
d="M525 573h-143v-452h143v-121h-450v121h143v452h-143v120h450v-120zM49 693l-87 -226l-101 18l38 239z" />
    <glyph glyph-name="Omicrontonos" unicode="&#x38c;" 
d="M505.5 80.5q-71.5 -97.5 -205.5 -97.5q-135 0 -206 96.5t-71 267.5q0 169 71.5 266.5t205.5 97.5q135 0 206 -96.5t71 -267.5q0 -169 -71.5 -266.5zM383.5 533q-25.5 58 -83.5 58t-83.5 -58t-25.5 -186t25.5 -186t83.5 -58q59 0 84 58t25 186t-25.5 186zM78 693l-87 -226
l-101 18l38 239z" />
    <glyph glyph-name="Upsilontonos" unicode="&#x38e;" 
d="M382 0h-164v259l-226 434h180l131 -298l132 298h173l-226 -433v-260zM-24 693l-87 -226l-101 18l38 239z" />
    <glyph glyph-name="Omegatonos" unicode="&#x38f;" 
d="M217 538q-26 -52 -26 -161q0 -114 19 -175t63 -87v-115h-239v117h116q-127 66 -127 260q0 97 32.5 172.5t95 118.5t149.5 43t149.5 -43t95 -118.5t32.5 -172.5q0 -192 -128 -260h117v-117h-239v115q45 25 63.5 86t18.5 176q0 109 -26 161t-83 52t-83 -52zM81 693
l-87 -226l-101 18l38 239z" />
    <glyph glyph-name="iotadieresistonos" unicode="&#x390;" 
d="M38 416l13 115h308v-365q0 -58 69 -58q36 0 75 16l38 -106q-66 -35 -154 -35q-86 0 -136 48t-50 129v256h-163zM401 930l-71 -190l-88 14l29 200zM215.5 736q23.5 -23 23.5 -56t-23.5 -56t-56.5 -23q-35 0 -58 23t-23 56q0 34 23 56.5t58 22.5q33 0 56.5 -23zM479 736.5
q23 -22.5 23 -56.5q0 -33 -23.5 -56t-57.5 -23t-57 23t-23 56q0 34 23 56.5t57 22.5q35 0 58 -22.5z" />
    <glyph glyph-name="Alpha" unicode="&#x391;" 
d="M197 150l-36 -150h-172l212 693h199l212 -693h-176l-36 150h-203zM373 268l-75 307l-75 -307h150z" />
    <glyph glyph-name="Beta" unicode="&#x392;" 
d="M492.5 46q-78.5 -46 -206.5 -46h-230v693h220q119 0 192 -41.5t73 -135.5q0 -59 -36 -97t-91 -52q66 -11 111.5 -49.5t45.5 -114.5q0 -111 -78.5 -157zM350.5 558.5q-25.5 18.5 -80.5 18.5h-50v-161h56q52 0 76 19.5t24 63.5q0 41 -25.5 59.5zM372.5 284
q-29.5 22 -85.5 22h-67v-186h60q57 0 89.5 19t32.5 71t-29.5 74z" />
    <glyph glyph-name="Gamma" unicode="&#x393;" 
d="M543 564h-289v-564h-164v693h469z" />
    <glyph glyph-name="uni0394" unicode="&#x394;" 
d="M612 0h-623l212 693h199zM192 133h212l-106 442z" />
    <glyph glyph-name="Epsilon" unicode="&#x395;" 
d="M257 409h240v-114h-240v-177h289v-118h-453v693h453l-17 -117h-272v-167z" />
    <glyph glyph-name="Zeta" unicode="&#x396;" 
d="M562 131l-17 -131h-506v123l329 443h-293v127h479v-124l-322 -438h330z" />
    <glyph glyph-name="Eta" unicode="&#x397;" 
d="M384 292h-168v-292h-164v693h164v-266h168v266h164v-693h-164v292z" />
    <glyph glyph-name="Theta" unicode="&#x398;" 
d="M505.5 80.5q-71.5 -97.5 -205.5 -97.5q-135 0 -206 96.5t-71 267.5q0 169 71.5 266.5t205.5 97.5q135 0 206 -96.5t71 -267.5q0 -169 -71.5 -266.5zM387 533q-28 58 -87 58t-87 -57.5t-28 -186.5q0 -128 28 -186t87 -58q60 0 87.5 57.5t27.5 186.5q0 128 -28 186z
M224 307v91h151v-91h-151z" />
    <glyph glyph-name="Iota" unicode="&#x399;" 
d="M525 573h-143v-452h143v-121h-450v121h143v452h-143v120h450v-120z" />
    <glyph glyph-name="Kappa" unicode="&#x39a;" 
d="M59 0v693h164v-693h-164zM417 693h172l-196 -311l215 -382h-189l-191 370z" />
    <glyph glyph-name="Lambda" unicode="&#x39b;" 
d="M607 0h-176l-132 571l-133 -571h-173l208 693h199z" />
    <glyph glyph-name="Mu" unicode="&#x39c;" 
d="M583 0h-144l-8 297q-1 22 -1 60q0 50 3 97.5t7 99.5l-78 -436h-124l-85 436q11 -115 11 -207l-1 -53l-5 -294h-141l39 693h169l77 -448l73 448h169z" />
    <glyph glyph-name="Nu" unicode="&#x39d;" 
d="M167 557q10 -76 17 -146.5t7 -149.5v-261h-139v693h205l176 -555q-24 154 -24 290v265h139v-693h-199z" />
    <glyph glyph-name="Xi" unicode="&#x39e;" 
d="M528 563h-475v130h494zM484 291h-372v122h372v-122zM547 0h-494v135h494v-135z" />
    <glyph glyph-name="Omicron" unicode="&#x39f;" 
d="M505.5 80.5q-71.5 -97.5 -205.5 -97.5q-135 0 -206 96.5t-71 267.5q0 169 71.5 266.5t205.5 97.5q135 0 206 -96.5t71 -267.5q0 -169 -71.5 -266.5zM383.5 533q-25.5 58 -83.5 58t-83.5 -58t-25.5 -186t25.5 -186t83.5 -58q59 0 84 58t25 186t-25.5 186z" />
    <glyph glyph-name="Pi" unicode="&#x3a0;" 
d="M384 567h-168v-567h-164v693h496v-693h-164v567z" />
    <glyph glyph-name="Rho" unicode="&#x3a1;" 
d="M502.5 290.5q-73.5 -59.5 -200.5 -59.5h-76v-231h-164v693h218q144 0 220 -56.5t76 -169.5q0 -117 -73.5 -176.5zM283 576h-57v-227h65q56 0 86.5 29t30.5 89q0 109 -125 109z" />
    <glyph glyph-name="Sigma" unicode="&#x3a3;" 
d="M234 122h312v-122h-491v119l212 222l-212 233v119h491v-119h-310l187 -198v-65z" />
    <glyph glyph-name="Tau" unicode="&#x3a4;" 
d="M381 0h-164v567h-195v126h561l-16 -126h-186v-567z" />
    <glyph glyph-name="Upsilon" unicode="&#x3a5;" 
d="M382 0h-164v259l-226 434h180l131 -298l132 298h173l-226 -433v-260z" />
    <glyph glyph-name="Phi" unicode="&#x3a6;" 
d="M357 614q120 -5 179.5 -68t59.5 -196t-60 -199.5t-179 -70.5v-80h-114v80q-122 4 -180.5 70t-58.5 200t58 196.5t181 67.5v79h114v-79zM173 482.5q-23 -42.5 -23 -132.5q0 -92 22 -135.5t81 -44.5v356q-57 -1 -80 -43.5zM347 170q59 1 81 45t22 135q0 90 -23 132.5
t-80 43.5v-356z" />
    <glyph glyph-name="Chi" unicode="&#x3a7;" 
d="M196 693l104 -222l107 222h173l-184 -318l201 -375h-177l-122 264l-120 -264h-174l196 368l-181 325h177z" />
    <glyph glyph-name="Psi" unicode="&#x3a8;" 
d="M228 183q-217 30 -217 240v270h139v-274q0 -62 17.5 -91.5t71.5 -39.5v405h124v-404q51 11 69 40t18 90v274h139v-270q0 -100 -54 -161.5t-163 -77.5v-184h-144v183z" />
    <glyph glyph-name="uni03A9" unicode="&#x3a9;" 
d="M217 538q-26 -52 -26 -161q0 -114 19 -175t63 -87v-115h-239v117h116q-127 66 -127 260q0 97 32.5 172.5t95 118.5t149.5 43t149.5 -43t95 -118.5t32.5 -172.5q0 -192 -128 -260h117v-117h-239v115q45 25 63.5 86t18.5 176q0 109 -26 161t-83 52t-83 -52z" />
    <glyph glyph-name="Iotadieresis" unicode="&#x3aa;" 
d="M525 573h-143v-452h143v-121h-450v121h143v452h-143v120h450v-120zM126 785q-24 23 -24 57t24 57t58 23q35 0 58.5 -23t23.5 -57t-23.5 -57t-58.5 -23q-34 0 -58 23zM357.5 785.5q-24.5 23.5 -24.5 56.5t24.5 56.5t58.5 23.5q35 0 58.5 -23t23.5 -57t-23.5 -57t-58.5 -23
q-34 0 -58.5 23.5z" />
    <glyph glyph-name="Upsilondieresis" unicode="&#x3ab;" 
d="M382 0h-164v259l-226 434h180l131 -298l132 298h173l-226 -433v-260zM126 785q-24 23 -24 57t24 57t58 23q35 0 58.5 -23t23.5 -57t-23.5 -57t-58.5 -23q-34 0 -58 23zM357.5 785.5q-24.5 23.5 -24.5 56.5t24.5 56.5t58.5 23.5q35 0 58.5 -23t23.5 -57t-23.5 -57
t-58.5 -23q-34 0 -58.5 23.5z" />
    <glyph glyph-name="alphatonos" unicode="&#x3ac;" 
d="M356.5 511q39.5 -38 47.5 -107l25 127h142l-84 -248l27 -116q7 -33 20 -46.5t37 -18.5l-51 -119q-48 8 -73.5 27.5t-35.5 66.5l-11 53q-19 -75 -59.5 -111t-105.5 -36q-93 0 -146.5 74t-53.5 206q0 82 26 147t74 102t111 37q71 0 110.5 -38zM195 263q0 -165 69 -165
q68 0 97 168q-14 89 -37 128t-56 39q-73 0 -73 -170zM421 815l-88 -228l-103 17l38 243z" />
    <glyph glyph-name="epsilontonos" unicode="&#x3ad;" 
d="M320 223q-48 0 -70 -15.5t-22 -45.5q0 -32 27.5 -49t81.5 -17q95 0 166 40l71 -88q-98 -65 -249 -65q-118 0 -189.5 43t-71.5 123q0 59 34 91.5t107 42.5q-121 27 -121 122q0 67 64.5 105.5t166.5 38.5q137 0 227 -56l-69 -85q-56 31 -137 31q-92 0 -92 -56q0 -27 21 -43
t62 -16h107l-15 -101h-99zM456 815l-88 -228l-103 17l38 243z" />
    <glyph glyph-name="etatonos" unicode="&#x3ae;" 
d="M498 507.5q38 -41.5 38 -117.5v-595l-158 -17v566q0 50 -10.5 69t-40.5 19q-24 0 -46.5 -16.5t-46.5 -48.5v-367h-158v382q0 37 -6 75.5t-15 67.5l146 20q14 -25 23 -76q71 80 166 80q70 0 108 -41.5zM450 815l-88 -228l-103 17l38 243z" />
    <glyph glyph-name="iotatonos" unicode="&#x3af;" 
d="M38 416l13 115h308v-365q0 -58 69 -58q36 0 75 16l38 -106q-66 -35 -154 -35q-86 0 -136 48t-50 129v256h-163zM431 815l-88 -228l-103 17l38 243z" />
    <glyph glyph-name="upsilondieresistonos" unicode="&#x3b0;" 
d="M551 256q0 -91 -36 -152.5t-97 -91t-136 -29.5q-98 0 -157.5 51t-59.5 146v351h158v-342q0 -48 17.5 -69t52.5 -21q46 0 73 40.5t27 125.5q0 124 -27 266h156q29 -143 29 -275zM411 930l-71 -190l-88 14l29 200zM225.5 736q23.5 -23 23.5 -56t-23.5 -56t-56.5 -23
q-35 0 -58 23t-23 56q0 34 23 56.5t58 22.5q33 0 56.5 -23zM489 736.5q23 -22.5 23 -56.5q0 -33 -23.5 -56t-57.5 -23t-57 23t-23 56q0 34 23 56.5t57 22.5q35 0 58 -22.5z" />
    <glyph glyph-name="alpha" unicode="&#x3b1;" 
d="M356.5 511q39.5 -38 47.5 -107l25 127h142l-84 -248l27 -116q7 -33 20 -46.5t37 -18.5l-51 -119q-48 8 -73.5 27.5t-35.5 66.5l-11 53q-19 -75 -59.5 -111t-105.5 -36q-93 0 -146.5 74t-53.5 206q0 82 26 147t74 102t111 37q71 0 110.5 -38zM195 263q0 -165 69 -165
q68 0 97 168q-14 89 -37 128t-56 39q-73 0 -73 -170z" />
    <glyph glyph-name="beta" unicode="&#x3b2;" 
d="M511.5 354.5q54.5 -43.5 54.5 -144.5q0 -67 -27 -119.5t-77.5 -81.5t-118.5 -29q-67 0 -131 42v-222l-159 -27v776q0 67 29.5 115.5t82 74t119.5 25.5q70 0 122 -26t79.5 -71t27.5 -100q0 -64 -32.5 -104t-100.5 -57q77 -8 131.5 -51.5zM375 128q29 30 29 92
q0 58 -32.5 88.5t-84.5 30.5h-33l10 112h20q32 0 50.5 26.5t18.5 74.5q0 47 -18 71t-51 24q-34 0 -53 -22.5t-19 -66.5v-435q41 -25 87 -25q47 0 76 30z" />
    <glyph glyph-name="gamma" unicode="&#x3b3;" 
d="M585 508l-210 -482q-27 -61 -27 -133q0 -40 10 -100l-124 -13q-28 59 -28 121q0 52 20 112q-40 159 -92 276t-119 201l156 57q45 -70 80 -174.5t51 -233.5l125 406z" />
    <glyph glyph-name="delta" unicode="&#x3b4;" 
d="M510 696l-75 -86q-50 36 -110 36q-34 0 -51 -12t-17 -32q0 -16 7 -27.5t27 -22.5t59 -27q75 -31 120 -66.5t67 -86.5t22 -124q0 -79 -31.5 -139t-90 -93t-136.5 -33q-80 0 -138.5 32t-89 90.5t-30.5 136.5q0 77 39.5 134t114.5 89q-56 29 -77 60.5t-21 79.5
q0 69 56.5 111.5t163.5 42.5q112 0 191 -63zM222 351.5q-17 -41.5 -17 -102.5q0 -150 95 -150q48 0 72 36.5t24 113.5q0 51 -9.5 82t-33.5 53t-69 42q-45 -33 -62 -74.5z" />
    <glyph glyph-name="epsilon" unicode="&#x3b5;" 
d="M320 223q-48 0 -70 -15.5t-22 -45.5q0 -32 27.5 -49t81.5 -17q95 0 166 40l71 -88q-98 -65 -249 -65q-118 0 -189.5 43t-71.5 123q0 59 34 91.5t107 42.5q-121 27 -121 122q0 67 64.5 105.5t166.5 38.5q137 0 227 -56l-69 -85q-56 31 -137 31q-92 0 -92 -56q0 -27 21 -43
t62 -16h107l-15 -101h-99z" />
    <glyph glyph-name="zeta" unicode="&#x3b6;" 
d="M565 647q-160 -115 -233 -209t-73 -179q0 -39 11.5 -62.5t38.5 -40.5t80 -37q68 -26 102.5 -45t50 -42.5t15.5 -59.5q0 -63 -44.5 -110.5t-137.5 -87.5l-58 95q41 22 59.5 40t18.5 44q0 15 -13.5 25t-54.5 25q-87 33 -135.5 62t-73 73.5t-24.5 114.5q0 104 75.5 198
t245.5 190q-19 -9 -61.5 -11.5t-120.5 -2.5h-105l17 115h403z" />
    <glyph glyph-name="eta" unicode="&#x3b7;" 
d="M498 507.5q38 -41.5 38 -117.5v-595l-158 -17v566q0 50 -10.5 69t-40.5 19q-24 0 -46.5 -16.5t-46.5 -48.5v-367h-158v382q0 37 -6 75.5t-15 67.5l146 20q14 -25 23 -76q71 80 166 80q70 0 108 -41.5z" />
    <glyph glyph-name="theta" unicode="&#x3b8;" 
d="M491 660.5q67 -98.5 67 -287.5t-67.5 -289.5t-190.5 -100.5t-190.5 99.5t-67.5 289.5q0 187 67.5 287t190.5 100q124 0 191 -98.5zM223.5 594.5q-25.5 -50.5 -28.5 -177.5h210q-2 87 -14.5 136.5t-34.5 70.5t-56 21q-51 0 -76.5 -50.5zM194 324q4 -127 29.5 -177
t76.5 -50q34 0 56 20.5t34.5 70.5t14.5 136h-211z" />
    <glyph glyph-name="iota" unicode="&#x3b9;" 
d="M38 416l13 115h308v-365q0 -58 69 -58q36 0 75 16l38 -106q-66 -35 -154 -35q-86 0 -136 48t-50 129v256h-163z" />
    <glyph glyph-name="kappa" unicode="&#x3ba;" 
d="M560 489l-163 -202l110 -133q18 -22 35 -32t40 -15l-53 -125q-54 5 -87.5 29t-71.5 82l-134 185l195 269zM224 442.5q8 -51.5 8 -105.5v-337h-158v348q0 103 -22 183h152q12 -37 20 -88.5z" />
    <glyph glyph-name="lambda" unicode="&#x3bb;" 
d="M255 531q-15 40 -34 62.5t-51 35.5t-86 21l19 108q101 -13 160.5 -43.5t95 -90.5t61.5 -168q40 -165 78.5 -260.5t91.5 -162.5l-156 -50q-52 77 -83.5 174.5t-56.5 261.5l-111 -436l-156 37l176 511h52z" />
    <glyph glyph-name="uni03BC" unicode="&#x3bc;" 
d="M524 188q0 -89 12 -188l-142 -14q-9 33 -13 77q-23 -37 -52 -57.5t-63 -20.5q-28 0 -46.5 10t-39.5 38q19 -40 27.5 -71.5t8.5 -76.5v-90l-149 -16v752h157v-302q0 -49 3 -74.5t15 -39t37 -13.5t47.5 15t39.5 42v372h158v-343z" />
    <glyph glyph-name="nu" unicode="&#x3bd;" 
d="M121 308.5q-49 135.5 -106 189.5l145 50q46 -56 82.5 -166t57.5 -263l123 430l152 -35l-192 -514h-179q-34 173 -83 308.5z" />
    <glyph glyph-name="xi" unicode="&#x3be;" 
d="M572 697l-68 -84q-56 35 -126 35q-47 0 -76 -20t-29 -57q0 -45 28.5 -64t86.5 -19h97l-14 -104h-87q-70 0 -108 -28.5t-38 -82.5q0 -40 15 -63.5t49.5 -41t113.5 -47.5q52 -19 82.5 -37.5t46.5 -45t16 -67.5q0 -62 -44.5 -109.5t-138.5 -87.5l-57 95q76 40 76 90
q0 18 -12.5 28.5t-48.5 24.5q-104 41 -154.5 69t-78.5 70t-28 111q0 78 48.5 123t123.5 59q-62 21 -97.5 55.5t-35.5 90.5q0 50 33 88.5t89.5 59.5t122.5 21q125 0 213 -62z" />
    <glyph glyph-name="omicron" unicode="&#x3bf;" 
d="M489.5 472.5q68.5 -76.5 68.5 -205.5q0 -134 -68 -209t-190 -75t-190 74.5t-68 208.5q0 85 30.5 148.5t89 99t138.5 35.5q121 0 189.5 -76.5zM228 392.5q-23 -39.5 -23 -126.5q0 -88 23 -127.5t72 -39.5t72 40t23 128q0 86 -23 125.5t-72 39.5t-72 -39.5z" />
    <glyph glyph-name="pi" unicode="&#x3c0;" 
d="M507 417v-238q0 -32 10 -50.5t34 -29.5l-46 -116q-151 26 -151 175v259h-107v-417h-151v415q-37 -3 -66 -14l-26 108q55 22 111 22h462v-114h-70z" />
    <glyph glyph-name="rho" unicode="&#x3c1;" 
d="M496 477.5q62 -71.5 62 -210.5q0 -81 -24.5 -145.5t-71.5 -101.5t-110 -37q-79 0 -126 56v-244l-158 -17v497q0 133 61 203.5t182 70.5q123 0 185 -71.5zM244.5 390.5q-18.5 -42.5 -18.5 -142.5v-102q31 -47 78 -47q45 0 68 40.5t23 125.5q0 93 -21 130.5t-65 37.5
q-46 0 -64.5 -42.5z" />
    <glyph glyph-name="uni03C2" unicode="&#x3c2;" 
d="M552 483l-68 -94q-51 38 -115 38q-58 0 -92 -36.5t-34 -111.5q0 -45 13 -71.5t42 -45.5t86 -41q53 -20 84.5 -38.5t48.5 -45t17 -66.5q0 -62 -44.5 -109.5t-137.5 -87.5l-59 97q39 20 58.5 38t19.5 43q0 22 -18.5 35t-75.5 35q-66 25 -108 54.5t-66.5 78.5t-24.5 124
q0 76 35 137.5t98.5 97t145.5 35.5q113 0 195 -66z" />
    <glyph glyph-name="sigma" unicode="&#x3c3;" 
d="M578 426l-99 8q79 -63 79 -180q0 -125 -68.5 -198t-189.5 -73q-122 0 -190 73.5t-68 206.5q0 128 69 202.5t196 74.5q99 0 271 -11v-103zM371 138q23 39 23 125q0 72 -12.5 112t-35.5 61q-50 -1 -80.5 -15.5t-45.5 -52t-15 -105.5q0 -86 23 -125t72 -39q48 0 71 39z" />
    <glyph glyph-name="tau" unicode="&#x3c4;" 
d="M353 415v-249q0 -58 67 -58q38 0 77 16l37 -106q-64 -35 -153 -35q-87 0 -136.5 48t-49.5 129v255h-47q-64 0 -103 -11l-24 109q44 18 122 18h393v-116h-183z" />
    <glyph glyph-name="upsilon" unicode="&#x3c5;" 
d="M551 256q0 -91 -36 -152.5t-97 -91t-136 -29.5q-98 0 -157.5 51t-59.5 146v351h158v-342q0 -48 17.5 -69t52.5 -21q46 0 73 40.5t27 125.5q0 124 -27 266h156q29 -143 29 -275z" />
    <glyph glyph-name="phi" unicode="&#x3c6;" 
d="M539 479.5q43 -69.5 43 -209.5q0 -256 -227 -283v-197l-121 -12v209q-216 24 -216 253q0 144 53 291h129q-25 -78 -37 -143t-12 -126q0 -84 18 -125t65 -53v240q0 112 40 168.5t126 56.5q96 0 139 -69.5zM362.5 421.5q-7.5 -27.5 -7.5 -98.5v-239q49 11 69.5 54.5
t20.5 130.5q0 70 -3.5 107.5t-14 55t-29.5 17.5q-28 0 -35.5 -27.5z" />
    <glyph glyph-name="chi" unicode="&#x3c7;" 
d="M584 -193l-156 -43l-130 310l-126 -310l-157 36l200 374q-33 98 -84 180.5t-114 139.5l152 54q46 -58 79.5 -124.5t54.5 -153.5l112 277l149 -33l-182 -341z" />
    <glyph glyph-name="psi" unicode="&#x3c8;" 
d="M361 91q36 8 54 25.5t25 50.5t7 93q0 62 -5.5 122t-16.5 149h127q28 -133 28 -275q0 -125 -50.5 -187.5t-168.5 -81.5v-192l-121 -17v209q-115 12 -163.5 67.5t-48.5 148.5v328h132v-326q0 -52 19 -79.5t61 -34.5v440h121v-440z" />
    <glyph glyph-name="omega" unicode="&#x3c9;" 
d="M571.5 380q14.5 -71 14.5 -138q0 -128 -39 -193.5t-114 -65.5q-54 0 -86.5 24t-47.5 80q-16 -55 -47 -79.5t-81 -24.5q-77 0 -117 65t-40 194q0 118 53 289h124q-19 -78 -28.5 -145t-9.5 -135q0 -82 10 -117t38 -35q18 0 26.5 13t12 41t3.5 81v108l115 20v-123
q0 -56 3.5 -85t12.5 -42t28 -13q28 0 36.5 33.5t8.5 118.5q0 66 -9.5 133t-28.5 147h124q24 -80 38.5 -151z" />
    <glyph glyph-name="iotadieresis" unicode="&#x3ca;" 
d="M38 416l13 115h308v-365q0 -58 69 -58q36 0 75 16l38 -106q-66 -35 -154 -35q-86 0 -136 48t-50 129v256h-163zM116 660.5q-24 23.5 -24 57.5q0 33 24 56t58 23q35 0 59 -23t24 -56q0 -34 -24 -57.5t-59 -23.5q-34 0 -58 23.5zM347.5 660.5q-24.5 23.5 -24.5 57.5
q0 33 24.5 56t58.5 23t58 -23t24 -56q0 -34 -23.5 -57.5t-58.5 -23.5q-34 0 -58.5 23.5z" />
    <glyph glyph-name="upsilondieresis" unicode="&#x3cb;" 
d="M551 256q0 -91 -36 -152.5t-97 -91t-136 -29.5q-98 0 -157.5 51t-59.5 146v351h158v-342q0 -48 17.5 -69t52.5 -21q46 0 73 40.5t27 125.5q0 124 -27 266h156q29 -143 29 -275zM126 660.5q-24 23.5 -24 57.5q0 33 24 56t58 23q35 0 59 -23t24 -56q0 -34 -24 -57.5
t-59 -23.5q-34 0 -58 23.5zM357.5 660.5q-24.5 23.5 -24.5 57.5q0 33 24.5 56t58.5 23t58 -23t24 -56q0 -34 -23.5 -57.5t-58.5 -23.5q-34 0 -58.5 23.5z" />
    <glyph glyph-name="omicrontonos" unicode="&#x3cc;" 
d="M489.5 472.5q68.5 -76.5 68.5 -205.5q0 -134 -68 -209t-190 -75t-190 74.5t-68 208.5q0 85 30.5 148.5t89 99t138.5 35.5q121 0 189.5 -76.5zM228 392.5q-23 -39.5 -23 -126.5q0 -88 23 -127.5t72 -39.5t72 40t23 128q0 86 -23 125.5t-72 39.5t-72 -39.5zM441 815
l-88 -228l-103 17l38 243z" />
    <glyph glyph-name="upsilontonos" unicode="&#x3cd;" 
d="M551 256q0 -91 -36 -152.5t-97 -91t-136 -29.5q-98 0 -157.5 51t-59.5 146v351h158v-342q0 -48 17.5 -69t52.5 -21q46 0 73 40.5t27 125.5q0 124 -27 266h156q29 -143 29 -275zM441 815l-88 -228l-103 17l38 243z" />
    <glyph glyph-name="omegatonos" unicode="&#x3ce;" 
d="M571.5 380q14.5 -71 14.5 -138q0 -128 -39 -193.5t-114 -65.5q-54 0 -86.5 24t-47.5 80q-16 -55 -47 -79.5t-81 -24.5q-77 0 -117 65t-40 194q0 118 53 289h124q-19 -78 -28.5 -145t-9.5 -135q0 -82 10 -117t38 -35q18 0 26.5 13t12 41t3.5 81v108l115 20v-123
q0 -56 3.5 -85t12.5 -42t28 -13q28 0 36.5 33.5t8.5 118.5q0 66 -9.5 133t-28.5 147h124q24 -80 38.5 -151zM441 815l-88 -228l-103 17l38 243z" />
    <glyph glyph-name="uni03CF" unicode="&#x3cf;" 
d="M50 693h164v-693h-164v693zM529.5 -175.5q-52.5 -51.5 -148.5 -51.5q-43 0 -74.5 11.5t-60.5 33.5l60 92q18 -9 30 -13t30 -4q26 0 39 15.5t13 51.5v40h-28l-171 370l169 323h168l-171 -311l127 -256h70v-152q0 -98 -52.5 -149.5z" />
    <glyph glyph-name="uni03D0" unicode="&#x3d0;" 
d="M505 378q43 -53 43 -147q0 -71 -31 -127.5t-87.5 -88.5t-131.5 -32q-245 0 -245 361q0 127 37.5 221t101.5 144t142 50q84 0 126.5 -42t42.5 -102q0 -135 -176 -193q33 9 60 9q75 0 118 -53zM253.5 597.5q-30.5 -50.5 -38.5 -162.5l22 8q68 26 96.5 64.5t28.5 93.5
q0 23 -10.5 35t-28.5 12q-39 0 -69.5 -50.5zM362 131q23 33 23 95q0 64 -20 98t-60 34q-16 0 -32.5 -4.5t-40.5 -14.5l-20 -8q1 -126 22 -179.5t65 -53.5q40 0 63 33z" />
    <glyph glyph-name="uni03D1" unicode="&#x3d1;" 
d="M552 402h-34q-1 -143 -25.5 -235t-80 -138t-146.5 -46q-83 0 -136 49.5t-53 147.5v173h151v-182q0 -38 12.5 -56t33.5 -18q29 0 47 28t26.5 94t8.5 181v1h-76q-107 -1 -162.5 45.5t-55.5 125.5q0 50 26 93t72.5 68.5t104.5 25.5q104 0 165.5 -65.5t79.5 -185.5h42v-106z
M351 507q-8 75 -29.5 106.5t-56.5 31.5q-29 0 -45.5 -19t-16.5 -50q0 -33 21 -51t56 -18h71z" />
    <glyph glyph-name="uni03D2" unicode="&#x3d2;" 
d="M555 592q-15 0 -25.5 -10t-21.5 -36l-125 -286v-260h-165v259l-205 434h179l110 -298l75 197q24 64 58.5 91.5t98.5 27.5q38 0 66 -10l-24 -112q-10 3 -21 3z" />
    <glyph glyph-name="uni03D3" unicode="&#x3d3;" 
d="M555 592q-15 0 -25.5 -10t-21.5 -36l-125 -286v-260h-165v259l-205 434h179l110 -298l75 197q24 64 58.5 91.5t98.5 27.5q38 0 66 -10l-24 -112q-10 3 -21 3zM-5 693l-87 -226l-101 18l38 239z" />
    <glyph glyph-name="uni03D4" unicode="&#x3d4;" 
d="M555 592q-15 0 -25.5 -10t-21.5 -36l-125 -286v-260h-165v259l-205 434h179l110 -298l75 197q24 64 58.5 91.5t98.5 27.5q38 0 66 -10l-24 -112q-10 3 -21 3zM129 785q-24 23 -24 57t24 57t58 23q35 0 58.5 -23t23.5 -57t-23.5 -57t-58.5 -23q-34 0 -58 23zM360.5 785.5
q-24.5 23.5 -24.5 56.5t24.5 56.5t58.5 23.5q35 0 58.5 -23t23.5 -57t-23.5 -57t-58.5 -23q-34 0 -58.5 23.5z" />
    <glyph glyph-name="uni03D5" unicode="&#x3d5;" 
d="M551.5 130q-28.5 -57 -75 -87.5t-102.5 -37.5l-1 -210l-148 -17l1 227q-56 6 -102.5 36t-75.5 86t-29 137t28.5 138t75.5 88t102 37v215l148 16v-231q56 -6 103 -36t75.5 -86t28.5 -137t-28.5 -138zM443 268q0 155 -82 167v-337q82 11 82 170zM178 145q22 -41 60 -47v336
q-40 -5 -61 -45.5t-21 -124.5q0 -78 22 -119z" />
    <glyph glyph-name="uni03D6" unicode="&#x3d6;" 
d="M579 425h-61q47 -96 47 -193q0 -120 -40.5 -184.5t-111.5 -64.5q-44 0 -73 24.5t-44 79.5q-16 -54 -43.5 -79t-67.5 -25q-73 0 -114.5 64t-41.5 185q0 93 46 192q-31 -1 -63 -11l-27 95q28 12 59.5 17t96.5 6h438v-106zM416 425l-238 -1q-15 -87 -15 -173
q0 -81 9.5 -116.5t33.5 -35.5q22 0 30 29.5t8 105.5v88l108 17v-100q0 -56 3 -85t11.5 -42t25.5 -13q24 0 32 34.5t8 117.5q0 80 -16 174z" />
    <glyph glyph-name="uni03D7" unicode="&#x3d7;" 
d="M555 89h1v-126q0 -94 -51 -142.5t-142 -48.5q-45 0 -82 12t-63 31l53 93q22 -10 39.5 -15t42.5 -5q30 0 47 15.5t17 46.5l1 86q-51 32 -51 102q0 66 46 221l-234 -372l-93 35l1 331q0 35 -9.5 52.5t-33.5 29.5l45 114q68 -14 105.5 -53t37.5 -102q0 -40 -13 -93t-35 -128
l234 372l95 -35l-1 -331q0 -41 9.5 -58.5t34.5 -30.5z" />
    <glyph glyph-name="uni03D8" unicode="&#x3d8;" 
d="M526 113q-51 -93 -148 -120v-203h-156v203q-97 26 -148 118t-51 236q0 169 71.5 266.5t205.5 97.5q135 0 206 -96.5t71 -267.5q0 -141 -51 -234zM384 161q25 58 25 186t-25.5 186t-83.5 58t-83.5 -58t-25.5 -186t25.5 -186t83.5 -58q59 0 84 58z" />
    <glyph glyph-name="uni03D9" unicode="&#x3d9;" 
d="M510.5 85.5q-47.5 -71.5 -133.5 -93.5v-197l-154 -17v214q-87 22 -134 93t-47 181q0 85 30.5 148.5t89 99t138.5 35.5q121 0 189.5 -76.5t68.5 -205.5q0 -110 -47.5 -181.5zM372 139q23 40 23 128q0 86 -23 125.5t-72 39.5t-72 -39.5t-23 -126.5q0 -88 23 -127.5
t72 -39.5t72 40z" />
    <glyph glyph-name="uni03DA" unicode="&#x3da;" 
d="M314 -129q41 23 59.5 39.5t18.5 37.5q0 19 -26 35t-104 49q-71 29 -118 66.5t-74 97.5t-27 149q0 101 42 180t123.5 123.5t195.5 44.5h181l-18 -131h-144q-109 0 -160.5 -56.5t-51.5 -156.5q0 -60 12.5 -96t47 -63.5t102.5 -55.5q62 -25 99 -47t57.5 -51.5t20.5 -70.5
q0 -59 -42.5 -104t-134.5 -84z" />
    <glyph glyph-name="uni03DB" unicode="&#x3db;" 
d="M535 575q0 -61 -19.5 -95t-54 -51t-101.5 -37q-55 -15 -83.5 -29.5t-42 -38.5t-13.5 -65q0 -38 12.5 -62.5t42.5 -43t88 -38.5q85 -29 121.5 -61t36.5 -89q0 -60 -43.5 -104t-137.5 -84l-59 94q41 22 59 39.5t18 41.5q0 19 -24.5 33.5t-94.5 39.5q-64 23 -103 50
t-59.5 69.5t-20.5 108.5q0 99 46.5 150.5t140.5 81.5l48 14q45 13 65.5 21.5t32 23.5t11.5 42z" />
    <glyph glyph-name="uni03DC" unicode="&#x3dc;" 
d="M250 564v-168h130q39 0 67 -7t52 -22l-37 -106q-21 8 -41.5 12t-50.5 4h-120v-277h-164v693h469l-16 -129h-289z" />
    <glyph glyph-name="uni03DD" unicode="&#x3dd;" 
d="M267 392q-18 -20 -18 -57v-85h134q40 0 68 -6.5t52 -21.5l-37 -103q-42 16 -92 16h-125v-335l-158 -23v562q0 55 24 98.5t71 68.5t113 25h241l-16 -118l-206 -1q-33 0 -51 -20z" />
    <glyph glyph-name="uni03DE" unicode="&#x3de;" 
d="M555 285h-1l-215 -285h-173l216 285h-312l-25 128l215 280h173l-214 -280h310z" />
    <glyph glyph-name="uni03DF" unicode="&#x3df;" 
d="M541 379l-90 -187q-35 -72 -50.5 -116.5t-24.5 -92.5l-140 33q2 54 28 115.5t84 154.5l26 45l-276 -80l-39 107l93 193q35 71 50.5 115.5t24.5 93.5l140 -33q-2 -54 -28 -115.5t-84 -154.5l-30 -51l278 81l39 -107z" />
    <glyph glyph-name="uni03E0" unicode="&#x3e0;" 
d="M454 0l-73 235l-68 -235l-100 1l119 390l-27 87l-153 -478h-147l244 633l-26 60h124l248 -693h-141z" />
    <glyph glyph-name="uni03E1" unicode="&#x3e1;" 
d="M434.5 506.5q116.5 -160.5 116.5 -415.5q0 -71 -12.5 -158t-31.5 -154l-109 18q31 147 31 294q0 80 -12 149l-97 -240h-102l157 374q-17 35 -39 66l-201 -440h-126l245 531q-79 71 -220 138l47 93q237 -95 353.5 -255.5z" />
    <glyph glyph-name="uni03F0" unicode="&#x3f0;" 
d="M521.5 126.5q9.5 -17.5 34.5 -29.5l-46 -114q-68 14 -105.5 53t-37.5 102q0 40 13 93t35 128l-234 -372l-93 35l1 331q0 35 -9.5 52.5t-34.5 29.5l46 114q68 -14 105.5 -53t37.5 -102q0 -40 -13 -93t-35 -128l233 372l94 -38l-1 -328q0 -35 9.5 -52.5z" />
    <glyph glyph-name="uni03F1" unicode="&#x3f1;" 
d="M457 -112q36 -27 50 -78l-137 -33q-7 16 -17.5 24.5t-33 14t-69.5 12.5q-92 13 -137 61.5t-45 147.5v238q0 133 61 203.5t181 70.5q119 0 183.5 -68.5t64.5 -191.5q0 -73 -25.5 -134.5t-72.5 -97.5t-108 -36q-77 0 -126 63v-68q0 -31 11 -47.5t36.5 -26t75.5 -16.5
q72 -11 108 -38zM245.5 392q-19.5 -41 -19.5 -132v-69q16 -28 35.5 -41t44.5 -13q40 0 64 38.5t24 111.5q0 146 -82 146q-47 0 -66.5 -41z" />
    <glyph glyph-name="uni03F2" unicode="&#x3f2;" 
d="M410 119.5q28 11.5 60 33.5l70 -100q-38 -32 -88 -51t-109 -19q-85 0 -146.5 35t-94.5 98t-33 146t34 148t96.5 102t146.5 37q59 0 106 -16.5t88 -50.5l-68 -95q-58 40 -119 40q-119 0 -119 -165q0 -83 31 -118.5t87 -35.5q30 0 58 11.5z" />
    <glyph glyph-name="uni03F3" unicode="&#x3f3;" 
d="M436.5 783.5q26.5 -25.5 26.5 -63.5t-26.5 -63.5t-66.5 -25.5q-42 0 -68 25t-26 64q0 38 26.5 63.5t67.5 25.5q40 0 66.5 -25.5zM472 154q0 -113 -42 -187.5t-124.5 -119t-211.5 -69.5l-24 121q85 19 137.5 47t79.5 75.5t27 122.5v279h-190v108h348v-377z" />
    <glyph glyph-name="uni03F4" unicode="&#x3f4;" 
d="M505.5 80.5q-71.5 -97.5 -205.5 -97.5q-135 0 -206 96.5t-71 267.5q0 169 71.5 266.5t205.5 97.5q135 0 206 -96.5t71 -267.5q0 -169 -71.5 -266.5zM387 533q-28 58 -87 58t-87 -57.5t-28 -186.5q0 -128 28 -186t87 -58q60 0 87.5 57.5t27.5 186.5q0 128 -28 186z
M224 307v91h151v-91h-151z" />
    <glyph glyph-name="uni03F5" unicode="&#x3f5;" 
d="M540 482l-66 -88q-59 40 -121 40q-109 0 -124 -113h210v-100h-210q12 -123 126 -123q62 0 118 40l67 -91q-39 -30 -90.5 -47t-107.5 -17q-85 0 -147 35t-94 98t-32 146t34 148t96.5 102t144.5 37q117 0 196 -67z" />
    <glyph glyph-name="uni03F6" unicode="&#x3f6;" 
d="M418.5 513q59.5 -36 90.5 -100.5t31 -148.5q0 -83 -32.5 -146.5t-95 -99t-149.5 -35.5q-61 0 -108 17t-86 52l70 84q29 -20 56.5 -29t63.5 -9q53 0 83.5 29t37.5 94h-196v100h194q-13 113 -114 113q-34 0 -62.5 -9t-58.5 -28l-67 87q45 34 91 49.5t110 15.5
q82 0 141.5 -36z" />
    <glyph glyph-name="uni03F7" unicode="&#x3f7;" 
d="M224 581h55q143 0 220 -57t77 -170q0 -120 -71.5 -179t-203.5 -59h-77v-116h-165v693h165v-112zM224 464v-229h66q57 0 86.5 27.5t29.5 90.5q0 57 -30.5 84t-91.5 27h-60z" />
    <glyph glyph-name="uni03F8" unicode="&#x3f8;" 
d="M228 478q24 34 59 52.5t77 18.5q100 0 147 -73.5t47 -208.5q0 -82 -24.5 -146.5t-70.5 -101t-109 -36.5q-77 0 -126 55v-243l-158 -17v964l158 17v-281zM228 370v-224q17 -24 35.5 -35.5t42.5 -11.5q44 0 66.5 39.5t22.5 126.5q0 94 -20 130.5t-60 36.5q-50 0 -87 -62z
" />
    <glyph glyph-name="uni03F9" unicode="&#x3f9;" 
d="M482 692q52 -19 98 -57l-80 -97q-63 51 -138 51q-71 0 -114.5 -60t-43.5 -181t43 -179.5t118 -58.5q46 0 79 16t71 46l74 -95q-92 -94 -233 -94q-95 0 -167.5 42t-113.5 124.5t-41 198.5q0 113 42 195t116 125t166 43q72 0 124 -19z" />
    <glyph glyph-name="uni03FA" unicode="&#x3fa;" 
d="M583 0h-144l-8 297q-1 22 -1 60q0 50 3 97.5t7 99.5l-78 -436h-124l-85 436q11 -115 11 -207l-1 -53l-5 -294h-141l39 693h169l77 -448l73 448h169z" />
    <glyph glyph-name="uni03FB" unicode="&#x3fb;" 
d="M71 531h175l52 -339l62 339h172l45 -531h-140l-6 144q-2 39 -2 107q0 64 3 140l1 33l-74 -357h-132l-58 354l1 -135q0 -80 -5 -146l-27 -352l-136 -10z" />
    <glyph glyph-name="uni03FC" unicode="&#x3fc;" 
d="M249 39v-91h138v-94h-138v-59l-158 -17v76h-62v94h62v327q0 133 61 203.5t182 70.5q123 0 185 -71.5t62 -210.5q0 -81 -24.5 -145.5t-71 -101.5t-110.5 -37q-79 0 -126 56zM249 146q31 -47 78 -47q45 0 68 40.5t23 125.5q0 93 -21 130.5t-65 37.5q-46 0 -64.5 -42.5
t-18.5 -142.5v-102z" />
    <glyph glyph-name="uni03FD" unicode="&#x3fd;" 
d="M419.5 668.5q70.5 -42.5 108.5 -124t38 -196.5q0 -116 -41 -198.5t-113.5 -124.5t-167.5 -42q-141 0 -233 94l74 93q40 -29 72 -44.5t78 -15.5q75 0 118 58.5t43 179.5q0 126 -37 183.5t-115 57.5q-43 0 -80.5 -12.5t-75.5 -37.5l-68 96q53 39 108 57.5t124 18.5
q97 0 167.5 -42.5z" />
    <glyph glyph-name="uni03FE" unicode="&#x3fe;" 
d="M482 692q52 -19 98 -57l-80 -97q-63 51 -138 51q-71 0 -114.5 -60t-43.5 -181t43 -179.5t118 -58.5q46 0 79 16t71 46l74 -95q-92 -94 -233 -94q-95 0 -167.5 42t-113.5 124.5t-41 198.5q0 113 42 195t116 125t166 43q72 0 124 -19zM433.5 411q24.5 -24 24.5 -60
t-24.5 -60t-63.5 -24q-38 0 -63 24t-25 60t25 60t63 24q39 0 63.5 -24z" />
    <glyph glyph-name="uni03FF" unicode="&#x3ff;" 
d="M419.5 668.5q70.5 -42.5 108.5 -124t38 -196.5q0 -116 -41 -198.5t-113.5 -124.5t-167.5 -42q-141 0 -233 94l74 93q40 -29 72 -44.5t78 -15.5q75 0 118 58.5t43 179.5q0 126 -37 183.5t-115 57.5q-43 0 -80.5 -12.5t-75.5 -37.5l-68 96q53 39 108 57.5t124 18.5
q97 0 167.5 -42.5zM293.5 411q24.5 -24 24.5 -60t-24.5 -60t-63.5 -24q-38 0 -63 24t-25 60t25 60t63 24q39 0 63.5 -24z" />
    <glyph glyph-name="uni0400" unicode="&#x400;" 
d="M257 409h240v-114h-240v-177h289v-118h-453v693h453l-17 -117h-272v-167zM457 831l-37 -80l-238 84l60 118z" />
    <glyph glyph-name="uni0401" unicode="&#x401;" 
d="M257 409h240v-114h-240v-177h289v-118h-453v693h453l-17 -117h-272v-167zM146 785q-24 23 -24 57t24 57t58 23q35 0 58.5 -23t23.5 -57t-23.5 -57t-58.5 -23q-34 0 -58 23zM377.5 785.5q-24.5 23.5 -24.5 56.5t24.5 56.5t58.5 23.5q35 0 58.5 -23t23.5 -57t-23.5 -57
t-58.5 -23q-34 0 -58.5 23.5z" />
    <glyph glyph-name="uni0402" unicode="&#x402;" 
d="M284 426q52 44 119 44q88 0 133.5 -54.5t45.5 -163.5v-153q0 -114 -55 -175t-154 -94l-43 112q41 17 62 37.5t28.5 49t7.5 73.5v164q0 47 -15.5 67t-52.5 20q-41 0 -76 -33v-320h-153v576h-139v117h448l-17 -117h-139v-150z" />
    <glyph glyph-name="uni0403" unicode="&#x403;" 
d="M543 564h-289v-564h-164v693h469zM470 835l-237 -84l-38 80l216 122z" />
    <glyph glyph-name="uni0404" unicode="&#x404;" 
d="M480 691.5q51 -19.5 100 -57.5l-77 -89q-34 23 -65.5 35t-68.5 12q-69 0 -115 -44t-53 -131h256v-125h-256q6 -92 50 -138.5t114 -46.5q46 0 80.5 14t71.5 40l72 -88q-92 -90 -235 -90q-96 0 -168 42t-112 124t-40 199q0 113 42 195t115.5 125t166.5 43q71 0 122 -19.5z
" />
    <glyph glyph-name="uni0405" unicode="&#x405;" 
d="M534 88q-34 -50 -97.5 -77.5t-150.5 -27.5q-172 0 -274 100l83 92q79 -70 187 -70q52 0 83.5 22.5t31.5 62.5q0 38 -26.5 59.5t-98.5 43.5q-122 37 -173 87t-51 129q0 62 34.5 108t94 70t132.5 24q153 0 248 -90l-77 -89q-35 29 -75.5 43.5t-83.5 14.5q-48 0 -75.5 -17.5
t-27.5 -50.5q0 -22 12.5 -37t41.5 -28t87 -31q106 -32 157.5 -82.5t51.5 -140.5q0 -65 -34 -115z" />
    <glyph glyph-name="uni0406" unicode="&#x406;" 
d="M525 573h-143v-452h143v-121h-450v121h143v452h-143v120h450v-120z" />
    <glyph glyph-name="uni0407" unicode="&#x407;" 
d="M525 573h-143v-452h143v-121h-450v121h143v452h-143v120h450v-120zM126 785q-24 23 -24 57t24 57t58 23q35 0 58.5 -23t23.5 -57t-23.5 -57t-58.5 -23q-34 0 -58 23zM357.5 785.5q-24.5 23.5 -24.5 56.5t24.5 56.5t58.5 23.5q35 0 58.5 -23t23.5 -57t-23.5 -57t-58.5 -23
q-34 0 -58.5 23.5z" />
    <glyph glyph-name="uni0408" unicode="&#x408;" 
d="M527 249q0 -122 -73.5 -193t-205.5 -71q-64 0 -112.5 16t-96.5 49l62 101q36 -24 67 -34t71 -10q55 0 89.5 35.5t34.5 105.5v325h-212v120h376v-444z" />
    <glyph glyph-name="uni0409" unicode="&#x409;" 
d="M364 459q114 0 175 -55.5t61 -167.5q0 -118 -62 -177t-173 -59h-126v589h-57l-13 -285q-6 -114 -20 -174.5t-37 -90t-68 -59.5l-59 94q16 14 26 36.5t17.5 72t12.5 139.5l20 371h303v-234zM364 356v-250h15q45 0 65.5 33t20.5 96q0 60 -21.5 90.5t-69.5 30.5h-10z" />
    <glyph glyph-name="uni040A" unicode="&#x40a;" 
d="M370 434q109 -1 169.5 -52t60.5 -155q0 -227 -240 -227h-119v322h-84v-322h-129v693h129v-259h84v259h129v-259zM370 325v-212h5q51 1 72 27.5t21 85.5q0 53 -22 75.5t-71 23.5h-5z" />
    <glyph glyph-name="uni040B" unicode="&#x40b;" 
d="M423 576h-139v-150q52 44 119 44q88 0 133.5 -54.5t45.5 -163.5v-252h-154v266q0 47 -15.5 67t-52.5 20q-41 0 -76 -33v-320h-153v576h-139v117h448z" />
    <glyph glyph-name="uni040C" unicode="&#x40c;" 
d="M216 302v-302h-164v693h164v-273h61l153 273h159l-176 -314l195 -379h-179l-150 302h-63zM461 835l-237 -84l-38 80l216 122z" />
    <glyph glyph-name="uni040D" unicode="&#x40d;" 
d="M52 693h150v-235q0 -98 -7 -168.5t-21 -146.5l193 550h181v-693h-150v230q0 164 27 319l-189 -549h-184v693zM437 831l-37 -80l-238 84l60 118z" />
    <glyph glyph-name="uni040E" unicode="&#x40e;" 
d="M431 236q-35 -92 -74 -143.5t-97 -76.5t-154 -33l-21 112q78 7 116 26.5t62 61.5h-53l-215 510h170l146 -416l130 416h166zM189 793.5q-43 42.5 -51 111.5l87 16q10 -31 30 -45.5t55 -14.5t55 14.5t30 45.5l87 -16q-7 -68 -50.5 -111t-121.5 -43t-121 42.5z" />
    <glyph glyph-name="uni040F" unicode="&#x40f;" 
d="M548 0h-176v-174h-125l-20 174h-175v693h164v-565h168v565h164v-693z" />
    <glyph glyph-name="uni0410" unicode="&#x410;" 
d="M197 150l-36 -150h-172l212 693h199l212 -693h-176l-36 150h-203zM373 268l-75 307l-75 -307h150z" />
    <glyph glyph-name="uni0411" unicode="&#x411;" 
d="M477 568h-256v-125h70q133 0 205 -53.5t72 -161.5q0 -111 -74 -169.5t-195 -58.5h-242v693h436zM221 326v-203h61q59 0 88.5 24.5t29.5 79.5q0 50 -29.5 74.5t-90.5 24.5h-59z" />
    <glyph glyph-name="uni0412" unicode="&#x412;" 
d="M492.5 46q-78.5 -46 -206.5 -46h-230v693h220q119 0 192 -41.5t73 -135.5q0 -59 -36 -97t-91 -52q66 -11 111.5 -49.5t45.5 -114.5q0 -111 -78.5 -157zM350.5 558.5q-25.5 18.5 -80.5 18.5h-50v-161h56q52 0 76 19.5t24 63.5q0 41 -25.5 59.5zM372.5 284
q-29.5 22 -85.5 22h-67v-186h60q57 0 89.5 19t32.5 71t-29.5 74z" />
    <glyph glyph-name="uni0413" unicode="&#x413;" 
d="M543 564h-289v-564h-164v693h469z" />
    <glyph glyph-name="uni0414" unicode="&#x414;" 
d="M577 122v-296h-126l-20 173l-295 1l-20 -174h-126v296h40q23 25 38.5 62t27.5 105.5t23 185.5l20 218h386v-571h52zM374 577h-98l-7 -88q-10 -116 -23 -186t-34 -111.5t-54 -69.5h216v455z" />
    <glyph glyph-name="uni0415" unicode="&#x415;" 
d="M257 409h240v-114h-240v-177h289v-118h-453v693h453l-17 -117h-272v-167z" />
    <glyph glyph-name="uni0416" unicode="&#x416;" 
d="M220 320l-78 -320h-140l108 379l-98 314h135l76 -291h27v291h100v-291h27l76 291h135l-98 -314l108 -379h-142l-78 320h-28v-320h-100v320h-30z" />
    <glyph glyph-name="uni0417" unicode="&#x417;" 
d="M418.5 687.5q58.5 -23.5 90.5 -65.5t32 -96q0 -63 -40.5 -102.5t-116.5 -54.5q83 -8 130.5 -52t47.5 -119q0 -65 -34 -113.5t-100 -75t-158 -26.5q-84 0 -150.5 25.5t-112.5 73.5l84 84q75 -63 176 -63q61 0 96 27t35 75q0 52 -34 78t-98 26h-116l19 116h96q54 0 84.5 22
t30.5 63q0 39 -30 60.5t-84 21.5q-94 0 -162 -54l-79 83q102 90 258 90q77 0 135.5 -23.5z" />
    <glyph glyph-name="uni0418" unicode="&#x418;" 
d="M52 693h150v-235q0 -98 -7 -168.5t-21 -146.5l193 550h181v-693h-150v230q0 164 27 319l-189 -549h-184v693z" />
    <glyph glyph-name="uni0419" unicode="&#x419;" 
d="M52 693h150v-235q0 -98 -7 -168.5t-21 -146.5l193 550h181v-693h-150v230q0 164 27 319l-189 -549h-184v693zM179 783q-44 45 -51 110l87 15q7 -29 29 -45t56 -16t56 16t29 45l87 -15q-7 -65 -51 -110t-121 -45t-121 45z" />
    <glyph glyph-name="uni041A" unicode="&#x41a;" 
d="M216 302v-302h-164v693h164v-273h61l153 273h159l-176 -314l195 -379h-179l-150 302h-63z" />
    <glyph glyph-name="uni041B" unicode="&#x41b;" 
d="M548 0h-164v568h-109l-10 -111q-16 -169 -38.5 -258.5t-62 -136.5t-112.5 -82l-64 108q37 28 58 61t36.5 106.5t29.5 217.5l20 220h416v-693z" />
    <glyph glyph-name="uni041C" unicode="&#x41c;" 
d="M583 0h-144l-8 297q-1 22 -1 60q0 50 3 97.5t7 99.5l-78 -436h-124l-85 436q11 -115 11 -207l-1 -53l-5 -294h-141l39 693h169l77 -448l73 448h169z" />
    <glyph glyph-name="uni041D" unicode="&#x41d;" 
d="M384 292h-168v-292h-164v693h164v-266h168v266h164v-693h-164v292z" />
    <glyph glyph-name="uni041E" unicode="&#x41e;" 
d="M505.5 80.5q-71.5 -97.5 -205.5 -97.5q-135 0 -206 96.5t-71 267.5q0 169 71.5 266.5t205.5 97.5q135 0 206 -96.5t71 -267.5q0 -169 -71.5 -266.5zM383.5 533q-25.5 58 -83.5 58t-83.5 -58t-25.5 -186t25.5 -186t83.5 -58q59 0 84 58t25 186t-25.5 186z" />
    <glyph glyph-name="uni041F" unicode="&#x41f;" 
d="M384 567h-168v-567h-164v693h496v-693h-164v567z" />
    <glyph glyph-name="uni0420" unicode="&#x420;" 
d="M502.5 290.5q-73.5 -59.5 -200.5 -59.5h-76v-231h-164v693h218q144 0 220 -56.5t76 -169.5q0 -117 -73.5 -176.5zM283 576h-57v-227h65q56 0 86.5 29t30.5 89q0 109 -125 109z" />
    <glyph glyph-name="uni0421" unicode="&#x421;" 
d="M482 692q52 -19 98 -57l-80 -97q-63 51 -138 51q-71 0 -114.5 -60t-43.5 -181t43 -179.5t118 -58.5q46 0 79 16t71 46l74 -95q-92 -94 -233 -94q-95 0 -167.5 42t-113.5 124.5t-41 198.5q0 113 42 195t116 125t166 43q72 0 124 -19z" />
    <glyph glyph-name="uni0422" unicode="&#x422;" 
d="M381 0h-164v567h-195v126h561l-16 -126h-186v-567z" />
    <glyph glyph-name="uni0423" unicode="&#x423;" 
d="M431 236q-35 -92 -74 -143.5t-97 -76.5t-154 -33l-21 112q78 7 116 26.5t62 61.5h-53l-215 510h170l146 -416l130 416h166z" />
    <glyph glyph-name="uni0424" unicode="&#x424;" 
d="M357 656q121 -8 180 -83.5t59 -222.5q0 -146 -59.5 -225.5t-179.5 -86.5v-77h-114v77q-120 7 -179.5 86t-59.5 226t58.5 222.5t180.5 83.5v74h114v-74zM196.5 541.5q-20.5 -22.5 -30 -68.5t-9.5 -123t8.5 -123.5t29.5 -70.5t58 -28v440q-36 -4 -56.5 -26.5zM347 128
q37 4 58 28t29.5 70.5t8.5 123.5t-9 123t-30 68.5t-57 26.5v-440z" />
    <glyph glyph-name="uni0425" unicode="&#x425;" 
d="M196 693l104 -222l107 222h173l-184 -318l201 -375h-177l-122 264l-120 -264h-174l196 368l-181 325h177z" />
    <glyph glyph-name="uni0426" unicode="&#x426;" 
d="M596 122v-296h-125l-20 174h-399v693h164v-565h168v565h164v-571h48z" />
    <glyph glyph-name="uni0427" unicode="&#x427;" 
d="M548 693v-693h-164v243q-61 -45 -144 -45q-102 0 -158.5 60.5t-56.5 175.5v259h164v-254q0 -65 22.5 -92.5t74.5 -27.5q58 0 98 36v338h164z" />
    <glyph glyph-name="uni0428" unicode="&#x428;" 
d="M565 0h-530v693h130v-581h78v581h115v-581h77v581h130v-693z" />
    <glyph glyph-name="uni0429" unicode="&#x429;" 
d="M613 122v-296h-125l-20 174h-433v693h130v-581h78v581h115v-581h77v581h130v-571h48z" />
    <glyph glyph-name="uni042A" unicode="&#x42a;" 
d="M245 459h52q139 0 214.5 -55.5t75.5 -167.5q0 -118 -75 -177t-203 -59h-218v573h-94v120h248v-234zM245 346v-229h34q70 0 105.5 26.5t35.5 91.5q0 56 -31.5 83.5t-96.5 27.5h-47z" />
    <glyph glyph-name="uni042B" unicode="&#x42b;" 
d="M155 462h9q123 0 188.5 -56.5t65.5 -168.5q0 -120 -66.5 -178.5t-185.5 -58.5h-145v693h134v-231zM579 0h-134v693h134v-693zM155 351v-238h14q55 0 82.5 27.5t27.5 95.5q0 115 -101 115h-23z" />
    <glyph glyph-name="uni042C" unicode="&#x42c;" 
d="M219 459h68q139 0 214 -55.5t75 -167.5q0 -117 -74.5 -176.5t-203.5 -59.5h-243v693h164v-234zM219 343v-223h68q60 0 90 27.5t30 87.5q0 55 -30.5 81.5t-95.5 26.5h-62z" />
    <glyph glyph-name="uni042D" unicode="&#x42d;" 
d="M481.5 618.5q78.5 -92.5 78.5 -267.5q0 -121 -39.5 -203.5t-110.5 -123.5t-167 -41q-69 0 -127.5 22.5t-101.5 65.5l76 89q36 -27 71 -40t80 -13q145 0 153 190h-257v115h257q-5 96 -41.5 138t-105.5 42q-45 0 -80 -14.5t-69 -39.5l-76 86q50 42 107.5 64.5t130.5 22.5
q143 0 221.5 -92.5z" />
    <glyph glyph-name="uni042E" unicode="&#x42e;" 
d="M509 671q42 -40 60.5 -119t18.5 -205q0 -186 -44 -275t-150 -89q-101 0 -144.5 78.5t-47.5 241.5h-46v-303h-125v693h125v-280h47q6 148 51 223t140 75q73 0 115 -40zM358.5 581.5q-12.5 -21.5 -17.5 -75.5t-5 -158q0 -105 5 -159t17 -76t36 -22t36 22t17 76t5 158
q0 105 -5 159t-17 75.5t-36 21.5q-23 0 -35.5 -21.5z" />
    <glyph glyph-name="uni042F" unicode="&#x42f;" 
d="M548 0h-164v251h-85l-120 -251h-177l153 281q-59 27 -88.5 73.5t-29.5 118.5q0 110 71.5 165t212.5 55h227v-693zM324 578q-118 0 -118 -109q0 -57 30.5 -81.5t90.5 -24.5h57v215h-60z" />
    <glyph glyph-name="uni0430" unicode="&#x430;" 
d="M525 110q8 -14 27 -21l-33 -104q-48 5 -80 21.5t-50 48.5q-30 -35 -76 -53.5t-98 -18.5q-82 0 -131 46.5t-49 120.5q0 86 68 133.5t191 47.5h71v19q0 82 -105 82q-27 0 -67.5 -7.5t-78.5 -20.5l-36 105q51 19 106.5 29.5t100.5 10.5q232 0 232 -188v-208q0 -29 8 -43z
M323.5 111.5q27.5 15.5 41.5 42.5v87h-39q-128 0 -128 -80q0 -31 18.5 -48t52.5 -17q27 0 54.5 15.5z" />
    <glyph glyph-name="uni0431" unicode="&#x431;" 
d="M455.5 470.5q46.5 -30.5 73 -88.5t26.5 -137q0 -84 -32.5 -143t-90 -89t-132.5 -30q-256 0 -256 317q0 115 18.5 188.5t64.5 120t130 71.5q61 18 99 34t90 45l57 -100q-39 -27 -76 -42t-104 -36q-43 -14 -68 -31.5t-38.5 -46t-18.5 -76.5q58 74 153 74q58 0 104.5 -30.5z
M372.5 128.5q26.5 32.5 26.5 114.5q0 79 -23 112.5t-72 33.5q-57 0 -102 -63v-64q0 -83 24 -124.5t74 -41.5q46 0 72.5 32.5z" />
    <glyph glyph-name="uni0432" unicode="&#x432;" 
d="M523 249q35 -34 35 -89q0 -82 -67.5 -121t-176.5 -39h-235v526q123 23 219 23q106 0 171 -37t65 -105q0 -44 -29 -73t-82 -42q65 -9 100 -43zM237 444v-120h67q78 0 78 61q0 63 -86 63q-38 0 -59 -4zM399 173q0 32 -22 50t-64 18h-76v-137h73q89 0 89 69z" />
    <glyph glyph-name="uni0433" unicode="&#x433;" 
d="M122 0v531h417l-18 -122h-241v-409h-158z" />
    <glyph glyph-name="uni0434" unicode="&#x434;" 
d="M573 117v-291h-119l-20 174h-282l-20 -174h-119v291h42q28 27 42.5 77t23.5 167l14 170h387v-414h51zM375 117v304h-101l-4 -54q-7 -84 -17 -130.5t-25.5 -72.5t-42.5 -47h188h2z" />
    <glyph glyph-name="uni0435" unicode="&#x435;" 
d="M335 98q68 0 136 44l63 -86q-39 -34 -93 -53.5t-119 -19.5q-89 0 -151 35.5t-93.5 99t-31.5 147.5q0 80 30.5 144.5t89 102t139.5 37.5q76 0 132 -32.5t86.5 -94t30.5 -146.5q0 -33 -3 -57h-344q15 -121 128 -121zM236 411.5q-26 -31.5 -31 -96.5h195q-2 128 -95 128
q-43 0 -69 -31.5z" />
    <glyph glyph-name="uni0436" unicode="&#x436;" 
d="M246 232h-25l-85 -232h-141l122 285l-119 246h137l84 -211h27v211h108v-211h27l88 211h133l-118 -246l122 -285h-138l-89 232h-25v-232h-108v232z" />
    <glyph glyph-name="uni0437" unicode="&#x437;" 
d="M265 324q41 0 63 15.5t22 43.5t-23 42t-66 14q-41 0 -79.5 -10t-70.5 -29l-68 84q46 32 104.5 48.5t123.5 16.5q106 0 172 -39t66 -109q0 -87 -127 -120q76 -9 115 -39t39 -88q0 -82 -74 -126.5t-194 -44.5q-149 0 -242 70l68 91q42 -25 83 -36.5t89 -11.5
q53 0 79.5 17.5t26.5 48.5q0 29 -24.5 45t-72.5 16h-115l9 101h96z" />
    <glyph glyph-name="uni0438" unicode="&#x438;" 
d="M530 0h-149v169q0 125 26 224l-174 -393h-163v531h149v-171q0 -121 -27 -223l174 394h164v-531z" />
    <glyph glyph-name="uni0439" unicode="&#x439;" 
d="M530 0h-149v169q0 125 26 224l-174 -393h-163v531h149v-171q0 -121 -27 -223l174 394h164v-531zM179 657q-44 45 -51 110l87 15q7 -29 29 -45t56 -16t56 16t29 45l87 -15q-7 -65 -51 -110t-121 -45t-121 45z" />
    <glyph glyph-name="uni043A" unicode="&#x43a;" 
d="M73 531h158v-202h73l115 202h153l-147 -246l162 -285h-168l-119 224h-69v-224h-158v531z" />
    <glyph glyph-name="uni043B" unicode="&#x43b;" 
d="M528 0h-158v415h-114l-3 -65q-6 -123 -23 -191.5t-51 -107.5t-99 -71l-66 100q28 20 44 44.5t27 74.5t18 145l14 187h411v-531z" />
    <glyph glyph-name="uni043C" unicode="&#x43c;" 
d="M579 0h-140l-7 181q-2 58 -2 89q0 65 4 118h-4l-72 -304h-115l-78 304h-4q6 -55 6 -110q0 -21 -2 -65l-1 -38l-6 -175h-137l35 531h170l76 -327l66 327h175z" />
    <glyph glyph-name="uni043D" unicode="&#x43d;" 
d="M372 212h-144v-212h-158v531h158v-203h144v203h158v-531h-158v212z" />
    <glyph glyph-name="uni043E" unicode="&#x43e;" 
d="M489.5 472.5q68.5 -76.5 68.5 -205.5q0 -134 -68 -209t-190 -75t-190 74.5t-68 208.5q0 85 30.5 148.5t89 99t138.5 35.5q121 0 189.5 -76.5zM228 392.5q-23 -39.5 -23 -126.5q0 -88 23 -127.5t72 -39.5t72 40t23 128q0 86 -23 125.5t-72 39.5t-72 -39.5z" />
    <glyph glyph-name="uni043F" unicode="&#x43f;" 
d="M373 414h-146v-414h-157v531h460v-531h-157v414z" />
    <glyph glyph-name="uni0440" unicode="&#x440;" 
d="M511 475.5q47 -73.5 47 -208.5q0 -82 -24.5 -146.5t-70.5 -101t-109 -36.5q-77 0 -126 55v-243l-158 -17v753h140l7 -59q31 39 69.5 58t77.5 19q100 0 147 -73.5zM228 370v-224q17 -24 35.5 -35.5t42.5 -11.5q44 0 66.5 39.5t22.5 126.5q0 94 -20 130.5t-60 36.5
q-50 0 -87 -62z" />
    <glyph glyph-name="uni0441" unicode="&#x441;" 
d="M410 119.5q28 11.5 60 33.5l70 -100q-38 -32 -88 -51t-109 -19q-85 0 -146.5 35t-94.5 98t-33 146t34 148t96.5 102t146.5 37q59 0 106 -16.5t88 -50.5l-68 -95q-58 40 -119 40q-119 0 -119 -165q0 -83 31 -118.5t87 -35.5q30 0 58 11.5z" />
    <glyph glyph-name="uni0442" unicode="&#x442;" 
d="M545 414h-166v-414h-158v414h-178v117h520z" />
    <glyph glyph-name="uni0443" unicode="&#x443;" 
d="M395 0q-36 -107 -107 -161.5t-190 -61.5l-18 112q76 10 112.5 34t58.5 77h-55l-168 531h167l103 -430l112 430h162z" />
    <glyph glyph-name="uni0444" unicode="&#x444;" 
d="M357 746v-246q20 26 43.5 37.5t53.5 11.5q54 0 82.5 -33t39 -94t10.5 -157q0 -282 -143 -282q-52 0 -86 46v-238l-113 -13v250q-36 -45 -88 -45q-142 0 -142 282q0 141 31.5 212.5t108.5 71.5q28 0 49.5 -11.5t40.5 -36.5v258zM172 424q-10 -17 -14 -54t-4 -105
q0 -66 4 -103.5t14 -54.5t29 -17q12 0 20.5 7t22.5 24v290q-11 17 -20 23.5t-23 6.5q-19 0 -29 -17zM380 434q-11 -7 -23 -23v-290q12 -17 21.5 -24t22.5 -7q25 0 35 38t10 137q0 68 -3 105.5t-11.5 54t-25.5 16.5q-15 0 -26 -7z" />
    <glyph glyph-name="uni0445" unicode="&#x445;" 
d="M22 0l182 279l-165 252h177l85 -170l82 170h168l-156 -246l183 -285h-179l-105 199l-101 -199h-171z" />
    <glyph glyph-name="uni0446" unicode="&#x446;" 
d="M586 117v-291h-119l-19 174h-393v531h157v-414h146v414h157v-414h71z" />
    <glyph glyph-name="uni0447" unicode="&#x447;" 
d="M526 0h-158v198q-62 -50 -152 -50q-81 0 -124.5 44t-43.5 121v218h158v-198q0 -36 17.5 -52t50.5 -16q25 0 50.5 9.5t43.5 25.5v231h158v-531z" />
    <glyph glyph-name="uni0448" unicode="&#x448;" 
d="M575 0h-550v531h134v-414h83v414h116v-414h82v414h135v-531z" />
    <glyph glyph-name="uni0449" unicode="&#x449;" 
d="M626 117v-291h-119l-19 174h-463v531h134v-414h83v414h116v-414h68h14v414h135v-414h51z" />
    <glyph glyph-name="uni044A" unicode="&#x44a;" 
d="M276 371h41q254 0 254 -184q0 -94 -61.5 -140.5t-175.5 -46.5h-216v418h-104v113h262v-160zM276 267v-158h47q43 0 64 18.5t21 62.5q0 40 -21.5 58.5t-68.5 18.5h-42z" />
    <glyph glyph-name="uni044B" unicode="&#x44b;" 
d="M161 369h9q119 0 177 -44.5t58 -137.5q0 -92 -57 -139.5t-161 -47.5h-161v531h135v-162zM574 0h-135v531h135v-531zM161 275v-177h23q39 0 59 21.5t20 69.5q0 45 -20 65.5t-64 20.5h-18z" />
    <glyph glyph-name="uni044C" unicode="&#x44c;" 
d="M246 373h55q128 0 191.5 -46t63.5 -139q0 -103 -66.5 -145.5t-184.5 -42.5h-217v531h158v-158zM246 269v-160h62q43 0 64 18.5t21 63.5q0 41 -21.5 59.5t-68.5 18.5h-57z" />
    <glyph glyph-name="uni044D" unicode="&#x44d;" 
d="M418.5 513q59.5 -36 90.5 -100.5t31 -148.5q0 -83 -32.5 -146.5t-95 -99t-149.5 -35.5q-61 0 -108 17t-86 52l70 84q29 -20 56.5 -29t63.5 -9q53 0 83.5 29t37.5 94h-196v100h194q-13 113 -114 113q-34 0 -62.5 -9t-58.5 -28l-67 87q45 34 91 49.5t110 15.5
q82 0 141.5 -36z" />
    <glyph glyph-name="uni044E" unicode="&#x44e;" 
d="M587 267q0 -138 -44.5 -211t-144.5 -73q-90 0 -134.5 59.5t-51.5 173.5h-48v-216h-132v531h132v-208h49q8 107 52.5 166.5t132.5 59.5q189 0 189 -282zM365.5 427q-11.5 -18 -15.5 -56t-4 -105q0 -68 4 -105.5t15 -55.5t33 -18t33.5 18t15.5 56t4 106q0 96 -11.5 137
t-41.5 41q-21 0 -32.5 -18z" />
    <glyph glyph-name="uni044F" unicode="&#x44f;" 
d="M525 531v-531h-158v186h-80l-100 -186h-167l130 219q-43 21 -66.5 55t-23.5 80q0 81 64 129t190 48h211zM367 282v150h-55q-47 0 -68.5 -18.5t-21.5 -54.5q0 -77 93 -77h52z" />
    <glyph glyph-name="uni0450" unicode="&#x450;" 
d="M335 98q68 0 136 44l63 -86q-39 -34 -93 -53.5t-119 -19.5q-89 0 -151 35.5t-93.5 99t-31.5 147.5q0 80 30.5 144.5t89 102t139.5 37.5q76 0 132 -32.5t86.5 -94t30.5 -146.5q0 -33 -3 -57h-344q15 -121 128 -121zM236 411.5q-26 -31.5 -31 -96.5h195q-2 128 -95 128
q-43 0 -69 -31.5zM170 716l61 119l218 -133l-43 -80z" />
    <glyph glyph-name="uni0451" unicode="&#x451;" 
d="M335 98q68 0 136 44l63 -86q-39 -34 -93 -53.5t-119 -19.5q-89 0 -151 35.5t-93.5 99t-31.5 147.5q0 80 30.5 144.5t89 102t139.5 37.5q76 0 132 -32.5t86.5 -94t30.5 -146.5q0 -33 -3 -57h-344q15 -121 128 -121zM236 411.5q-26 -31.5 -31 -96.5h195q-2 128 -95 128
q-43 0 -69 -31.5zM133 660.5q-24 23.5 -24 57.5q0 33 24 56t58 23q35 0 59 -23t24 -56q0 -34 -24 -57.5t-59 -23.5q-34 0 -58 23.5zM364.5 660.5q-24.5 23.5 -24.5 57.5q0 33 24.5 56t58.5 23t58 -23t24 -56q0 -34 -23.5 -57.5t-58.5 -23.5q-34 0 -58.5 23.5z" />
    <glyph glyph-name="uni0452" unicode="&#x452;" 
d="M228 685h141v-92h-141v-116q69 72 156 72q70 0 108 -41.5t38 -117.5v-309q0 -93 -23.5 -149.5t-68 -90t-119.5 -63.5l-56 116q56 25 82.5 56t26.5 93v328q0 33 -13 47t-38 14q-24 0 -46.5 -16.5t-46.5 -48.5v-367h-158v593h-62v92h62v57l158 16v-73z" />
    <glyph glyph-name="uni0453" unicode="&#x453;" 
d="M122 0v531h417l-18 -122h-241v-409h-158zM476 716l-237 -94l-43 81l218 132z" />
    <glyph glyph-name="uni0454" unicode="&#x454;" 
d="M540 482l-66 -88q-59 40 -121 40q-109 0 -124 -113h210v-100h-210q12 -123 126 -123q62 0 118 40l67 -91q-39 -30 -90.5 -47t-107.5 -17q-85 0 -147 35t-94 98t-32 146t34 148t96.5 102t144.5 37q117 0 196 -67z" />
    <glyph glyph-name="uni0455" unicode="&#x455;" 
d="M347.5 108.5q23.5 12.5 23.5 37.5q0 18 -9.5 29t-35.5 21.5t-81 25.5q-80 21 -122 58.5t-42 103.5q0 73 60.5 119t169.5 46q126 0 215 -65l-63 -93q-73 45 -147 45q-39 0 -57.5 -10t-18.5 -31q0 -14 9.5 -23.5t36 -19.5t79.5 -25q57 -16 93.5 -35t56.5 -51t20 -82
q0 -56 -34 -96t-91 -60t-126 -20q-74 0 -134 21t-102 59l79 89q72 -56 156 -56q41 0 64.5 12.5z" />
    <glyph glyph-name="uni0456" unicode="&#x456;" 
d="M366 783.5q26 -25.5 26 -63.5q0 -39 -26 -64t-67 -25t-67.5 25.5t-26.5 63.5t26.5 63.5t67.5 25.5t67 -25.5zM394 108h136v-108h-444v108h150v315h-145v108h303v-423z" />
    <glyph glyph-name="uni0457" unicode="&#x457;" 
d="M394 108h136v-108h-444v108h150v315h-145v108h303v-423zM125 660.5q-24 23.5 -24 57.5q0 33 24 56t58 23q35 0 59 -23t24 -56q0 -34 -24 -57.5t-59 -23.5q-34 0 -58 23.5zM356.5 660.5q-24.5 23.5 -24.5 57.5q0 33 24.5 56t58.5 23t58 -23t24 -56q0 -34 -23.5 -57.5
t-58.5 -23.5q-34 0 -58.5 23.5z" />
    <glyph glyph-name="uni0458" unicode="&#x458;" 
d="M436.5 783.5q26.5 -25.5 26.5 -63.5t-26.5 -63.5t-66.5 -25.5q-42 0 -68 25t-26 64q0 38 26.5 63.5t67.5 25.5q40 0 66.5 -25.5zM472 154q0 -113 -42 -187.5t-124.5 -119t-211.5 -69.5l-24 121q85 19 137.5 47t79.5 75.5t27 122.5v279h-190v108h348v-377z" />
    <glyph glyph-name="uni0459" unicode="&#x459;" 
d="M382 366h9q109 0 160 -44.5t51 -137.5q0 -90 -53.5 -137t-146.5 -47h-148v426h-59l-5 -106q-5 -116 -19 -178.5t-43 -97.5t-86 -64l-51 98q23 17 36.5 39t22 71.5t12.5 143.5l8 199h312v-165zM382 273v-177h10q39 0 56 20t17 70q0 47 -16.5 67t-57.5 20h-9z" />
    <glyph glyph-name="uni045A" unicode="&#x45a;" 
d="M385 344h10q210 0 210 -171q0 -86 -55.5 -129.5t-159.5 -43.5h-134v246h-94v-246h-129v531h129v-187h94v187h129v-187zM385 249v-149h3q43 0 63 17t20 58q0 38 -17 56t-54 18h-15z" />
    <glyph glyph-name="uni045B" unicode="&#x45b;" 
d="M492 507.5q38 -41.5 38 -117.5v-390h-158v346q0 48 -11 67t-40 19q-24 0 -46.5 -16.5t-46.5 -48.5v-367h-158v593h-62v92h62v57l158 16v-73h141v-92h-141v-115q67 71 156 71q70 0 108 -41.5z" />
    <glyph glyph-name="uni045C" unicode="&#x45c;" 
d="M73 531h158v-202h73l115 202h153l-147 -246l162 -285h-168l-119 224h-69v-224h-158v531zM458 716l-237 -94l-43 81l218 132z" />
    <glyph glyph-name="uni045D" unicode="&#x45d;" 
d="M530 0h-149v169q0 125 26 224l-174 -393h-163v531h149v-171q0 -121 -27 -223l174 394h164v-531zM163 716l61 119l218 -133l-43 -80z" />
    <glyph glyph-name="uni045E" unicode="&#x45e;" 
d="M395 0q-36 -107 -107 -161.5t-190 -61.5l-18 112q76 10 112.5 34t58.5 77h-55l-168 531h167l103 -430l112 430h162zM179 657q-44 45 -51 110l87 15q7 -29 29 -45t56 -16t56 16t29 45l87 -15q-7 -65 -51 -110t-121 -45t-121 45z" />
    <glyph glyph-name="uni045F" unicode="&#x45f;" 
d="M530 0h-163v-174h-119l-19 174h-159v531h157v-414h140h6v414h157v-531z" />
    <glyph glyph-name="uni0460" unicode="&#x460;" 
d="M570 512q19 -83 19 -208q0 -107 -23.5 -179.5t-63.5 -108.5t-90 -36q-51 0 -75.5 23.5t-37.5 71.5q-31 -95 -108 -95q-82 0 -131 82t-49 242q0 87 10 155.5t25 118t39 115.5h132l-13 -54q-22 -92 -33.5 -162.5t-11.5 -170.5q0 -107 13 -154t37 -47q13 0 21.5 14t8.5 41
v239h122v-239q0 -28 7.5 -41.5t23.5 -13.5q49 0 49 201q0 107 -12.5 182.5t-36.5 167.5l-9 37h131q37 -98 56 -181z" />
    <glyph glyph-name="uni0461" unicode="&#x461;" 
d="M571.5 380q14.5 -71 14.5 -138q0 -128 -39 -193.5t-114 -65.5q-54 0 -86.5 24t-47.5 80q-16 -55 -47 -79.5t-81 -24.5q-77 0 -117 65t-40 194q0 118 53 289h124q-19 -78 -28.5 -145t-9.5 -135q0 -82 10 -117t38 -35q18 0 26.5 13t12 41t3.5 81v108l115 20v-123
q0 -56 3.5 -85t12.5 -42t28 -13q28 0 36.5 33.5t8.5 118.5q0 66 -9.5 133t-28.5 147h124q24 -80 38.5 -151z" />
    <glyph glyph-name="uni0462" unicode="&#x462;" 
d="M514.5 389.5q72.5 -54.5 72.5 -159.5q0 -112 -71.5 -171t-187.5 -59h-202v519h-116v95h116v79h164v-79h123v-95h-123v-75h28q124 0 196.5 -54.5zM391.5 147.5q27.5 27.5 27.5 81.5q0 48 -28.5 73t-78.5 25h-22v-207h28q46 0 73.5 27.5z" />
    <glyph glyph-name="uni0463" unicode="&#x463;" 
d="M257 548h133l-14 -93h-119v-86h50q128 0 191 -45.5t63 -137.5q0 -91 -58 -138.5t-170 -47.5h-234v455h-63v93h63v110l158 16v-126zM257 265v-156h56q43 0 64 18.5t21 61.5q0 40 -21.5 58t-68.5 18h-51z" />
    <glyph glyph-name="uni0464" unicode="&#x464;" 
d="M608 19q-59 -36 -136 -36q-231 0 -249 310h-46v-293h-155v696h155v-283h47q12 145 78 221.5t183 76.5q68 0 122 -33l-50 -95q-33 16 -70 16q-53 0 -79.5 -45.5t-28.5 -141.5h157v-115h-157q1 -104 25.5 -152t80.5 -48q44 0 78 17z" />
    <glyph glyph-name="uni0465" unicode="&#x465;" 
d="M480 93.5q16 7.5 35 21.5l60 -68q-27 -30 -63 -47t-77 -17q-95 0 -149 62t-63 171h-47v-216h-133v531h133v-208h49q12 103 67.5 164.5t147.5 61.5q79 0 135 -58l-64 -70q-16 12 -31 18t-34 6q-38 0 -59 -29.5t-26 -94.5h144v-100h-144q4 -135 80 -135q23 0 39 7.5z" />
    <glyph glyph-name="uni0466" unicode="&#x466;" 
d="M392 244h-32v-245h-120v245h-35l-64 -244h-152l212 693h199l212 -693h-156zM363 357l-65 247l-64 -247h129z" />
    <glyph glyph-name="uni0467" unicode="&#x467;" 
d="M383 182h-29v-182h-111v182h-30l-54 -182h-142l184 531h199l184 -531h-143zM351 283l-56 177l-52 -177h108z" />
    <glyph glyph-name="uni0468" unicode="&#x468;" 
d="M448 264h-16v-265h-101v265h-17l-50 -264h-123l55 264h-69v-266h-126v695h126v-336h88l69 336h199l142 -693h-127zM431 357l-50 262l-49 -262h99z" />
    <glyph glyph-name="uni0469" unicode="&#x469;" 
d="M460 179h-26v-179h-95v179h-23l-44 -179h-116l49 179h-68v-179h-123v531h123v-258h94l71 258h169l151 -531h-115zM436 273l-49 187l-47 -187h96z" />
    <glyph glyph-name="uni046A" unicode="&#x46a;" 
d="M597 0h-132l-75 310h-28v-310h-124v310h-30l-75 -310h-130l112 401h68l-116 203v89h459v-89l-114 -203h69zM299 401l97 200h-198z" />
    <glyph glyph-name="uni046B" unicode="&#x46b;" 
d="M596 0h-133l-49 202h-48v-202h-130v202h-48l-50 -202h-133l104 301h73l-109 156v74h448v-74l-108 -156h80zM298 301l85 141h-171z" />
    <glyph glyph-name="uni046C" unicode="&#x46c;" 
d="M613 0h-122l-26 310h-25v-310h-112v310h-25l-27 -310h-120l42 310h-67v-312h-126v695h126v-292h146l-89 205v87h386v-87l-86 -205h68zM384 401l76 205h-156z" />
    <glyph glyph-name="uni046D" unicode="&#x46d;" 
d="M632 0h-119l-33 210h-31v-210h-114v210h-34l-33 -210h-120l51 210h-76v-210h-124v531h124v-226h157l-95 152v74h403v-74l-94 -152h66zM388 305l72 141h-146z" />
    <glyph glyph-name="uni046E" unicode="&#x46e;" 
d="M234 751l-142 130l57 65l133 -85l133 85l56 -65l-141 -130h-96zM486 337.5q53 -46.5 53 -141.5q0 -64 -30.5 -104t-73.5 -61t-112 -42q-59 -17 -77 -28t-18 -27q0 -17 15 -29t60 -37l-56 -94q-180 73 -180 176q0 54 35 85.5t124 59.5q56 18 84.5 30t45 31.5t16.5 50.5
q0 80 -104 80h-125v90l185 193h-267v123h442v-118l-185 -188h1q114 -3 167 -49.5z" />
    <glyph glyph-name="uni046F" unicode="&#x46f;" 
d="M481 751l-141 -140h-96l-142 140l57 64l133 -94l133 94zM62 -74q0 52 38.5 85t130.5 56q56 14 85 25t40.5 23t11.5 29q0 19 -13.5 27.5t-44.5 8.5h-161v92l175 145h-248v114h432v-111l-176 -135h37q79 0 123.5 -38t44.5 -105q0 -51 -23.5 -84t-66 -53.5t-110.5 -37.5
q-51 -13 -76 -22t-33 -17t-8 -19q0 -12 9 -21.5t28 -20.5l-43 -94q-152 56 -152 153z" />
    <glyph glyph-name="uni0470" unicode="&#x470;" 
d="M228 183q-217 30 -217 240v270h139v-274q0 -62 17.5 -91.5t71.5 -39.5v405h124v-404q51 11 69 40t18 90v274h139v-270q0 -100 -54 -161.5t-163 -77.5v-184h-144v183z" />
    <glyph glyph-name="uni0471" unicode="&#x471;" 
d="M361 91q36 8 54 25.5t25 50.5t7 93q0 62 -5.5 122t-16.5 149h127q28 -133 28 -275q0 -125 -50.5 -187.5t-168.5 -81.5v-192l-121 -17v209q-115 12 -163.5 67.5t-48.5 148.5v328h132v-326q0 -52 19 -79.5t61 -34.5v440h121v-440z" />
    <glyph glyph-name="uni0472" unicode="&#x472;" 
d="M505.5 80.5q-71.5 -97.5 -205.5 -97.5q-135 0 -206 96.5t-71 267.5q0 169 71.5 266.5t205.5 97.5q135 0 206 -96.5t71 -267.5q0 -169 -71.5 -266.5zM218.5 545.5q-27.5 -45.5 -32.5 -143.5h227q-5 98 -31.5 143.5t-81.5 45.5q-54 0 -81.5 -45.5zM383.5 151
q26.5 48 30.5 150h-228q3 -102 30.5 -150t83.5 -48q57 0 83.5 48z" />
    <glyph glyph-name="uni0473" unicode="&#x473;" 
d="M489.5 472.5q68.5 -76.5 68.5 -205.5q0 -134 -68 -209t-190 -75t-190 74.5t-68 208.5q0 85 30.5 148.5t89 99t138.5 35.5q121 0 189.5 -76.5zM229 405.5q-25 -29.5 -31 -92.5h203q-6 63 -31 92.5t-70 29.5q-46 0 -71 -29.5zM197 223q6 -67 31 -96.5t72 -29.5
q46 0 71 29.5t31 96.5h-205z" />
    <glyph glyph-name="uni0474" unicode="&#x474;" 
d="M561 592q-12 0 -19 -6.5t-11 -21.5l-144 -564h-204l-173 693h173l105 -568l85 448q15 75 53 107.5t106 32.5q43 0 66 -9l-21 -114q-8 2 -16 2z" />
    <glyph glyph-name="uni0475" unicode="&#x475;" 
d="M19 531h171l95 -410l67 316q16 76 51.5 108t97.5 32q40 0 81 -12l-26 -113q-10 4 -24 4q-13 0 -21 -8t-14 -28l-121 -420h-186z" />
    <glyph glyph-name="uni0476" unicode="&#x476;" 
d="M561 592q-12 0 -19 -6.5t-11 -21.5l-144 -564h-204l-173 693h173l105 -568l85 448q15 75 53 107.5t106 32.5q43 0 66 -9l-21 -114q-8 2 -16 2zM184 786l-125 182l106 51l100 -194zM346 787l-124 183l107 49l99 -196z" />
    <glyph glyph-name="uni0477" unicode="&#x477;" 
d="M19 531h171l95 -410l67 316q16 76 51.5 108t97.5 32q40 0 81 -12l-26 -113q-10 4 -24 4q-13 0 -21 -8t-14 -28l-121 -420h-186zM179 624l-125 182l106 51l100 -194zM341 625l-124 183l107 49l99 -196z" />
    <glyph glyph-name="uni0478" unicode="&#x478;" 
d="M31.5 79q-41.5 96 -41.5 268q0 169 41.5 266.5t120.5 97.5q161 0 161 -364q0 -172 -39 -268t-122 -96q-79 0 -120.5 96zM192 144.5q12 61.5 12 202.5t-12.5 202.5t-39.5 61.5t-39 -61t-12 -203q0 -141 12 -202.5t39 -61.5q28 0 40 61.5zM323 -150q49 20 74.5 53t35.5 97
h-49l-71 531h100l40 -430l46 430h96l-76 -531q-27 -187 -173 -223z" />
    <glyph glyph-name="uni0479" unicode="&#x479;" 
d="M38 57.5q-44 74.5 -44 208.5q0 84 20 148t57.5 99.5t88.5 35.5q83 0 124.5 -75t41.5 -207q0 -136 -41.5 -210t-124.5 -74q-78 0 -122 74.5zM338 -150q49 20 75 53t37 97h-50l-71 531h100l41 -430l45 430h97l-77 -531q-27 -187 -174 -223zM209 111.5q15 46.5 15 155.5
q0 108 -15 153.5t-49 45.5q-33 0 -48.5 -46.5t-15.5 -153.5q0 -109 15 -155t49 -46t49 46.5z" />
    <glyph glyph-name="uni048A" unicode="&#x48a;" 
d="M179 783q-44 45 -51 110l87 15q7 -29 29 -45t56 -16t56 16t29 45l87 -15q-7 -65 -51 -110t-121 -45t-121 45zM638 152l-99 -326h-135l39 174h-45v230q0 164 27 319l-189 -549h-184v693h150v-235q0 -98 -7 -168.5t-21 -146.5l193 550h181v-541h90z" />
    <glyph glyph-name="uni048B" unicode="&#x48b;" 
d="M164 657q-44 45 -51 110l87 15q7 -29 29 -45t56 -16t56 16t29 45l87 -15q-7 -65 -51 -110t-121 -45t-121 45zM607 140l-99 -314h-129l40 174h-63v169q0 119 22 215l-152 -384h-161v531h149v-171q0 -121 -27 -223l157 394h161v-391h102z" />
    <glyph glyph-name="uni048C" unicode="&#x48c;" 
d="M505 389.5q73 -54.5 73 -159.5q0 -112 -71.5 -171t-187.5 -59h-233v521h-56v92h56v80h164v-80h119v-92h-119v-77h58q124 0 197 -54.5zM381.5 147.5q27.5 27.5 27.5 81.5q0 48 -28.5 73t-78.5 25h-52v-207h58q46 0 73.5 27.5z" />
    <glyph glyph-name="uni048D" unicode="&#x48d;" 
d="M494 308.5q62 -44.5 62 -130.5q0 -96 -67 -137t-185 -41h-205v409h-63v80h63v42h158v-42h164l-10 -80h-154v-56h54q121 0 183 -44.5zM371.5 126q21.5 17 21.5 55q0 33 -20 50.5t-60 17.5h-56v-140h51q42 0 63.5 17z" />
    <glyph glyph-name="uni048E" unicode="&#x48e;" 
d="M546 349.5q-30 -50.5 -83 -80.5l62 -101h-79l-46 75q-46 -12 -98 -12h-76v-231h-164v693h218q144 0 220 -56.5t76 -169.5q0 -67 -30 -117.5zM334 352l-78 127h79l59 -97q23 28 23 85q0 55 -31 82t-94 27h-66v-227h75q18 0 33 3z" />
    <glyph glyph-name="uni048F" unicode="&#x48f;" 
d="M513 116q-26 -66 -74 -100l66 -108h-79l-48 80q-23 -5 -43 -5q-77 0 -127 55v-243l-158 -17v753h141l7 -59q30 39 68.5 58t78.5 19q100 0 147 -73.5t47 -208.5q0 -85 -26 -151zM309 99l-73 120h79l51 -83q19 37 19 129q0 95 -21 131t-68 36q-27 0 -48 -15.5t-40 -46.5
v-224q18 -25 37.5 -36t50.5 -11h13z" />
    <glyph glyph-name="uni0490" unicode="&#x490;" 
d="M559 848v-155l-16 -129h-289v-564h-164v693h317v155h152z" />
    <glyph glyph-name="uni0491" unicode="&#x491;" 
d="M539 683v-152l-18 -122h-241v-409h-158v531h273v152h144z" />
    <glyph glyph-name="uni0492" unicode="&#x492;" 
d="M279 564v-131h143v-98h-143v-335h-164v335h-77v98h77v260h469l-16 -129h-289z" />
    <glyph glyph-name="uni0493" unicode="&#x493;" 
d="M306 409v-97h116v-99h-116v-213h-158v213h-75v99h75v219h417l-18 -122h-241z" />
    <glyph glyph-name="uni0494" unicode="&#x494;" 
d="M512 409q54 -61 54 -178v-257q0 -98 -52.5 -149.5t-148.5 -51.5q-43 0 -75 11.5t-60 33.5l60 92q18 -9 30 -13t29 -4q26 0 39.5 15.5t13.5 51.5v270q0 65 -22 92t-73 27q-59 0 -101 -38v-311h-164v693h164h280l-20 -125h-260v-147q66 49 147 49q105 0 159 -61z" />
    <glyph glyph-name="uni0495" unicode="&#x495;" 
d="M487.5 -175.5q-50.5 -51.5 -144.5 -51.5q-43 0 -74 11.5t-61 33.5l60 89q18 -9 30 -13t30 -4q26 0 39 15.5t13 51.5v211q0 34 -12.5 47.5t-38.5 13.5q-47 0 -89 -52v-177h-158v531h385l-23 -115h-204v-134q27 30 65 47t81 17q73 0 112.5 -43t39.5 -125v-204
q0 -98 -50.5 -149.5z" />
    <glyph glyph-name="uni0496" unicode="&#x496;" 
d="M611 122v-296h-106l-20 174h-29l-78 320h-28v-320h-100v320h-30l-78 -320h-140l108 379l-98 314h135l76 -291h27v291h100v-291h27l76 291h135l-98 -314l73 -257h48z" />
    <glyph glyph-name="uni0497" unicode="&#x497;" 
d="M617 117v-291h-99l-20 174h-40l-79 232h-25v-232h-108v232h-25l-75 -232h-141l112 285l-109 246h137l74 -211h27v211h108v-211h27l78 211h133l-108 -246l67 -168h66z" />
    <glyph glyph-name="uni0498" unicode="&#x498;" 
d="M497.5 52q-64.5 -57 -180.5 -67v-33q51 -6 77 -32t26 -67q0 -51 -41 -83t-108 -32q-34 0 -64.5 8.5t-52.5 21.5l36 73q34 -17 64 -17q53 0 53 31q0 19 -22 26t-70 7l11 97q-135 12 -219 97l84 84q75 -63 176 -63q61 0 96 27t35 75q0 52 -34 78t-98 26h-116l19 116h96
q54 0 84.5 22t30.5 63q0 39 -30 60.5t-84 21.5q-94 0 -162 -54l-79 83q102 90 258 90q77 0 135.5 -23.5t90.5 -65.5t32 -96q0 -63 -40.5 -102.5t-116.5 -54.5q83 -8 130.5 -52t47.5 -119q0 -89 -64.5 -146z" />
    <glyph glyph-name="uni0499" unicode="&#x499;" 
d="M478.5 39.5q-57.5 -43.5 -153.5 -53.5v-34q51 -6 77 -32t26 -67q0 -51 -41 -83t-108 -32q-34 0 -64.5 8.5t-52.5 21.5l36 73q34 -17 64 -17q53 0 53 31q0 19 -22 26t-70 7l11 96q-127 7 -208 69l68 91q42 -25 83 -36.5t89 -11.5q53 0 79.5 17.5t26.5 48.5q0 29 -24.5 45
t-72.5 16h-115l9 101h96q41 0 63 15.5t22 43.5t-23 42t-66 14q-41 0 -79.5 -10t-70.5 -29l-68 84q46 32 104.5 48.5t123.5 16.5q106 0 172 -39t66 -109q0 -87 -127 -120q76 -9 115 -39t39 -88q0 -71 -57.5 -114.5z" />
    <glyph glyph-name="uni049A" unicode="&#x49a;" 
d="M483 -174l-20 174h-34l-150 302h-63v-302h-164v693h164v-273h61l153 273h159l-176 -314l132 -257h63v-296h-125z" />
    <glyph glyph-name="uni049B" unicode="&#x49b;" 
d="M598 117v-291h-119l-19 174h-41l-119 224h-69v-224h-158v531h158v-202h73l115 202h153l-147 -246l95 -168h78z" />
    <glyph glyph-name="uni049C" unicode="&#x49c;" 
d="M236 309h-36v-309h-148v693h148v-280h36v160h55v-160h16l120 280h158l-156 -314l175 -379h-172l-122 309h-19v-162h-55v162z" />
    <glyph glyph-name="uni049D" unicode="&#x49d;" 
d="M73 531h149v-213h34v115h52v-115h19l93 213h152l-122 -246l137 -285h-165l-95 234h-19v-117h-52v117h-34v-234h-149v531z" />
    <glyph glyph-name="uni049E" unicode="&#x49e;" 
d="M603 0h-179l-130 302h-63v-302h-164v534h-57v95h57v64h164v-64h84v-95h-84v-114h61l133 273h159l-156 -314z" />
    <glyph glyph-name="uni049F" unicode="&#x49f;" 
d="M586 0h-167l-119 224h-50v-224h-158v565h-79v92h79v85l158 17v-102h122v-92h-122v-236h54l115 202h153l-147 -246z" />
    <glyph glyph-name="uni04A0" unicode="&#x4a0;" 
d="M246 305v-305h-152v573h-94v120h246v-275h56l129 275h156l-157 -314l175 -379h-173l-128 305h-58z" />
    <glyph glyph-name="uni04A1" unicode="&#x4a1;" 
d="M600 0h-168l-109 224h-60v-224h-158v418h-105v113h263v-202h64l105 202h153l-137 -246z" />
    <glyph glyph-name="uni04A2" unicode="&#x4a2;" 
d="M596 122v-296h-125l-20 174h-67v292h-168v-292h-164v693h164v-266h168v266h164v-571h48z" />
    <glyph glyph-name="uni04A3" unicode="&#x4a3;" 
d="M581 117v-291h-119l-20 174h-90v212h-144v-212h-158v531h158v-203h144v203h158v-414h71z" />
    <glyph glyph-name="uni04A4" unicode="&#x4a4;" 
d="M599 564h-119v-564h-164v290h-119v-290h-164v693h164v-264h119v264h303z" />
    <glyph glyph-name="uni04A5" unicode="&#x4a5;" 
d="M584 413h-110v-413h-158v212h-115v-212h-158v531h158v-203h115v203h292z" />
    <glyph glyph-name="uni04A6" unicode="&#x4a6;" 
d="M550 420q33 -41 33 -108v-357q0 -83 -47 -132.5t-124 -49.5q-43 0 -75 11.5t-60 33.5l55 81q30 -21 64 -21q53 0 53 67v356q0 24 -10 37.5t-28 13.5q-21 0 -41 -17v-335h-134v584h-78v-584h-135v693h347v-265q38 33 89 33q58 0 91 -41z" />
    <glyph glyph-name="uni04A7" unicode="&#x4a7;" 
d="M568.5 304q36.5 -42 36.5 -115v-225q0 -90 -48 -140.5t-127 -50.5q-41 0 -72 11.5t-60 33.5l55 81q18 -11 31 -15.5t34 -4.5q23 0 36 15t13 46v249q0 48 -40 48q-23 0 -45 -14v-223h-137v421h-89v-421h-138v531h364v-214q40 29 92 29q58 0 94.5 -42z" />
    <glyph glyph-name="uni04A8" unicode="&#x4a8;" 
d="M553 139.5q-29 -63.5 -82 -104.5q37 -58 85 -124l-82 -59q-63 87 -96 137q-33 -9 -71 -9q-84 0 -148.5 42.5t-100.5 125t-36 197.5q0 116 36 199t100 126t145 43q68 0 116 -20.5t96 -61.5l-77 -90q-35 27 -64.5 39.5t-63.5 12.5q-55 0 -86.5 -60.5t-31.5 -187.5
q0 -129 31 -190t83 -61h10q-46 94 -46 179q0 75 41 117t112 42q68 0 113.5 -40t45.5 -118q0 -71 -29 -134.5zM392.5 320q-10.5 -15 -10.5 -44q0 -65 35 -144q43 44 43 147q0 27 -10 41.5t-28 14.5q-19 0 -29.5 -15z" />
    <glyph glyph-name="uni04A9" unicode="&#x4a9;" 
d="M548 109q-27 -50 -77 -83q35 -51 88 -118l-67 -56q-64 76 -108 138q-35 -7 -66 -7q-84 0 -146 35t-95 98t-33 146t34 148t96.5 102t144.5 37q72 0 132 -33l-52 -108q-36 19 -73 19q-55 0 -87 -39.5t-32 -125.5q0 -78 28 -114t79 -40q-28 60 -28 109q0 64 38.5 100.5
t105.5 36.5q65 0 105 -36.5t40 -106.5q0 -52 -27 -102zM403.5 253q-8.5 -12 -8.5 -33q0 -45 19 -91q23 14 35 38t12 54q0 44 -33 44q-16 0 -24.5 -12z" />
    <glyph glyph-name="uni04AA" unicode="&#x4aa;" 
d="M483 -136q0 -56 -41 -89t-112 -33q-58 0 -105 25l31 79q28 -14 63 -14q28 0 42 13.5t14 35.5q0 59 -70 105q-124 17 -197.5 110.5t-73.5 251.5q0 113 42 195t116 125t166 43q72 0 124 -19t98 -57l-80 -97q-63 51 -138 51q-71 0 -114.5 -60t-43.5 -181t43 -179.5
t118 -58.5q46 0 79 16t71 46l74 -95q-75 -76 -183 -91q77 -46 77 -122z" />
    <glyph glyph-name="uni04AB" unicode="&#x4ab;" 
d="M450.5 -65q19.5 -30 19.5 -71q0 -56 -41 -89t-112 -33q-58 0 -105 25l31 79q28 -14 63 -14q28 0 42 13.5t14 35.5q0 59 -71 106q-104 15 -163 88.5t-59 186.5q0 83 34 148t96.5 102t146.5 37q59 0 106 -16.5t88 -50.5l-68 -95q-58 40 -119 40q-119 0 -119 -165
q0 -83 31 -118.5t87 -35.5q30 0 58 11.5t60 33.5l70 -100q-61 -53 -148 -66q39 -22 58.5 -52z" />
    <glyph glyph-name="uni04AC" unicode="&#x4ac;" 
d="M381 567v-445h48v-296h-125l-20 174h-67v567h-195v126h561l-16 -126h-186z" />
    <glyph glyph-name="uni04AD" unicode="&#x4ad;" 
d="M379 414v-297h70v-291h-119l-19 174h-90v414h-178v117h520l-18 -117h-166z" />
    <glyph glyph-name="uni04AE" unicode="&#x4ae;" 
d="M382 0h-164v259l-226 434h180l131 -298l132 298h173l-226 -433v-260z" />
    <glyph glyph-name="uni04AF" unicode="&#x4af;" 
d="M223 4l-199 527h172l107 -393l112 393h161l-199 -526v-210l-154 -17v226z" />
    <glyph glyph-name="uni04B0" unicode="&#x4b0;" 
d="M399 294h99v-93h-116v-201h-164v201h-116v93h98l-208 399h180l131 -298l132 298h173z" />
    <glyph glyph-name="uni04B1" unicode="&#x4b1;" 
d="M402 72h71v-88h-96v-189l-154 -17v206h-95v88h69l-173 459h172l107 -393l112 393h161z" />
    <glyph glyph-name="uni04B2" unicode="&#x4b2;" 
d="M472 -174l-20 174h-33l1 2l-122 262l-120 -264h-174l196 368l-181 325h177l104 -222l107 222h173l-184 -318l136 -253h65v-296h-125z" />
    <glyph glyph-name="uni04B3" unicode="&#x4b3;" 
d="M399 0l-32 61v-235h-119l-19 174h-207l182 279l-165 252h177l85 -170l82 170h168l-156 -246l183 -285h-179zM337 117l-43 82l-42 -82h85z" />
    <glyph glyph-name="uni04B4" unicode="&#x4b4;" 
d="M566 122v-296h-106l-20 174h-349v587h-91v106h328l-15 -106h-77v-459h137v565h145v-571h48z" />
    <glyph glyph-name="uni04B5" unicode="&#x4b5;" 
d="M567 117v-291h-113l-20 174h-348v429h-86v102h324l-24 -102h-67v-312h126v414h148v-414h60z" />
    <glyph glyph-name="uni04B6" unicode="&#x4b6;" 
d="M596 122v-296h-125l-20 174h-67v243q-61 -45 -144 -45q-102 0 -158.5 60.5t-56.5 175.5v259h164v-254q0 -65 22.5 -92.5t74.5 -27.5q58 0 98 36v338h164v-571h48z" />
    <glyph glyph-name="uni04B7" unicode="&#x4b7;" 
d="M585 117v-291h-118l-20 174h-89v198q-62 -50 -152 -50q-81 0 -124.5 44t-43.5 121v218h158v-198q0 -36 17.5 -52t50.5 -16q25 0 50.5 9.5t43.5 25.5v231h158v-414h69z" />
    <glyph glyph-name="uni04B8" unicode="&#x4b8;" 
d="M548 693v-693h-164v243q-30 -22 -59 -31v-87h-66v73h-19q-102 0 -158.5 60.5t-56.5 175.5v259h164v-254q0 -56 16.5 -83.5t53.5 -34.5v234h66v-231q32 7 59 31v338h164z" />
    <glyph glyph-name="uni04B9" unicode="&#x4b9;" 
d="M526 531v-531h-158v198q-25 -20 -54 -32v-85h-60v70q-18 -3 -38 -3q-81 0 -124.5 44t-43.5 121v218h158v-198q0 -58 48 -66v133h60v-129q31 9 54 29v231h158z" />
    <glyph glyph-name="uni04BA" unicode="&#x4ba;" 
d="M521.5 409q53.5 -61 53.5 -178v-231h-164v230q0 65 -21.5 92t-72.5 27q-61 0 -101 -38v-311h-164v693h164v-273q63 50 147 50q105 0 158.5 -61z" />
    <glyph glyph-name="uni04BB" unicode="&#x4bb;" 
d="M488 452.5q40 -43.5 40 -124.5v-328h-158v318q0 34 -12 47.5t-39 13.5q-46 0 -89 -53v-326h-158v742l158 16v-327q28 31 65.5 48t80.5 17q72 0 112 -43.5z" />
    <glyph glyph-name="uni04BC" unicode="&#x4bc;" 
d="M571 286h-289q1 -103 26.5 -148t74.5 -45q28 0 52 11t54 32l59 -79q-38 -36 -82.5 -55t-91.5 -19q-111 0 -168.5 77t-65.5 230q-69 0 -107 40.5t-38 106.5q0 31 7 54.5t21 47.5l86 -34q-1 -3 -7.5 -20.5t-6.5 -39.5q0 -26 11 -39t34 -14q8 155 65.5 237t159.5 82
q211 0 211 -354q0 -38 -5 -71zM420.5 556q-17.5 46 -55.5 46q-41 0 -60.5 -46t-22.5 -164h154q2 118 -15.5 164z" />
    <glyph glyph-name="uni04BD" unicode="&#x4bd;" 
d="M572 219h-278q4 -127 99 -127q33 0 58 9.5t50 26.5l61 -78q-77 -67 -174 -67q-109 0 -167.5 62.5t-67.5 172.5q-69 1 -108.5 37t-39.5 101q0 28 8 50.5t22 45.5l84 -34q-14 -34 -14 -60q0 -43 48 -43q12 105 67.5 169.5t147.5 64.5q101 0 154 -71.5t53 -201.5
q0 -33 -3 -57zM434 315q-1 65 -16.5 98t-50.5 33t-53.5 -31.5t-21.5 -99.5h142z" />
    <glyph glyph-name="uni04BE" unicode="&#x4be;" 
d="M571 286h-289q1 -103 26.5 -148t74.5 -45q28 0 52 11t54 32l59 -79q-48 -45 -104 -63q-56 -22 -77.5 -47t-21.5 -57q0 -24 15.5 -36.5t42.5 -12.5q24 0 54 7l-12 -93q-29 -8 -59 -8q-66 0 -108.5 32.5t-42.5 90.5q0 76 68 123q-149 42 -163 297q-69 0 -107 40.5
t-38 106.5q0 31 7 54.5t21 47.5l86 -34q-1 -3 -7.5 -20.5t-6.5 -39.5q0 -26 11 -39t34 -14q8 155 65.5 237t159.5 82q211 0 211 -354q0 -38 -5 -71zM420.5 556q-17.5 46 -55.5 46q-41 0 -60.5 -46t-22.5 -164h154q2 118 -15.5 164z" />
    <glyph glyph-name="uni04BF" unicode="&#x4bf;" 
d="M572 219h-278q4 -127 99 -127q33 0 58 9.5t50 26.5l61 -78q-35 -32 -80 -50q-65 -22 -90 -49t-25 -61q0 -24 15.5 -36.5t42.5 -12.5q24 0 54 7l-12 -93q-29 -8 -59 -8q-66 0 -108.5 32.5t-42.5 90.5q0 74 65 120q-77 17 -119 76.5t-50 151.5q-69 1 -108.5 37t-39.5 101
q0 28 8 50.5t22 45.5l84 -34q-14 -34 -14 -60q0 -43 48 -43q12 105 67.5 169.5t147.5 64.5q101 0 154 -71.5t53 -201.5q0 -33 -3 -57zM434 315q-1 65 -16.5 98t-50.5 33t-53.5 -31.5t-21.5 -99.5h142z" />
    <glyph glyph-name="uni04C0" unicode="&#x4c0;" 
d="M525 573h-143v-452h143v-121h-450v121h143v452h-143v120h450v-120z" />
    <glyph glyph-name="uni04C1" unicode="&#x4c1;" 
d="M220 320l-78 -320h-140l108 379l-98 314h135l76 -291h27v291h100v-291h27l76 291h135l-98 -314l108 -379h-142l-78 320h-28v-320h-100v320h-30zM179 783q-44 45 -51 110l87 15q7 -29 29 -45t56 -16t56 16t29 45l87 -15q-7 -65 -51 -110t-121 -45t-121 45z" />
    <glyph glyph-name="uni04C2" unicode="&#x4c2;" 
d="M246 232h-25l-85 -232h-141l122 285l-119 246h137l84 -211h27v211h108v-211h27l88 211h133l-118 -246l122 -285h-138l-89 232h-25v-232h-108v232zM179 657q-44 45 -51 110l87 15q7 -29 29 -45t56 -16t56 16t29 45l87 -15q-7 -65 -51 -110t-121 -45t-121 45z" />
    <glyph glyph-name="uni04C3" unicode="&#x4c3;" 
d="M533.5 341q34.5 -49 34.5 -139v-228q0 -97 -52.5 -149t-147.5 -52q-43 0 -75 11.5t-61 33.5l60 92q20 -9 31.5 -13t28.5 -4q26 0 39 15.5t13 51.5v240q0 47 -19 69.5t-61 22.5h-108v-292h-164v693h164v-283h65l148 283h160l-161 -289q71 -14 105.5 -63z" />
    <glyph glyph-name="uni04C4" unicode="&#x4c4;" 
d="M544 -26q0 -98 -50.5 -149.5t-144.5 -51.5q-43 0 -75 11.5t-61 33.5l61 89q18 -9 30 -13t29 -4q53 0 53 67v196q0 55 -56 55h-102v-208h-158v531h158v-218h62l119 218h149l-129 -229q55 -10 85 -50.5t30 -105.5v-172z" />
    <glyph glyph-name="uni04C5" unicode="&#x4c5;" 
d="M610 152l-99 -326h-135l39 174h-59v568h-79l-10 -111q-16 -169 -38.5 -258.5t-62 -136.5t-112.5 -82l-64 108q37 28 58 61t36.5 106.5t29.5 217.5l20 220h386v-541h90z" />
    <glyph glyph-name="uni04C6" unicode="&#x4c6;" 
d="M591 140l-99 -314h-128l39 174h-69v415h-84l-3 -65q-6 -123 -23 -191.5t-51 -107.5t-99 -71l-66 100q28 20 44 44.5t27 74.5t18 145l14 187h381v-391h99z" />
    <glyph glyph-name="uni04C7" unicode="&#x4c7;" 
d="M548 -26q0 -97 -52.5 -149t-147.5 -52q-43 0 -75 11.5t-61 33.5l60 92q20 -9 31.5 -13t28.5 -4q26 0 39 15.5t13 51.5v332h-168v-292h-164v693h164v-266h168v266h164v-719z" />
    <glyph glyph-name="uni04C8" unicode="&#x4c8;" 
d="M530 -26q0 -98 -50.5 -149.5t-143.5 -51.5q-43 0 -75 11.5t-61 33.5l60 89q20 -9 31.5 -13t28.5 -4q26 0 39 15.5t13 51.5v255h-144v-212h-158v531h158v-203h144v203h158v-557z" />
    <glyph glyph-name="uni04C9" unicode="&#x4c9;" 
d="M599 152l-99 -326h-135l40 174h-60v290h-138v-290h-164v693h164v-264h138v264h164v-541h90z" />
    <glyph glyph-name="uni04CA" unicode="&#x4ca;" 
d="M595 140l-99 -314h-128l39 174h-68v212h-115v-212h-158v531h158v-203h115v203h158v-391h98z" />
    <glyph glyph-name="uni04CB" unicode="&#x4cb;" 
d="M548 693v-693h-83l-20 -174h-125v296h64v121q-61 -45 -144 -45q-102 0 -158.5 60.5t-56.5 175.5v259h164v-254q0 -65 22.5 -92.5t74.5 -27.5q58 0 98 36v338h164z" />
    <glyph glyph-name="uni04CC" unicode="&#x4cc;" 
d="M526 531v-531h-95l-20 -174h-119v291h76v110q-60 -49 -152 -49q-81 0 -124.5 44t-43.5 121v188h158v-169q0 -68 68 -68q25 0 50 9.5t44 25.5v202h158z" />
    <glyph glyph-name="uni04CD" unicode="&#x4cd;" 
d="M630 152l-99 -326h-116l40 174h-52l-8 297q-1 22 -1 61q0 49 3 98t7 104l-59 -442h-124l-64 442q11 -123 11 -213l-1 -53l-6 -294h-140l39 693h169l57 -448l53 448h169l30 -541h92z" />
    <glyph glyph-name="uni04CE" unicode="&#x4ce;" 
d="M616 140l-100 -314h-108l39 174h-57l-8 181q-4 86 -7 223l-47 -320h-114l-52 320q1 -30 1 -84q0 -71 -3 -145l-7 -175h-132l35 531h170l47 -327l36 327h180l27 -391h100z" />
    <glyph glyph-name="uni04CF" unicode="&#x4cf;" 
d="M347 167q0 -59 68 -59q37 0 76 16l37 -106q-64 -35 -153 -35q-93 0 -139.5 53.5t-46.5 150.5v447h-156v108h314v-575z" />
    <glyph glyph-name="uni04D0" unicode="&#x4d0;" 
d="M197 150l-36 -150h-172l212 693h199l212 -693h-176l-36 150h-203zM373 268l-75 307l-75 -307h150zM179 783q-44 45 -51 110l87 15q7 -29 29 -45t56 -16t56 16t29 45l87 -15q-7 -65 -51 -110t-121 -45t-121 45z" />
    <glyph glyph-name="uni04D1" unicode="&#x4d1;" 
d="M525 110q8 -14 27 -21l-33 -104q-48 5 -80 21.5t-50 48.5q-30 -35 -76 -53.5t-98 -18.5q-82 0 -131 46.5t-49 120.5q0 86 68 133.5t191 47.5h71v19q0 82 -105 82q-27 0 -67.5 -7.5t-78.5 -20.5l-36 105q51 19 106.5 29.5t100.5 10.5q232 0 232 -188v-208q0 -29 8 -43z
M323.5 111.5q27.5 15.5 41.5 42.5v87h-39q-128 0 -128 -80q0 -31 18.5 -48t52.5 -17q27 0 54.5 15.5zM172 657q-44 45 -51 110l87 15q7 -29 29 -45t56 -16t56 16t29 45l87 -15q-7 -65 -51 -110t-121 -45t-121 45z" />
    <glyph glyph-name="uni04D2" unicode="&#x4d2;" 
d="M197 150l-36 -150h-172l212 693h199l212 -693h-176l-36 150h-203zM373 268l-75 307l-75 -307h150zM126 785q-24 23 -24 57t24 57t58 23q35 0 58.5 -23t23.5 -57t-23.5 -57t-58.5 -23q-34 0 -58 23zM357.5 785.5q-24.5 23.5 -24.5 56.5t24.5 56.5t58.5 23.5q35 0 58.5 -23
t23.5 -57t-23.5 -57t-58.5 -23q-34 0 -58.5 23.5z" />
    <glyph glyph-name="uni04D3" unicode="&#x4d3;" 
d="M525 110q8 -14 27 -21l-33 -104q-48 5 -80 21.5t-50 48.5q-30 -35 -76 -53.5t-98 -18.5q-82 0 -131 46.5t-49 120.5q0 86 68 133.5t191 47.5h71v19q0 82 -105 82q-27 0 -67.5 -7.5t-78.5 -20.5l-36 105q51 19 106.5 29.5t100.5 10.5q232 0 232 -188v-208q0 -29 8 -43z
M323.5 111.5q27.5 15.5 41.5 42.5v87h-39q-128 0 -128 -80q0 -31 18.5 -48t52.5 -17q27 0 54.5 15.5zM119 660.5q-24 23.5 -24 57.5q0 33 24 56t58 23q35 0 59 -23t24 -56q0 -34 -24 -57.5t-59 -23.5q-34 0 -58 23.5zM350.5 660.5q-24.5 23.5 -24.5 57.5q0 33 24.5 56
t58.5 23t58 -23t24 -56q0 -34 -23.5 -57.5t-58.5 -23.5q-34 0 -58.5 23.5z" />
    <glyph glyph-name="uni04D4" unicode="&#x4d4;" 
d="M173 153l-28 -153h-157l175 693h402l-17 -111h-182l33 -176h157v-110h-137l36 -185h148v-111h-265l-25 153h-140zM296 265l-51 318l-54 -318h105z" />
    <glyph glyph-name="uni04D5" unicode="&#x4d5;" 
d="M559.5 480.5q40.5 -68.5 40.5 -204.5q0 -26 -3 -50h-241q13 -139 97 -139q23 0 43.5 8t43.5 24l60 -79q-67 -57 -156 -57q-106 0 -160 84q-30 -45 -61 -64.5t-80 -19.5q-69 0 -109 47t-40 122q0 86 50 130.5t152 44.5h41v23q0 101 -89 101q-24 0 -43.5 -5.5t-49.5 -19.5
l-36 87q42 19 75 27.5t70 8.5q52 0 85 -18.5t53 -52.5q19 33 50.5 52t75.5 19q91 0 131.5 -68.5zM375.5 419q-15.5 -31 -19.5 -107h125q-1 74 -13 106t-46 32q-31 0 -46.5 -31zM216 242q-48 0 -69 -21t-21 -62q0 -35 12 -54t34 -19q20 0 37 15t33 47q-5 50 -5 94h-21z" />
    <glyph glyph-name="uni04D6" unicode="&#x4d6;" 
d="M257 409h240v-114h-240v-177h289v-118h-453v693h453l-17 -117h-272v-167zM199 783q-44 45 -51 110l87 15q7 -29 29 -45t56 -16t56 16t29 45l87 -15q-7 -65 -51 -110t-121 -45t-121 45z" />
    <glyph glyph-name="uni04D7" unicode="&#x4d7;" 
d="M335 98q68 0 136 44l63 -86q-39 -34 -93 -53.5t-119 -19.5q-89 0 -151 35.5t-93.5 99t-31.5 147.5q0 80 30.5 144.5t89 102t139.5 37.5q76 0 132 -32.5t86.5 -94t30.5 -146.5q0 -33 -3 -57h-344q15 -121 128 -121zM236 411.5q-26 -31.5 -31 -96.5h195q-2 128 -95 128
q-43 0 -69 -31.5zM186 657q-44 45 -51 110l87 15q7 -29 29 -45t56 -16t56 16t29 45l87 -15q-7 -65 -51 -110t-121 -45t-121 45z" />
    <glyph glyph-name="uni04D8" unicode="&#x4d8;" 
d="M25 403h388q-3 98 -37 144t-99 46q-43 0 -73.5 -13.5t-68.5 -41.5l-75 86q50 43 105.5 65t126.5 22q138 0 211 -91.5t73 -268.5t-73.5 -272.5t-206.5 -95.5q-138 0 -207 93t-69 261q0 33 5 66zM380.5 146q29.5 45 32.5 146h-238q1 -101 32 -146t89 -45q55 0 84.5 45z" />
    <glyph glyph-name="uni04D9" unicode="&#x4d9;" 
d="M491 472.5q67 -76.5 67 -205.5q0 -80 -30.5 -144.5t-89 -102t-140.5 -37.5q-119 0 -187.5 72t-68.5 201q0 32 3 56h360q-3 63 -33.5 94t-85.5 31q-79 0 -141 -46l-65 88q87 70 213 70q131 0 198 -76.5zM375.5 124q26.5 29 29.5 93h-215v-5q2 -57 29 -87t79 -30
q51 0 77.5 29z" />
    <glyph glyph-name="uni04DA" unicode="&#x4da;" 
d="M25 403h388q-3 98 -37 144t-99 46q-43 0 -73.5 -13.5t-68.5 -41.5l-75 86q50 43 105.5 65t126.5 22q138 0 211 -91.5t73 -268.5t-73.5 -272.5t-206.5 -95.5q-138 0 -207 93t-69 261q0 33 5 66zM380.5 146q29.5 45 32.5 146h-238q1 -101 32 -146t89 -45q55 0 84.5 45z
M118 786q-24 23 -24 57t24 57t58 23q35 0 58.5 -23t23.5 -57t-23.5 -57t-58.5 -23q-34 0 -58 23zM349.5 786.5q-24.5 23.5 -24.5 56.5t24.5 56.5t58.5 23.5q35 0 58.5 -23t23.5 -57t-23.5 -57t-58.5 -23q-34 0 -58.5 23.5z" />
    <glyph glyph-name="uni04DB" unicode="&#x4db;" 
d="M491 472.5q67 -76.5 67 -205.5q0 -80 -30.5 -144.5t-89 -102t-140.5 -37.5q-119 0 -187.5 72t-68.5 201q0 32 3 56h360q-3 63 -33.5 94t-85.5 31q-79 0 -141 -46l-65 88q87 70 213 70q131 0 198 -76.5zM375.5 124q26.5 29 29.5 93h-215v-5q2 -57 29 -87t79 -30
q51 0 77.5 29zM137 660.5q-24 23.5 -24 57.5q0 33 24 56t58 23q35 0 59 -23t24 -56q0 -34 -24 -57.5t-59 -23.5q-34 0 -58 23.5zM368.5 660.5q-24.5 23.5 -24.5 57.5q0 33 24.5 56t58.5 23t58 -23t24 -56q0 -34 -23.5 -57.5t-58.5 -23.5q-34 0 -58.5 23.5z" />
    <glyph glyph-name="uni04DC" unicode="&#x4dc;" 
d="M220 320l-78 -320h-140l108 379l-98 314h135l76 -291h27v291h100v-291h27l76 291h135l-98 -314l108 -379h-142l-78 320h-28v-320h-100v320h-30zM126 785q-24 23 -24 57t24 57t58 23q35 0 58.5 -23t23.5 -57t-23.5 -57t-58.5 -23q-34 0 -58 23zM357.5 785.5
q-24.5 23.5 -24.5 56.5t24.5 56.5t58.5 23.5q35 0 58.5 -23t23.5 -57t-23.5 -57t-58.5 -23q-34 0 -58.5 23.5z" />
    <glyph glyph-name="uni04DD" unicode="&#x4dd;" 
d="M246 232h-25l-85 -232h-141l122 285l-119 246h137l84 -211h27v211h108v-211h27l88 211h133l-118 -246l122 -285h-138l-89 232h-25v-232h-108v232zM126 660.5q-24 23.5 -24 57.5q0 33 24 56t58 23q35 0 59 -23t24 -56q0 -34 -24 -57.5t-59 -23.5q-34 0 -58 23.5z
M357.5 660.5q-24.5 23.5 -24.5 57.5q0 33 24.5 56t58.5 23t58 -23t24 -56q0 -34 -23.5 -57.5t-58.5 -23.5q-34 0 -58.5 23.5z" />
    <glyph glyph-name="uni04DE" unicode="&#x4de;" 
d="M418.5 687.5q58.5 -23.5 90.5 -65.5t32 -96q0 -63 -40.5 -102.5t-116.5 -54.5q83 -8 130.5 -52t47.5 -119q0 -65 -34 -113.5t-100 -75t-158 -26.5q-84 0 -150.5 25.5t-112.5 73.5l84 84q75 -63 176 -63q61 0 96 27t35 75q0 52 -34 78t-98 26h-116l19 116h96q54 0 84.5 22
t30.5 63q0 39 -30 60.5t-84 21.5q-94 0 -162 -54l-79 83q102 90 258 90q77 0 135.5 -23.5zM115 785q-24 23 -24 57t24 57t58 23q35 0 58.5 -23t23.5 -57t-23.5 -57t-58.5 -23q-34 0 -58 23zM346.5 785.5q-24.5 23.5 -24.5 56.5t24.5 56.5t58.5 23.5q35 0 58.5 -23t23.5 -57
t-23.5 -57t-58.5 -23q-34 0 -58.5 23.5z" />
    <glyph glyph-name="uni04DF" unicode="&#x4df;" 
d="M265 324q41 0 63 15.5t22 43.5t-23 42t-66 14q-41 0 -79.5 -10t-70.5 -29l-68 84q46 32 104.5 48.5t123.5 16.5q106 0 172 -39t66 -109q0 -87 -127 -120q76 -9 115 -39t39 -88q0 -82 -74 -126.5t-194 -44.5q-149 0 -242 70l68 91q42 -25 83 -36.5t89 -11.5
q53 0 79.5 17.5t26.5 48.5q0 29 -24.5 45t-72.5 16h-115l9 101h96zM112 656.5q-24 23.5 -24 57.5q0 33 24 56t58 23q35 0 59 -23t24 -56q0 -34 -24 -57.5t-59 -23.5q-34 0 -58 23.5zM343.5 656.5q-24.5 23.5 -24.5 57.5q0 33 24.5 56t58.5 23t58 -23t24 -56
q0 -34 -23.5 -57.5t-58.5 -23.5q-34 0 -58.5 23.5z" />
    <glyph glyph-name="uni04E0" unicode="&#x4e0;" 
d="M503 353.5q56 -48.5 56 -140.5q0 -65 -34 -118t-97 -84t-147 -31q-83 0 -137 23t-103 67l76 87q40 -31 76 -44t81 -13q53 0 84 27t31 84q0 53 -33 74.5t-97 21.5h-97v86l186 177h-268v123h442v-118l-180 -173h7q98 0 154 -48.5z" />
    <glyph glyph-name="uni04E1" unicode="&#x4e1;" 
d="M482 164.5q62 -50.5 62 -146.5q0 -68 -33.5 -122.5t-96 -86t-144.5 -31.5q-81 0 -133.5 22t-100.5 64l75 87q35 -28 69.5 -42t80.5 -14q55 0 87 29t32 85t-33.5 81t-90.5 25h-105v96l188 203h-270v117h444v-107l-196 -209h7q96 0 158 -50.5z" />
    <glyph glyph-name="uni04E2" unicode="&#x4e2;" 
d="M52 693h150v-235q0 -98 -7 -168.5t-21 -146.5l193 550h181v-693h-150v230q0 164 27 319l-189 -549h-184v693zM147 782v110h305v-110h-305z" />
    <glyph glyph-name="uni04E3" unicode="&#x4e3;" 
d="M530 0h-149v169q0 125 26 224l-174 -393h-163v531h149v-171q0 -121 -27 -223l174 394h164v-531zM147 658v109h306v-109h-306z" />
    <glyph glyph-name="uni04E4" unicode="&#x4e4;" 
d="M52 693h150v-235q0 -98 -7 -168.5t-21 -146.5l193 550h181v-693h-150v230q0 164 27 319l-189 -549h-184v693zM126 785q-24 23 -24 57t24 57t58 23q35 0 58.5 -23t23.5 -57t-23.5 -57t-58.5 -23q-34 0 -58 23zM357.5 785.5q-24.5 23.5 -24.5 56.5t24.5 56.5t58.5 23.5
q35 0 58.5 -23t23.5 -57t-23.5 -57t-58.5 -23q-34 0 -58.5 23.5z" />
    <glyph glyph-name="uni04E5" unicode="&#x4e5;" 
d="M530 0h-149v169q0 125 26 224l-174 -393h-163v531h149v-171q0 -121 -27 -223l174 394h164v-531zM126 660.5q-24 23.5 -24 57.5q0 33 24 56t58 23q35 0 59 -23t24 -56q0 -34 -24 -57.5t-59 -23.5q-34 0 -58 23.5zM357.5 660.5q-24.5 23.5 -24.5 57.5q0 33 24.5 56t58.5 23
t58 -23t24 -56q0 -34 -23.5 -57.5t-58.5 -23.5q-34 0 -58.5 23.5z" />
    <glyph glyph-name="uni04E6" unicode="&#x4e6;" 
d="M505.5 80.5q-71.5 -97.5 -205.5 -97.5q-135 0 -206 96.5t-71 267.5q0 169 71.5 266.5t205.5 97.5q135 0 206 -96.5t71 -267.5q0 -169 -71.5 -266.5zM383.5 533q-25.5 58 -83.5 58t-83.5 -58t-25.5 -186t25.5 -186t83.5 -58q59 0 84 58t25 186t-25.5 186zM126 785
q-24 23 -24 57t24 57t58 23q35 0 58.5 -23t23.5 -57t-23.5 -57t-58.5 -23q-34 0 -58 23zM357.5 785.5q-24.5 23.5 -24.5 56.5t24.5 56.5t58.5 23.5q35 0 58.5 -23t23.5 -57t-23.5 -57t-58.5 -23q-34 0 -58.5 23.5z" />
    <glyph glyph-name="uni04E7" unicode="&#x4e7;" 
d="M489.5 472.5q68.5 -76.5 68.5 -205.5q0 -134 -68 -209t-190 -75t-190 74.5t-68 208.5q0 85 30.5 148.5t89 99t138.5 35.5q121 0 189.5 -76.5zM228 392.5q-23 -39.5 -23 -126.5q0 -88 23 -127.5t72 -39.5t72 40t23 128q0 86 -23 125.5t-72 39.5t-72 -39.5zM126 660.5
q-24 23.5 -24 57.5q0 33 24 56t58 23q35 0 59 -23t24 -56q0 -34 -24 -57.5t-59 -23.5q-34 0 -58 23.5zM357.5 660.5q-24.5 23.5 -24.5 57.5q0 33 24.5 56t58.5 23t58 -23t24 -56q0 -34 -23.5 -57.5t-58.5 -23.5q-34 0 -58.5 23.5z" />
    <glyph glyph-name="uni04E8" unicode="&#x4e8;" 
d="M505.5 80.5q-71.5 -97.5 -205.5 -97.5q-135 0 -206 96.5t-71 267.5q0 169 71.5 266.5t205.5 97.5q135 0 206 -96.5t71 -267.5q0 -169 -71.5 -266.5zM218.5 545.5q-27.5 -45.5 -32.5 -143.5h227q-5 98 -31.5 143.5t-81.5 45.5q-54 0 -81.5 -45.5zM383.5 151
q26.5 48 30.5 150h-228q3 -102 30.5 -150t83.5 -48q57 0 83.5 48z" />
    <glyph glyph-name="uni04E9" unicode="&#x4e9;" 
d="M489.5 472.5q68.5 -76.5 68.5 -205.5q0 -134 -68 -209t-190 -75t-190 74.5t-68 208.5q0 85 30.5 148.5t89 99t138.5 35.5q121 0 189.5 -76.5zM229 405.5q-25 -29.5 -31 -92.5h203q-6 63 -31 92.5t-70 29.5q-46 0 -71 -29.5zM197 223q6 -67 31 -96.5t72 -29.5
q46 0 71 29.5t31 96.5h-205z" />
    <glyph glyph-name="uni04EA" unicode="&#x4ea;" 
d="M505.5 80.5q-71.5 -97.5 -205.5 -97.5q-135 0 -206 96.5t-71 267.5q0 169 71.5 266.5t205.5 97.5q135 0 206 -96.5t71 -267.5q0 -169 -71.5 -266.5zM218.5 545.5q-27.5 -45.5 -32.5 -143.5h227q-5 98 -31.5 143.5t-81.5 45.5q-54 0 -81.5 -45.5zM383.5 151
q26.5 48 30.5 150h-228q3 -102 30.5 -150t83.5 -48q57 0 83.5 48zM126 785q-24 23 -24 57t24 57t58 23q35 0 58.5 -23t23.5 -57t-23.5 -57t-58.5 -23q-34 0 -58 23zM357.5 785.5q-24.5 23.5 -24.5 56.5t24.5 56.5t58.5 23.5q35 0 58.5 -23t23.5 -57t-23.5 -57t-58.5 -23
q-34 0 -58.5 23.5z" />
    <glyph glyph-name="uni04EB" unicode="&#x4eb;" 
d="M489.5 472.5q68.5 -76.5 68.5 -205.5q0 -134 -68 -209t-190 -75t-190 74.5t-68 208.5q0 85 30.5 148.5t89 99t138.5 35.5q121 0 189.5 -76.5zM229 405.5q-25 -29.5 -31 -92.5h203q-6 63 -31 92.5t-70 29.5q-46 0 -71 -29.5zM197 223q6 -67 31 -96.5t72 -29.5
q46 0 71 29.5t31 96.5h-205zM127 660.5q-24 23.5 -24 57.5q0 33 24 56t58 23q35 0 59 -23t24 -56q0 -34 -24 -57.5t-59 -23.5q-34 0 -58 23.5zM358.5 660.5q-24.5 23.5 -24.5 57.5q0 33 24.5 56t58.5 23t58 -23t24 -56q0 -34 -23.5 -57.5t-58.5 -23.5q-34 0 -58.5 23.5z" />
    <glyph glyph-name="uni04EC" unicode="&#x4ec;" 
d="M481.5 618.5q78.5 -92.5 78.5 -267.5q0 -121 -39.5 -203.5t-110.5 -123.5t-167 -41q-69 0 -127.5 22.5t-101.5 65.5l76 89q36 -27 71 -40t80 -13q145 0 153 190h-257v115h257q-5 96 -41.5 138t-105.5 42q-45 0 -80 -14.5t-69 -39.5l-76 86q50 42 107.5 64.5t130.5 22.5
q143 0 221.5 -92.5zM104 781q-24 23 -24 57t24 57t58 23q35 0 58.5 -23t23.5 -57t-23.5 -57t-58.5 -23q-34 0 -58 23zM335.5 781.5q-24.5 23.5 -24.5 56.5t24.5 56.5t58.5 23.5q35 0 58.5 -23t23.5 -57t-23.5 -57t-58.5 -23q-34 0 -58.5 23.5z" />
    <glyph glyph-name="uni04ED" unicode="&#x4ed;" 
d="M418.5 513q59.5 -36 90.5 -100.5t31 -148.5q0 -83 -32.5 -146.5t-95 -99t-149.5 -35.5q-61 0 -108 17t-86 52l70 84q29 -20 56.5 -29t63.5 -9q53 0 83.5 29t37.5 94h-196v100h194q-13 113 -114 113q-34 0 -62.5 -9t-58.5 -28l-67 87q45 34 91 49.5t110 15.5
q82 0 141.5 -36zM127 660.5q-24 23.5 -24 57.5q0 33 24 56t58 23q35 0 59 -23t24 -56q0 -34 -24 -57.5t-59 -23.5q-34 0 -58 23.5zM358.5 660.5q-24.5 23.5 -24.5 57.5q0 33 24.5 56t58.5 23t58 -23t24 -56q0 -34 -23.5 -57.5t-58.5 -23.5q-34 0 -58.5 23.5z" />
    <glyph glyph-name="uni04EE" unicode="&#x4ee;" 
d="M431 236q-35 -92 -74 -143.5t-97 -76.5t-154 -33l-21 112q78 7 116 26.5t62 61.5h-53l-215 510h170l146 -416l130 416h166zM157 782v110h305v-110h-305z" />
    <glyph glyph-name="uni04EF" unicode="&#x4ef;" 
d="M395 0q-36 -107 -107 -161.5t-190 -61.5l-18 112q76 10 112.5 34t58.5 77h-55l-168 531h167l103 -430l112 430h162zM147 658v109h306v-109h-306z" />
    <glyph glyph-name="uni04F0" unicode="&#x4f0;" 
d="M431 236q-35 -92 -74 -143.5t-97 -76.5t-154 -33l-21 112q78 7 116 26.5t62 61.5h-53l-215 510h170l146 -416l130 416h166zM136 785q-24 23 -24 57t24 57t58 23q35 0 58.5 -23t23.5 -57t-23.5 -57t-58.5 -23q-34 0 -58 23zM367.5 785.5q-24.5 23.5 -24.5 56.5t24.5 56.5
t58.5 23.5q35 0 58.5 -23t23.5 -57t-23.5 -57t-58.5 -23q-34 0 -58.5 23.5z" />
    <glyph glyph-name="uni04F1" unicode="&#x4f1;" 
d="M395 0q-36 -107 -107 -161.5t-190 -61.5l-18 112q76 10 112.5 34t58.5 77h-55l-168 531h167l103 -430l112 430h162zM126 660.5q-24 23.5 -24 57.5q0 33 24 56t58 23q35 0 59 -23t24 -56q0 -34 -24 -57.5t-59 -23.5q-34 0 -58 23.5zM357.5 660.5q-24.5 23.5 -24.5 57.5
q0 33 24.5 56t58.5 23t58 -23t24 -56q0 -34 -23.5 -57.5t-58.5 -23.5q-34 0 -58.5 23.5z" />
    <glyph glyph-name="uni04F2" unicode="&#x4f2;" 
d="M431 236q-35 -92 -74 -143.5t-97 -76.5t-154 -33l-21 112q78 7 116 26.5t62 61.5h-53l-215 510h170l146 -416l130 416h166zM268 982l107 -49l-124 -183l-83 36zM432 982l106 -51l-125 -182l-81 39z" />
    <glyph glyph-name="uni04F3" unicode="&#x4f3;" 
d="M395 0q-36 -107 -107 -161.5t-190 -61.5l-18 112q76 10 112.5 34t58.5 77h-55l-168 531h167l103 -430l112 430h162zM259 857l107 -49l-124 -183l-82 36zM423 857l106 -51l-125 -182l-81 39z" />
    <glyph glyph-name="uni04F4" unicode="&#x4f4;" 
d="M548 693v-693h-164v243q-61 -45 -144 -45q-102 0 -158.5 60.5t-56.5 175.5v259h164v-254q0 -65 22.5 -92.5t74.5 -27.5q58 0 98 36v338h164zM112 785q-24 23 -24 57t24 57t58 23q35 0 58.5 -23t23.5 -57t-23.5 -57t-58.5 -23q-34 0 -58 23zM343.5 785.5
q-24.5 23.5 -24.5 56.5t24.5 56.5t58.5 23.5q35 0 58.5 -23t23.5 -57t-23.5 -57t-58.5 -23q-34 0 -58.5 23.5z" />
    <glyph glyph-name="uni04F5" unicode="&#x4f5;" 
d="M526 0h-158v198q-62 -50 -152 -50q-81 0 -124.5 44t-43.5 121v218h158v-198q0 -36 17.5 -52t50.5 -16q25 0 50.5 9.5t43.5 25.5v231h158v-531zM113 660.5q-24 23.5 -24 57.5q0 33 24 56t58 23q35 0 59 -23t24 -56q0 -34 -24 -57.5t-59 -23.5q-34 0 -58 23.5zM344.5 660.5
q-24.5 23.5 -24.5 57.5q0 33 24.5 56t58.5 23t58 -23t24 -56q0 -34 -23.5 -57.5t-58.5 -23.5q-34 0 -58.5 23.5z" />
    <glyph glyph-name="uni04F6" unicode="&#x4f6;" 
d="M254 564v-442h68v-296h-125l-20 174h-87v693h469l-16 -129h-289z" />
    <glyph glyph-name="uni04F7" unicode="&#x4f7;" 
d="M280 409v-292h70v-291h-119l-19 174h-90v531h417l-18 -122h-241z" />
    <glyph glyph-name="uni04F8" unicode="&#x4f8;" 
d="M155 462h9q123 0 188.5 -56.5t65.5 -168.5q0 -120 -66.5 -178.5t-185.5 -58.5h-145v693h134v-231zM579 0h-134v693h134v-693zM155 351v-238h14q55 0 82.5 27.5t27.5 95.5q0 115 -101 115h-23zM126 785q-24 23 -24 57t24 57t58 23q35 0 58.5 -23t23.5 -57t-23.5 -57
t-58.5 -23q-34 0 -58 23zM357.5 785.5q-24.5 23.5 -24.5 56.5t24.5 56.5t58.5 23.5q35 0 58.5 -23t23.5 -57t-23.5 -57t-58.5 -23q-34 0 -58.5 23.5z" />
    <glyph glyph-name="uni04F9" unicode="&#x4f9;" 
d="M161 369h9q119 0 177 -44.5t58 -137.5q0 -92 -57 -139.5t-161 -47.5h-161v531h135v-162zM574 0h-135v531h135v-531zM161 275v-177h23q39 0 59 21.5t20 69.5q0 45 -20 65.5t-64 20.5h-18zM126 660.5q-24 23.5 -24 57.5q0 33 24 56t58 23q35 0 59 -23t24 -56
q0 -34 -24 -57.5t-59 -23.5q-34 0 -58 23.5zM357.5 660.5q-24.5 23.5 -24.5 57.5q0 33 24.5 56t58.5 23t58 -23t24 -56q0 -34 -23.5 -57.5t-58.5 -23.5q-34 0 -58.5 23.5z" />
    <glyph glyph-name="uni04FA" unicode="&#x4fa;" 
d="M323 564v-131h143v-98h-143v-213h74v-148q0 -98 -52.5 -149.5t-148.5 -51.5q-43 0 -74.5 11.5t-60.5 33.5l60 92q18 -9 30.5 -13t29.5 -4q26 0 39 15.5t13 51.5v40h-74v335h-77v98h77v260h469l-16 -129h-289z" />
    <glyph glyph-name="uni04FB" unicode="&#x4fb;" 
d="M306 409v-97h116v-99h-116v-96h68v-143q0 -98 -50.5 -149.5t-143.5 -51.5q-43 0 -75 11.5t-61 33.5l61 89q18 -9 30 -13t29 -4q26 0 39 15.5t13 51.5v43h-68v213h-75v99h75v219h417l-18 -122h-241z" />
    <glyph glyph-name="uni04FC" unicode="&#x4fc;" 
d="M609 -26q0 -98 -52 -149.5t-148 -51.5q-43 0 -75 11.5t-61 33.5l61 92q18 -9 30 -13t29 -4q26 0 39 15.5t13 51.5v40h-29l-122 264l-121 -264h-174l197 368l-182 325h177l105 -222l107 222h173l-185 -318l136 -253h82v-148z" />
    <glyph glyph-name="uni04FD" unicode="&#x4fd;" 
d="M584 -26q0 -98 -50.5 -149.5t-144.5 -51.5q-43 0 -74.5 11.5t-60.5 33.5l60 89q18 -9 30.5 -13t29.5 -4q26 0 39 15.5t13 51.5v43h-37l-105 199l-101 -199h-171l182 279l-165 252h177l85 -170l82 170h168l-156 -246l108 -168h91v-143z" />
    <glyph glyph-name="uni04FE" unicode="&#x4fe;" 
d="M597 0h-177l-122 264l-120 -264h-174l170 319h-122v99h120l-153 275h177l104 -222l107 222h173l-159 -275h129v-99h-124z" />
    <glyph glyph-name="uni04FF" unicode="&#x4ff;" 
d="M578 0h-179l-101 209l-105 -209h-171l159 244h-110v86h100l-132 201h175l84 -183l87 183h166l-128 -201h106v-86h-108z" />
    <glyph glyph-name="uni0500" unicode="&#x500;" 
d="M97.5 57q-73.5 57 -73.5 173q0 109 77 169t212 60h68v234h164v-693h-244q-130 0 -203.5 57zM381 120v222h-62q-64 0 -95 -27.5t-31 -84.5q0 -58 30 -84t90 -26h68z" />
    <glyph glyph-name="uni0501" unicode="&#x501;" 
d="M530 742v-742h-140l-8 58q-24 -34 -61 -54.5t-86 -20.5q-96 0 -145.5 76t-49.5 208q0 82 26 146t74 100t112 36q72 0 120 -50v260zM227 392.5q-24 -40.5 -24 -126.5q0 -92 21.5 -129.5t60.5 -37.5q50 0 87 61v229q-17 22 -35.5 33t-42.5 11q-43 0 -67 -40.5z" />
    <glyph glyph-name="uni0502" unicode="&#x502;" 
d="M583 246q0 -133 -45 -198t-135 -65q-80 0 -122 65q-22 -31 -48.5 -47t-62.5 -16q-44 0 -80 25.5t-58 76.5t-22 122q0 72 27 125t73.5 81t103.5 28h38v250h124v-554q0 -25 9 -37t23 -12q25 0 37 37.5t12 117.5q0 67 -5 134h125q6 -58 6 -133zM224.5 99.5
q13.5 9.5 27.5 31.5v210h-32q-42 0 -63.5 -31t-21.5 -100q0 -120 58 -120q18 0 31.5 9.5z" />
    <glyph glyph-name="uni0503" unicode="&#x503;" 
d="M603 256q0 -138 -51 -205.5t-142 -67.5q-42 0 -77.5 19t-58.5 56q-20 -37 -44.5 -56t-61.5 -19q-78 0 -123 75.5t-45 208.5q0 80 22.5 144.5t60.5 101t83 36.5q48 0 77 -34v242l138 -15v-600q0 -53 35 -53q24 0 36 39.5t12 126.5q0 64 -6 124h139q6 -58 6 -123zM219 100
q11 11 24 35v282q-20 26 -44 26q-27 0 -41 -41.5t-14 -135.5q0 -101 12.5 -139t38.5 -38q13 0 24 11z" />
    <glyph glyph-name="uni0504" unicode="&#x504;" 
d="M584 256q0 -273 -203 -273q-75 0 -122.5 33t-79.5 100l-70 149h-72v111h75q55 0 82.5 25.5t27.5 80.5q0 51 -29 74.5t-88 23.5h-89v113h89q143 0 214 -52t71 -159q0 -68 -35.5 -114t-95.5 -73l73 -150q10 -22 21 -30.5t27 -8.5q27 0 39.5 34t12.5 115q0 57 -5 124h151
q6 -58 6 -123z" />
    <glyph glyph-name="uni0505" unicode="&#x505;" 
d="M583 256q0 -138 -54.5 -205.5t-154.5 -67.5q-70 0 -121.5 30.5t-90.5 105.5l-27 52h-88v113h70q84 0 84 70q0 34 -21.5 51t-60.5 17h-116l1 109h113q122 0 184 -45.5t62 -128.5q0 -54 -22.5 -88.5t-66.5 -58.5l34 -61q30 -54 68 -54q30 0 43 37t13 123q0 64 -6 124h151
q6 -58 6 -123z" />
    <glyph glyph-name="uni0506" unicode="&#x506;" 
d="M566 122v-296h-126l-20 174h-51l-150 265h-132v113h147q109 0 109 104q0 50 -28.5 73t-87.5 23h-170v115h169q143 0 214.5 -52t71.5 -159q0 -70 -38 -117.5t-101 -72.5l106 -170h87z" />
    <glyph glyph-name="uni0507" unicode="&#x507;" 
d="M537 117v-291h-119l-20 174h-43l-99 171h-139v113h110q84 0 84 70q0 34 -21 51t-60 17h-157l1 109h154q121 0 183 -45t62 -129q0 -48 -18.5 -83t-61.5 -62l62 -95h82z" />
    <glyph glyph-name="uni0508" unicode="&#x508;" 
d="M598 246q0 -263 -180 -263q-67 0 -110 43.5t-43 122.5v437h-53l-9 -169q-8 -153 -23.5 -233.5t-43.5 -123.5t-83 -80l-58 94q27 23 43 57.5t27 108t19 213.5l14 240h292v-554q0 -25 9 -37t24 -12q49 0 49 155q0 67 -5 134h125q6 -58 6 -133z" />
    <glyph glyph-name="uni0509" unicode="&#x509;" 
d="M596 256q0 -137 -50 -205t-136 -68q-72 0 -118 46.5t-46 130.5v259h-57l-8 -127q-7 -103 -23 -162t-40.5 -90t-67.5 -60l-67 87q26 24 42 75t24 154l18 235h314v-400q0 -20 8.5 -31t22.5 -11q24 0 35.5 39t11.5 127q0 64 -6 124h137q6 -58 6 -123z" />
    <glyph glyph-name="uni050A" unicode="&#x50a;" 
d="M592 246q0 -134 -46 -198.5t-140 -64.5q-44 0 -80.5 19t-58.5 56.5t-22 90.5v141h-82v-290h-132v693h132v-286h82v286h133v-554q0 -25 9 -37t23 -12q25 0 37 37.5t12 117.5q0 67 -5 134h132q6 -58 6 -133z" />
    <glyph glyph-name="uni050B" unicode="&#x50b;" 
d="M596 256q0 -136 -51.5 -204.5t-137.5 -68.5q-72 0 -117.5 46.5t-45.5 130.5v54h-84v-214h-135v531h135v-206h84v206h136v-400q0 -20 7.5 -31t21.5 -11q26 0 38.5 39t12.5 127q0 64 -6 124h136q6 -58 6 -123z" />
    <glyph glyph-name="uni050C" unicode="&#x50c;" 
d="M100.5 76.5q-77.5 93.5 -77.5 271.5q0 115 42 197t115.5 124t164.5 42q71 0 123.5 -22.5t96.5 -63.5l-86 -89q-33 29 -61.5 42t-64.5 13q-75 0 -118 -59.5t-43 -184.5q0 -134 32 -189t103 -55q47 0 86 21v159h-87l-16 114h258v-344q-114 -70 -242 -70q-148 0 -225.5 93.5
z" />
    <glyph glyph-name="uni050D" unicode="&#x50d;" 
d="M428 530.5q46 -18.5 88 -53.5l-71 -89q-33 23 -59 33.5t-55 10.5q-116 0 -116 -173q0 -83 23.5 -122.5t70.5 -39.5q23 0 38.5 3.5t34.5 9.5v97h-53l-18 103h219v-268q-49 -28 -101.5 -44t-119.5 -16q-122 0 -189.5 71t-67.5 207q0 89 36.5 154.5t98 100t134.5 34.5
q61 0 107 -18.5z" />
    <glyph glyph-name="uni050E" unicode="&#x50e;" 
d="M580 246q0 -130 -59 -196.5t-159 -66.5q-87 0 -140.5 52.5t-53.5 154.5v172h-1v208h-155v123h492l-17 -123h-156v-420q0 -50 36 -50q30 0 43.5 35.5t13.5 109.5q0 67 -5 134h155q6 -58 6 -133z" />
    <glyph glyph-name="uni050F" unicode="&#x50f;" 
d="M557 227q0 -78 -29.5 -133t-82 -83t-120.5 -28q-88 0 -141 49t-53 140v245h-131v114h444l-19 -114h-136v-270q0 -26 11 -39t31 -13q33 0 54 33t21 98q0 73 -6 133h151q6 -58 6 -132z" />
    <glyph glyph-name="uni0510" unicode="&#x510;" 
d="M461.5 689q60.5 -22 113.5 -68l-79 -83q-68 54 -159 54q-55 0 -86 -22t-31 -61q0 -41 31 -62.5t84 -21.5h114l-19 -116h-96q-64 0 -98 -26t-34 -78q0 -48 34.5 -75t93.5 -27q103 0 181 63l82 -84q-105 -99 -270 -99q-88 0 -152.5 27t-98.5 75.5t-34 113.5
q0 74 47.5 117.5t130.5 52.5q-78 14 -117.5 49.5t-39.5 97.5q0 57 34 101t94 69t136 25q78 0 138.5 -22z" />
    </font>
</defs>
</svg>
